<svg xmlns="http://www.w3.org/2000/svg" xmlns:xlink="http://www.w3.org/1999/xlink" version="1.1" id="ewd_logo_color" shape-rendering="optimizeQuality" x="0px" y="0px" viewBox="0 0 850.26904 147.15381" xml:space="preserve">
<g>
	<path d="M174.56885,24.46924h52.84326h12.29248c1.13037,0,2.2124,0.04834,3.25,0.14111
		c1.03516,0.09473,1.78809,0.47266,2.26025,1.13037c0.18799,0.28271,0.30469,0.61377,0.35352,0.98926
		c0.04639,0.37744,0.16309,0.75488,0.35303,1.12988v1.55469c0.09277,0.65967,0.11719,1.36621,0.0708,2.11914
		c-0.04883,0.75488-0.0708,1.46143-0.0708,2.11914c0,0.75537,0.02197,1.48389,0.0708,2.19043
		c0.04639,0.70654,0.02197,1.39063-0.0708,2.04883c-0.09473,0.47217-0.14111,1.17871-0.14111,2.11914
		c-0.28271,1.13037-0.75488,1.88525-1.41309,2.26074c-0.56494,0.37744-1.27148,0.56494-2.11914,0.56494s-1.74414,0-2.68457,0
		h-9.74902h-25.57422c-0.75488,0-1.625-0.02197-2.61377-0.07031c-0.98926-0.04639-1.97803-0.04639-2.96729,0
		c-0.98877,0.04834-1.90723,0.14111-2.75488,0.28223c-0.84814,0.1416-1.46191,0.35352-1.83691,0.63623
		c-0.66016,0.47217-1.05957,1.1543-1.20117,2.04834c-0.14111,0.89648-0.21191,1.90771-0.21191,3.03809v8.05371v4.09717
		c0.1875,0.75537,0.37549,1.39111,0.56543,1.90771c0.1875,0.51855,0.5166,0.91846,0.98877,1.20068
		c0.56543,0.37744,1.22314,0.58984,1.97803,0.63574c0.75293,0.04883,1.5542,0.0708,2.40186,0.0708h7.62988h24.30225
		c0.6582,0,1.48389-0.02197,2.47266-0.0708c0.98926-0.0459,1.9541-0.0459,2.89648,0c0.94043,0.04883,1.8125,0.11963,2.61426,0.21191
		c0.79883,0.09521,1.38818,0.28271,1.76611,0.56543c0.47021,0.28271,0.79883,0.84766,0.98877,1.69531
		c0.1875,0.84814,0.30469,1.76611,0.35352,2.75537c0.04639,0.98926,0.04639,2.00244,0,3.0376
		c-0.04883,1.0376-0.0708,1.93213-0.0708,2.68457c0,0.66016,0,1.32031,0,1.97803c0,0.66016-0.09521,1.22559-0.28271,1.6958
		c-0.18994,0.75488-0.56494,1.3667-1.13037,1.83691c-0.47217,0.28223-1.10791,0.47217-1.90723,0.56494
		c-0.80127,0.09521-1.6958,0.14111-2.68457,0.14111c-0.98926,0-1.97803-0.02197-2.96729-0.07031
		c-0.98877-0.04639-1.81445-0.0708-2.47266-0.0708h-27.55176c-1.13037,0-2.21436-0.02197-3.25-0.0708
		c-1.0376-0.04639-2.00244,0-2.89648,0.1416c-0.896,0.14111-1.64893,0.42383-2.26074,0.84766
		c-0.61328,0.42383-1.05957,1.05957-1.34229,1.90723c-0.09473,0.47266-0.14111,0.96729-0.14111,1.48389
		c0,0.51855,0,1.01318,0,1.4834v5.36914v7.9126c0,1.13037,0.0708,2.14355,0.21191,3.03711
		c0.1416,0.89648,0.54102,1.5791,1.20117,2.04883c0.28223,0.2832,0.63574,0.44824,1.05957,0.49512
		c0.42383,0.04883,0.86963,0.16504,1.34229,0.35254h1.41309c0.47021,0.0957,0.98877,0.12012,1.5542,0.07129
		c0.56494-0.04688,1.08154-0.07129,1.5542-0.07129h5.93408h26.56299h7.48828c0.75293,0,1.48389,0,2.19043,0
		c0.70605,0,1.34229,0.1416,1.90723,0.4248c0.75293,0.28223,1.27148,0.80078,1.5542,1.55371
		c0.1875,0.47266,0.30469,1.03809,0.35352,1.69531c0.0459,0.66016,0.07031,1.36719,0.07031,2.12012v6.49902
		c0,1.12988-0.04834,2.19043-0.14111,3.17871c-0.09521,0.98926-0.51904,1.71973-1.27148,2.19043
		c-0.56543,0.47266-1.2959,0.70605-2.19043,0.70605c-0.896,0-1.86084,0-2.89648,0h-10.59668h-41.82275H176.9707
		c-1.31982,0-2.47217-0.07031-3.46143-0.21191c-0.98926-0.14063-1.71973-0.58691-2.18994-1.3418
		c-0.37744-0.56543-0.56543-1.29395-0.56543-2.19043c0-0.89355,0-1.76563,0-2.61328V108.5376V70.10645V39.30469v-8.76025
		c0-0.84766,0-1.69531,0-2.54297s0.18799-1.50586,0.56543-1.97803c0.375-0.6582,1.08154-1.13037,2.11914-1.41309
		c0.18799-0.09277,0.37549-0.11719,0.56543-0.0708C174.19141,24.58838,174.37891,24.56396,174.56885,24.46924z"></path>
	<path d="M314.87158,24.46924h14.41162c1.22314,0,2.42383,0.02393,3.60303,0.07031c1.17676,0.04883,2.1416,0.30713,2.89648,0.77734
		c0.28271,0.18994,0.49463,0.49463,0.63574,0.91846s0.2583,0.87207,0.35303,1.34229v0.70654
		c0.09277,0.37744,0.1416,0.80127,0.1416,1.27148c0,0.47217,0,0.94238,0,1.41309V36.479c0,0.66016,0.02197,1.2959,0.07031,1.90723
		c0.04639,0.61377-0.02393,1.20117-0.21191,1.76611c-0.47217,1.60303-1.4126,2.45068-2.82568,2.54346
		c-1.41309,0.09473-3.1084,0.14111-5.08643,0.14111h-14.41162c-1.88574,0-3.51025,0.0708-4.875,0.21191
		c-1.36621,0.1416-2.28467,1.01367-2.75488,2.61426c-0.09521,0.47217-0.09521,0.896,0,1.27148
		c0.09277,0.37744,0.04639,0.80127-0.1416,1.27148c-0.09473,0.56543-0.11914,1.20117-0.07031,1.90771
		c0.04639,0.70654,0.07031,1.34229,0.07031,1.90723v12.5752v40.69238v13.28125c0,1.50781-0.07031,2.80371-0.21191,3.88574
		c-0.14111,1.08398-0.73047,1.86035-1.76611,2.33105c-0.66016,0.18945-1.4126,0.28223-2.26074,0.28223
		c-0.84766,0-1.64893,0-2.40186,0h-9.60791c-1.0376,0-2.00244-0.0459-2.89648-0.14063
		c-0.896-0.09277-1.57861-0.42383-2.04883-0.98926c-0.47217-0.75293-0.70605-1.71777-0.70605-2.89648c0-1.17676,0-2.37793,0-3.60352
		v-14.12891v-39.2793V52.021c0-0.65771,0.02197-1.34229,0.07031-2.04883c0.04639-0.70605-0.02393-1.34229-0.21191-1.90723
		c-0.09473-0.47021-0.09473-0.89404,0-1.27148c0.09277-0.37549,0.04639-0.75293-0.14111-1.13037
		c-0.47266-1.60059-1.4375-2.47266-2.89648-2.61426c-1.46143-0.14111-3.1792-0.21191-5.15723-0.21191H263.2998
		c-1.0376,0-2.18994,0.02441-3.46191,0.0708c-1.27148,0.04834-2.28467-0.02197-3.0376-0.21191
		c-0.75488-0.28271-1.32031-0.70654-1.69531-1.27148c-0.28271-0.47021-0.44824-1.08203-0.49463-1.83691
		c-0.04883-0.75293-0.0708-1.50586-0.0708-2.26074v-6.92334c0-1.22314,0.0708-2.30713,0.21191-3.24951
		c0.1416-0.94043,0.5874-1.64697,1.34229-2.11963c0.28271-0.1875,0.79932-0.375,1.5542-0.56494h0.70654H314.87158z"></path>
	<path d="M352.4541,24.46924h52.84326h12.29297c1.13086,0,2.21191,0.04834,3.25,0.14111
		c1.03516,0.09473,1.78809,0.47266,2.26074,1.13037c0.1875,0.28271,0.30469,0.61377,0.35254,0.98926
		c0.04688,0.37744,0.16406,0.75488,0.35352,1.12988v1.55469c0.09277,0.65967,0.11719,1.36621,0.07031,2.11914
		c-0.04785,0.75488-0.07031,1.46143-0.07031,2.11914c0,0.75537,0.02246,1.48389,0.07031,2.19043
		c0.04688,0.70654,0.02246,1.39063-0.07031,2.04883c-0.09473,0.47217-0.1416,1.17871-0.1416,2.11914
		c-0.28223,1.13037-0.75488,1.88525-1.41211,2.26074c-0.56543,0.37744-1.27246,0.56494-2.12012,0.56494s-1.74414,0-2.68457,0
		h-9.74902h-25.57422c-0.75488,0-1.625-0.02197-2.61377-0.07031c-0.98926-0.04639-1.97803-0.04639-2.96729,0
		c-0.98877,0.04834-1.90723,0.14111-2.75488,0.28223c-0.84814,0.1416-1.46191,0.35352-1.83691,0.63623
		c-0.66016,0.47217-1.05957,1.1543-1.20117,2.04834c-0.14111,0.89648-0.21191,1.90771-0.21191,3.03809v8.05371v4.09717
		c0.1875,0.75537,0.37549,1.39111,0.56543,1.90771c0.1875,0.51855,0.5166,0.91846,0.98877,1.20068
		c0.56543,0.37744,1.22314,0.58984,1.97803,0.63574c0.75293,0.04883,1.5542,0.0708,2.40186,0.0708h7.62988h24.30322
		c0.65723,0,1.4834-0.02197,2.47266-0.0708c0.98828-0.0459,1.95313-0.0459,2.89648,0
		c0.94043,0.04883,1.8125,0.11963,2.61328,0.21191c0.7998,0.09521,1.38867,0.28271,1.7666,0.56543
		c0.46973,0.28271,0.79883,0.84766,0.98926,1.69531c0.1875,0.84814,0.30469,1.76611,0.35254,2.75537
		c0.04688,0.98926,0.04688,2.00244,0,3.0376c-0.04785,1.0376-0.07031,1.93213-0.07031,2.68457c0,0.66016,0,1.32031,0,1.97803
		c0,0.66016-0.09473,1.22559-0.28223,1.6958c-0.19043,0.75488-0.56543,1.3667-1.13086,1.83691
		c-0.47266,0.28223-1.1084,0.47217-1.90723,0.56494c-0.80176,0.09521-1.69531,0.14111-2.68457,0.14111
		s-1.97852-0.02197-2.9668-0.07031c-0.98926-0.04639-1.81543-0.0708-2.47266-0.0708h-27.55273
		c-1.13037,0-2.21436-0.02197-3.25-0.0708c-1.0376-0.04639-2.00244,0-2.89648,0.1416
		c-0.896,0.14111-1.64893,0.42383-2.26074,0.84766c-0.61328,0.42383-1.05957,1.05957-1.34229,1.90723
		c-0.09473,0.47266-0.14111,0.96729-0.14111,1.48389c0,0.51855,0,1.01318,0,1.4834v5.36914v7.9126
		c0,1.13037,0.0708,2.14355,0.21191,3.03711c0.1416,0.89648,0.54102,1.5791,1.20117,2.04883
		c0.28271,0.2832,0.63574,0.44824,1.05957,0.49512c0.42383,0.04883,0.86963,0.16504,1.34229,0.35254h1.41309
		c0.47021,0.0957,0.98877,0.12012,1.5542,0.07129c0.56494-0.04688,1.08154-0.07129,1.5542-0.07129h5.93408h26.56348h7.48828
		c0.75293,0,1.4834,0,2.19043,0c0.70605,0,1.3418,0.1416,1.90723,0.4248c0.75293,0.28223,1.27148,0.80078,1.55469,1.55371
		c0.1875,0.47266,0.30469,1.03809,0.35254,1.69531c0.04688,0.66016,0.07129,1.36719,0.07129,2.12012v6.49902
		c0,1.12988-0.04883,2.19043-0.1416,3.17871c-0.09473,0.98926-0.51855,1.71973-1.27148,2.19043
		c-0.56543,0.47266-1.2959,0.70605-2.19043,0.70605c-0.89648,0-1.86133,0-2.89648,0h-10.59668h-41.82324h-11.16211
		c-1.31982,0-2.47217-0.07031-3.46143-0.21191c-0.98926-0.14063-1.71973-0.58691-2.18994-1.3418
		c-0.37744-0.56543-0.56543-1.29395-0.56543-2.19043c0-0.89355,0-1.76563,0-2.61328V108.5376V70.10645V39.30469v-8.76025
		c0-0.84766,0-1.69531,0-2.54297s0.18799-1.50586,0.56543-1.97803c0.375-0.6582,1.08154-1.13037,2.11914-1.41309
		c0.18799-0.09277,0.37549-0.11719,0.56543-0.0708C352.07666,24.58838,352.26416,24.56396,352.4541,24.46924z"></path>
	<path d="M525.11279,121.96045c0.1875,0.56543,0.16309,1.08398-0.07129,1.55469c-0.23535,0.47266-0.49414,0.80078-0.77637,0.98926
		c-0.56543,0.47168-1.34277,0.68359-2.33203,0.63574c-0.98828-0.04688-2.00195-0.07129-3.03711-0.07129h-7.77148
		c-1.50781,0-2.82617-0.07031-3.95605-0.21191c-1.12988-0.14063-1.97852-0.68164-2.54297-1.625
		c-0.75488-1.22266-1.17871-2.73047-1.27148-4.52051c-0.0957-1.78906-0.33203-3.48438-0.70703-5.08691
		c0-0.375-0.02441-0.72852-0.07031-1.05957c-0.04883-0.3291-0.07129-0.63574-0.07129-0.91895
		c-0.28223-1.12988-0.42383-2.33105-0.42383-3.60254s-0.09473-2.42383-0.28223-3.46191
		c-0.09473-0.28223-0.1416-0.70605-0.1416-1.27148c-0.18945-1.03516-0.35254-2.09521-0.49414-3.1792
		c-0.1416-1.08154-0.35352-2.14111-0.63574-3.17871c-0.75488-2.16602-1.64941-4.09766-2.68457-5.79297
		c-1.03809-1.6958-2.49707-2.96729-4.37988-3.81494c-0.47266-0.18799-0.94336-0.3291-1.41309-0.42383
		c-0.47266-0.09277-0.98926-0.23438-1.55469-0.42383c-1.69531-0.56543-3.65137-0.84814-5.86328-0.84814
		c-2.21387,0-4.4043,0-6.57031,0h-11.58594c-0.75488,0.18994-1.41309,0.33154-1.97754,0.42383
		c-0.56543,0.09521-1.03809,0.37793-1.41309,0.84814c-0.75488,0.94238-1.08398,2.40186-0.98926,4.37988
		c0.09277,1.97803,0.1416,3.76855,0.1416,5.36914v18.08496c0,0.75586-0.02441,1.53223-0.07129,2.33203
		c-0.04785,0.80078-0.07031,1.57813-0.07031,2.33105c0,0.75488,0,1.4375,0,2.04883c0,0.61328-0.09473,1.1543-0.28223,1.625
		c-0.2832,0.84766-0.84766,1.41309-1.69629,1.69531c-0.47168,0.18945-1.03711,0.28223-1.69531,0.28223
		c-0.66016,0-1.36621,0-2.11914,0h-6.3584c-1.50781,0-3.1084,0.02441-4.80371,0.07129
		c-1.69531,0.04785-2.9668-0.25879-3.81445-0.91895c-0.75586-0.46973-1.13086-1.3418-1.13086-2.61328c0-1.27246,0-2.51953,0-3.74512
		V31.95752c0-1.03516-0.02441-2.11914-0.07031-3.24951c-0.04883-1.13037,0.16309-2.02441,0.63574-2.68457
		c0.375-0.56543,1.08203-1.03564,2.11914-1.41309c0.1875-0.09277,0.39941-0.11719,0.63574-0.0708
		c0.23438,0.04883,0.44629,0.02441,0.63574-0.07031h48.04004c1.50488,0,2.94238,0.02393,4.30859,0.07031
		c1.36523,0.04883,2.66113,0.21191,3.88574,0.49463c0.4707,0.18994,0.96484,0.28271,1.4834,0.28271
		c0.5166,0,1.01172,0.09473,1.48438,0.28271c0.65723,0.18945,1.31738,0.37744,1.97754,0.56494
		c0.6582,0.18994,1.31836,0.42383,1.97852,0.70654c2.35352,1.0376,4.52148,2.30908,6.49902,3.81494
		c1.97852,1.50781,3.625,3.24951,4.94531,5.22754c0.375,0.47266,0.68262,0.96729,0.91797,1.48389
		c0.23438,0.51855,0.54102,1.01318,0.91895,1.4834c0.75293,1.32031,1.31836,2.68457,1.69531,4.09766
		c0.375,1.4126,0.79883,2.9668,1.27148,4.6626c0.09277,0.37744,0.11719,0.75488,0.07129,1.13037
		c-0.04883,0.37744,0.02148,0.75488,0.21191,1.13037v1.27148c0.1875,0.75488,0.2334,1.67334,0.14063,2.75537
		c-0.09473,1.08398-0.23633,1.95605-0.42383,2.61377c-0.18945,0.75488-0.28223,1.43701-0.28223,2.04883
		c0,0.61377-0.09473,1.24951-0.28223,1.90723c-0.47266,1.41309-0.94336,2.75537-1.41309,4.02686
		c-0.47266,1.27148-1.08398,2.47266-1.83691,3.60303c-0.19043,0.28271-0.42383,0.58936-0.70703,0.91846
		c-0.28223,0.33105-0.51855,0.63574-0.70605,0.91846c-0.28223,0.37744-0.58984,0.75488-0.91797,1.13037
		c-0.33203,0.37744-0.68457,0.70605-1.06055,0.98877c-0.56445,0.47266-1.12988,0.94287-1.69531,1.41309
		c-0.56543,0.47217-1.17871,0.94238-1.83691,1.41309c-0.37695,0.28223-0.75488,0.58936-1.12988,0.91797
		c-0.37793,0.33154-0.66016,0.73096-0.84766,1.20117c-0.19043,0.56494-0.09473,1.0376,0.28223,1.41309
		c0.375,0.37744,0.70703,0.66016,0.98926,0.84766c0.94043,0.75488,1.88281,1.50781,2.82617,2.26074
		c0.94043,0.75488,1.74121,1.64893,2.40137,2.68457c1.13086,1.60254,2.02441,3.24951,2.68457,4.94531
		c0.6582,1.69531,1.27148,3.62695,1.83691,5.79297c0.1875,0.84766,0.30469,1.74365,0.35352,2.68457
		c0.0459,0.94238,0.16309,1.83643,0.35254,2.68408c0,0.56543,0.02246,1.1084,0.07129,1.625
		c0.0459,0.51904,0.07031,1.06006,0.07031,1.62451c0.09277,0.37793,0.11719,0.77734,0.07129,1.20117
		c-0.04883,0.42383-0.02441,0.87207,0.07031,1.34277c0.09277,0.37695,0.11719,0.75488,0.07031,1.12988
		c-0.04883,0.37793-0.02441,0.80176,0.07129,1.27148c0.1875,0.94336,0.28223,1.93164,0.28223,2.96777
		c0,1.03711,0.09277,2.02637,0.28223,2.9668l0.42383,2.54297c0.1875,0.84766,0.37598,1.69629,0.56543,2.54395
		C524.73486,120.40674,524.92236,121.20752,525.11279,121.96045z M501.79932,58.23779
		c0.1875-1.03516,0.21191-2.30713,0.07031-3.81494c-0.14063-1.50537-0.30664-2.63574-0.49414-3.39063
		c-0.18945-0.37549-0.28223-0.70654-0.28223-0.98926s-0.0957-0.56494-0.2832-0.84766
		c-1.12988-2.91846-3.20313-5.03809-6.2168-6.3584c-1.60254-0.75244-3.43945-1.17676-5.50977-1.27148
		c-2.07324-0.09277-4.23926-0.14111-6.5-0.14111h-16.38965c-0.19043,0.18945-0.37793,0.26025-0.56543,0.21191
		c-0.18945-0.04639-0.37695-0.0708-0.56543-0.0708c-1.12988,0.28271-1.88477,0.75488-2.26074,1.41309
		c-0.47168,0.75488-0.68359,1.71973-0.63574,2.89648c0.04688,1.17871,0.07129,2.33105,0.07129,3.46143v13.14014
		c0,1.13037,0,2.26074,0,3.39111s0.2334,2.02686,0.70605,2.68457c0.375,0.56494,0.98926,0.94287,1.83691,1.13037
		c0.84766,0.18994,1.78809,0.33105,2.82617,0.42383c1.03516,0.09473,2.11914,0.11914,3.24902,0.0708
		c1.13086-0.04639,2.12012-0.0708,2.96777-0.0708h8.33594c0.6582,0,1.36426,0.02441,2.11914,0.0708
		c0.75293,0.04834,1.41309-0.02197,1.97852-0.21191h1.83691c0.75293-0.18799,1.4834-0.28271,2.18945-0.28271
		c0.70703,0,1.38867-0.09277,2.04883-0.28271c1.60059-0.47021,3.01367-1.08154,4.23926-1.83691
		c1.22266-0.75244,2.26074-1.7417,3.1084-2.9668c0.56543-0.84766,0.98926-1.78857,1.27148-2.82617
		C501.23389,60.73486,501.51709,59.55811,501.79932,58.23779z"></path>
	<path d="M543.3374,24.46924h11.44531c1.03516,0,2.04883-0.02246,3.03711-0.0708c0.98926-0.04639,1.85938,0.11914,2.61426,0.49463
		c0.94043,0.37744,1.6709,0.94238,2.19043,1.69531c0.5166,0.75488,1.01074,1.50781,1.4834,2.26074l5.08594,8.05371
		c3.2959,5.36914,6.61719,10.71631,9.96094,16.03662c3.34277,5.32275,6.66309,10.66748,9.96191,16.03662
		c1.60059,2.54346,3.17871,5.11084,4.7334,7.70068c1.55371,2.5918,3.17871,5.11084,4.87402,7.55908
		c0.375,0.56494,0.72852,1.13037,1.05957,1.69531c0.3291,0.56543,0.77734,1.08398,1.34277,1.5542
		c0.1875,0.18994,0.42383,0.37744,0.70605,0.56543c0.2832,0.18945,0.56543,0.18945,0.84766,0
		c0.6582-0.18799,0.98926-0.61182,0.98926-1.27197c0-0.65771,0.09277-1.36426,0.28223-2.11914
		c0.09277-0.6582,0.11719-1.38867,0.07129-2.18994c-0.04883-0.79932-0.07129-1.57666-0.07129-2.33154v-8.90137V38.45703v-5.36914
		c0-0.47021-0.02344-0.94043-0.07031-1.41309c-0.04883-0.47021-0.02441-0.89404,0.07031-1.27148v-1.5542
		c0-1.31787,0.2832-2.35352,0.84766-3.1084c0.4707-0.65771,1.10645-1.03564,1.9082-1.13037
		c0.79883-0.09277,1.71777-0.14111,2.75488-0.14111h8.61914c0.75293,0,1.50586,0,2.26074,0
		c0.75293,0,1.41211,0.09473,1.97754,0.28223c1.22363,0.47266,1.88379,1.2959,1.97852,2.47266
		c0.09277,1.1792,0.14063,2.56787,0.14063,4.16846v15.54199v59.20166v11.86816c0,1.03809,0.02246,2.07324,0.07129,3.1084
		c0.0459,1.03809-0.11914,1.83691-0.49512,2.40234c-0.37695,0.56543-0.8252,0.91797-1.3418,1.05957
		c-0.51855,0.1416-1.1543,0.30664-1.90723,0.49414h-4.94531h-7.77148c-0.84766,0-1.67285,0-2.47266,0
		c-0.80078,0-1.4834-0.14063-2.04883-0.42383c-1.03711-0.46973-1.83691-1.10547-2.40137-1.90723
		c-0.56543-0.79883-1.13086-1.6709-1.69531-2.61426c-0.84863-1.31738-1.67383-2.66016-2.47266-4.02637
		c-0.80176-1.36426-1.625-2.70703-2.47266-4.02734L573.2915,78.16016c-1.32031-2.16553-2.61426-4.26074-3.88574-6.2876
		c-1.27148-2.02441-2.56738-4.11963-3.88477-6.2876c-0.47266-0.65771-1.01367-1.4834-1.625-2.47266
		c-0.61426-0.98877-1.4375-1.4834-2.47266-1.4834c-0.75488,0.66016-1.15527,1.41309-1.20117,2.26074
		c-0.04883,0.84766-0.07031,1.93164-0.07031,3.24951v9.89063v33.76855v5.51074c0,0.47266,0.02148,0.94238,0.07031,1.41309
		c0.0459,0.47266-0.02441,0.94238-0.21191,1.41309v1.55371c0,1.50781-0.23633,2.5918-0.70703,3.25
		c-0.47168,0.56543-1.10742,0.89648-1.90723,0.98926c-0.80078,0.09473-1.71973,0.14063-2.75488,0.14063h-8.61914
		c-0.75488,0-1.50781,0-2.26074,0c-0.75488,0-1.41309-0.09277-1.97754-0.28223c-1.22559-0.4707-1.90723-1.31836-2.04883-2.54297
		c-0.1416-1.22363-0.21191-2.63672-0.21191-4.23926v-16.24854v-56.6582V31.95752c0-1.03516,0-2.11914,0-3.24951
		s0.1875-2.02441,0.56543-2.68457c0.375-0.6582,1.03516-1.13037,1.97754-1.41309c0.1875,0,0.39941-0.02197,0.63574-0.0708
		C542.93604,24.49316,543.14795,24.46924,543.3374,24.46924z"></path>
	<path d="M640.68799,24.61035h12.15137c1.03516,0,2.02441,0.02441,2.9668,0.0708c0.94043,0.04834,1.64648,0.40186,2.11914,1.05957
		c0.4707,0.66016,0.72852,1.50781,0.77734,2.54346c0.04688,1.0376,0.07031,2.16797,0.07031,3.39063v12.29248v49.02832v23.17188
		c0,1.22559,0.02246,2.5918,0.07129,4.09766c0.0459,1.50781-0.16602,2.63867-0.63574,3.39063
		c-0.37793,0.66016-1.22559,1.17969-2.54395,1.55469c-0.66016,0.1875-1.36621,0.23438-2.11914,0.1416
		c-0.75488-0.0957-1.50781-0.1416-2.26074-0.1416h-8.33594c-1.03809,0-2.00293-0.0459-2.89648-0.1416
		c-0.89648-0.09277-1.625-0.375-2.19043-0.84766c-0.47266-0.46973-0.75488-1.17676-0.84766-2.11914
		c-0.09473-0.94043-0.1416-1.92969-0.1416-2.9668v-12.29297V55.271V34.64209c0-1.31787-0.02344-2.87207-0.07031-4.6626
		c-0.04883-1.78809,0.16309-3.06006,0.63574-3.81494c0.37598-0.56494,0.98926-1.03516,1.83691-1.41309
		c0.28223,0,0.54102-0.02197,0.77734-0.07031C640.28564,24.63477,640.49756,24.61035,640.68799,24.61035z"></path>
	<path d="M729.84229,24.46924h14.41211c1.22266,0,2.42383,0.02393,3.60254,0.07031c1.17676,0.04883,2.1416,0.30713,2.89648,0.77734
		c0.2832,0.18994,0.49512,0.49463,0.63672,0.91846c0.14063,0.42383,0.25781,0.87207,0.35254,1.34229v0.70654
		c0.09277,0.37744,0.1416,0.80127,0.1416,1.27148c0,0.47217,0,0.94238,0,1.41309V36.479c0,0.66016,0.02246,1.2959,0.07031,1.90723
		c0.04688,0.61377-0.02441,1.20117-0.21191,1.76611c-0.47266,1.60303-1.41309,2.45068-2.8252,2.54346
		c-1.41309,0.09473-3.1084,0.14111-5.08691,0.14111h-14.41211c-1.88477,0-3.50977,0.0708-4.87402,0.21191
		c-1.36719,0.1416-2.28516,1.01367-2.75586,2.61426c-0.09473,0.47217-0.09473,0.896,0,1.27148
		c0.09277,0.37744,0.04688,0.80127-0.14063,1.27148c-0.0957,0.56543-0.11914,1.20117-0.07129,1.90771
		c0.04688,0.70654,0.07129,1.34229,0.07129,1.90723v12.5752v40.69238v13.28125c0,1.50781-0.07129,2.80371-0.21191,3.88574
		c-0.1416,1.08398-0.73145,1.86035-1.7666,2.33105c-0.66016,0.18945-1.41309,0.28223-2.26074,0.28223s-1.64941,0-2.40137,0h-9.6084
		c-1.03711,0-2.00195-0.0459-2.89648-0.14063c-0.89648-0.09277-1.57813-0.42383-2.04883-0.98926
		c-0.47266-0.75293-0.70605-1.71777-0.70605-2.89648c0-1.17676,0-2.37793,0-3.60352v-14.12891v-39.2793V52.021
		c0-0.65771,0.02148-1.34229,0.07031-2.04883c0.04688-0.70605-0.02441-1.34229-0.21191-1.90723
		c-0.09473-0.47021-0.09473-0.89404,0-1.27148c0.09277-0.37549,0.04688-0.75293-0.1416-1.13037
		c-0.47168-1.60059-1.43652-2.47266-2.89648-2.61426c-1.46094-0.14111-3.17871-0.21191-5.15723-0.21191H678.271
		c-1.03809,0-2.19043,0.02441-3.46191,0.0708c-1.27148,0.04834-2.28516-0.02197-3.03809-0.21191
		c-0.75488-0.28271-1.31934-0.70654-1.69531-1.27148c-0.28223-0.47021-0.44824-1.08203-0.49414-1.83691
		c-0.04883-0.75293-0.07031-1.50586-0.07031-2.26074v-6.92334c0-1.22314,0.07031-2.30713,0.21191-3.24951
		c0.14063-0.94043,0.58691-1.64697,1.3418-2.11963c0.28223-0.1875,0.79883-0.375,1.55469-0.56494h0.70605H729.84229z"></path>
	<path d="M760.78467,24.32764h12.43359c1.12988,0,2.30664,0,3.53223,0c1.22266,0,2.21191,0.18994,2.9668,0.56543
		c1.03613,0.47217,1.9082,1.36621,2.61426,2.68457c0.70605,1.32031,1.38867,2.4502,2.04883,3.39111
		c1.60059,2.54297,3.1084,5.08643,4.52148,7.62939c1.41309,2.54346,2.91797,5.08691,4.52148,7.62988
		c1.22266,1.88525,2.35352,3.79297,3.39063,5.72217c1.03516,1.93213,2.16602,3.83936,3.39063,5.72266
		c0.4707,0.75488,0.94043,1.57861,1.41309,2.47266c0.4707,0.896,1.22363,1.43701,2.26074,1.62451
		c0.6582,0.09521,1.22363-0.14111,1.69531-0.70605c0.4707-0.56543,0.84863-1.03564,1.13086-1.41309
		c0.84766-1.31787,1.625-2.63623,2.33105-3.95605c0.70703-1.31836,1.4834-2.63623,2.33105-3.95654
		c1.97852-3.20117,3.9082-6.42871,5.79297-9.67822c1.88379-3.25,3.81543-6.52148,5.79297-9.81982
		c0.75293-1.22314,1.55469-2.63623,2.40234-4.23877c0.84766-1.60059,1.92969-2.68457,3.25-3.25
		c0.84766-0.47021,2.18945-0.65771,4.02637-0.56494c1.83691,0.09473,3.41309,0.14111,4.7334,0.14111h7.91211
		c0.75293,0,1.53027,0.02441,2.33203,0.0708c0.79883,0.04834,1.43457,0.21191,1.90723,0.49463
		c0.75293,0.47217,0.94043,1.20068,0.56543,2.18994c-0.37793,0.98926-0.70703,1.71973-0.98926,2.18994
		c-1.13086,1.88525-2.23828,3.74414-3.32031,5.58105c-1.08398,1.83691-2.19043,3.69775-3.32031,5.58105
		c-3.2041,5.08643-6.28809,10.17285-9.25488,15.25977c-2.9668,5.08643-6.00488,10.17285-9.11328,15.25928
		c-1.03809,1.50781-2.00293,3.03809-2.89648,4.59229c-0.89648,1.5542-1.81445,3.13232-2.75488,4.73291
		c-0.75586,1.0376-1.4375,2.07324-2.04883,3.10889c-0.61426,1.0376-1.1084,2.21387-1.4834,3.53223
		c-0.0957,0.47217-0.12012,0.91846-0.07129,1.34229c0.04688,0.42383,0.02246,0.87207-0.07031,1.34229
		c-0.09473,0.28223-0.1416,0.61377-0.1416,0.98877c0,0.37744,0,0.75537,0,1.13037V96.104v18.36816
		c0,1.79004,0.02246,3.72266,0.07031,5.79297c0.04688,2.07324-0.49414,3.43945-1.62402,4.09766
		c-0.56543,0.37695-1.2959,0.56543-2.19043,0.56543c-0.89648,0-1.7666,0-2.61426,0h-9.88965
		c-1.03809,0-1.97852-0.04688-2.82617-0.1416c-0.84766-0.09277-1.50781-0.42383-1.97852-0.98926
		c-0.47168-0.56543-0.70605-1.22266-0.70605-1.97754c0-0.75293-0.04883-1.64746-0.1416-2.68457v-5.51074V95.25635v-5.36914
		c0-0.56494,0-1.15234,0-1.76611c0-0.61133-0.09473-1.15234-0.28223-1.62451c-0.37793-1.41309-0.89648-2.68457-1.55469-3.81494
		c-0.66016-1.13037-1.36621-2.2124-2.11914-3.25c-0.84766-1.50537-1.69531-2.98926-2.54297-4.45068
		c-0.84766-1.45898-1.74414-2.94287-2.68457-4.45068c-0.75488-1.03516-1.41309-2.1416-1.97852-3.32031
		c-0.56445-1.17676-1.22461-2.28271-1.97754-3.32031c-2.45117-3.86133-4.80469-7.72266-7.06445-11.58594
		c-2.26074-3.86133-4.57031-7.72266-6.92383-11.58594c-1.12988-1.8833-2.21387-3.6958-3.25-5.43994
		c-1.03711-1.7417-2.07227-3.5542-3.1084-5.43945c-0.28223-0.37549-0.68457-1.01123-1.20117-1.90771
		c-0.51855-0.89404-0.58887-1.67139-0.21191-2.33105c0.18848-0.37549,0.44629-0.63623,0.77734-0.77734
		c0.3291-0.14111,0.68262-0.2583,1.05957-0.35303c0.18848-0.09277,0.37598-0.11719,0.56543-0.0708
		C760.40674,24.44678,760.59424,24.42285,760.78467,24.32764z"></path>
</g>

<g id="Rocket" class="logo_rocket_whole">
    <circle class="logo_rocket_circle" style="fill:#ef4438;" cx="73.57666" cy="73.57715" r="73.57666"></circle>
    <g class="logo_rocket">
	<path class="logo_rocket_window" style="fill:none;" d="M73.57617,41.50537c-0.00098,0-0.00195,0-0.00195,0c-4.41992,0-8.00293,3.58301-8.00293,8.00293
		c0,4.41943,3.58301,8.00195,8.00293,8.00195c0,0,0.00098,0,0.00195,0c4.41895-0.00146,8-3.58301,8-8.00195
		C81.57617,45.08984,77.99512,41.50684,73.57617,41.50537z"></path>
	<path class="logo_rocket_ship" style="fill:#FFFFFF;" d="M90.39453,77.17725c0,0,3.25586-16.41162-1.35645-34.85742
		C86.62891,32.68164,78.32324,17.0918,73.57617,17.0918l0,0c-4.74707,0-13.05273,15.58984-15.46289,25.22803
		c-4.61133,18.4458-1.35547,34.85742-1.35547,34.85742c-14.5127,9.90186-12.28125,16.86084-5.1543,35.40039
		c4.2041,10.9375,7.10352,4.47461,8.29395,1.62695c1.72461-4.12109,3.07031-7.2793,5.24512-9.33008c0,0.8457,0,1.64453,0,2.2832
		c0,2.71289,1.35645,3.76758,2.71289,3.76758c1.35547,0,5.7207,0,5.7207,0s0-1.16992,0-3.85352c0,2.68359,0,3.85352,0,3.85352
		s4.36621,0,5.72168,0c1.35645,0,2.71289-1.05469,2.71289-3.76758c0-0.63672,0-1.43555,0-2.28125
		c2.1748,2.05078,3.51953,5.20703,5.24414,9.32813c1.19043,2.84766,4.08984,9.31055,8.29395-1.62695
		C102.67676,94.03809,104.9082,87.0791,90.39453,77.17725z M73.57617,57.51025c-0.00098,0-0.00195,0-0.00195,0
		c-4.41992,0-8.00293-3.58252-8.00293-8.00195c0-4.41992,3.58301-8.00293,8.00293-8.00293c0,0,0.00098,0,0.00195,0
		c4.41895,0.00146,8,3.58447,8,8.00293C81.57617,53.92725,77.99512,57.50879,73.57617,57.51025z"></path>
	<path class="logo_rocket_flame" style="fill:#FFFFFF;" d="M73.57617,111.74365c-12.02637,0-3.83203,18.31836,0,18.31836
		C77.34082,130.06201,85.70703,111.74365,73.57617,111.74365z"></path>
	</g>
</g>
</svg>
