<?xml version="1.0" encoding="UTF-8" standalone="no"?>
<!DOCTYPE svg PUBLIC "-//W3C//DTD SVG 1.1//EN" "http://www.w3.org/Graphics/SVG/1.1/DTD/svg11.dtd">
<svg width="100%" height="100%" viewBox="0 0 1713 443" version="1.1" xmlns="http://www.w3.org/2000/svg" xmlns:xlink="http://www.w3.org/1999/xlink" xml:space="preserve" xmlns:serif="http://www.serif.com/" style="fill-rule:evenodd;clip-rule:evenodd;stroke-miterlimit:1.41421;">
    <rect id="Artboard1" x="0" y="0" width="1712.5" height="443" style="fill:none;"/>
    <clipPath id="_clip1">
        <rect id="Artboard11" serif:id="Artboard1" x="0" y="0" width="1712.5" height="443"/>
    </clipPath>
    <g clip-path="url(#_clip1)">
        <g transform="matrix(4.16667,0,0,4.16667,0,0)">
            <path d="M207.765,74.975C207.765,73.751 207.464,72.783 206.864,72.069C206.263,71.355 205.43,70.999 204.365,70.999C203.502,70.999 202.727,71.402 202.042,72.209C201.357,73.017 201.015,74.058 201.015,75.332C201.015,76.93 201.894,78.74 203.654,80.762C204.923,79.946 205.925,79.007 206.661,77.945C207.397,76.883 207.765,75.893 207.765,74.975ZM209.525,94.985L200.406,84.585C196.971,87.083 195.254,89.734 195.254,92.539C195.254,94.544 195.838,96.15 197.006,97.356C198.175,98.563 199.774,99.166 201.806,99.166C204.565,99.166 207.139,97.773 209.525,94.985ZM227.457,80.413C227.457,80.836 227.321,81.065 227.051,81.098C225.241,81.387 223.803,81.797 222.737,82.331C221.672,82.865 220.69,83.682 219.793,84.783L213.754,92.305C216.308,95.219 218.14,97.108 219.247,97.972C220.355,98.836 221.418,99.268 222.433,99.268C223.853,99.268 225.131,98.698 226.264,97.558L226.391,97.509C226.56,97.509 226.725,97.605 226.886,97.795C227.047,97.985 227.127,98.195 227.127,98.426C227.127,98.674 226.696,99.219 225.833,100.062C224.971,100.904 224.065,101.519 223.118,101.908C222.17,102.296 221.113,102.49 219.946,102.49C218.474,102.49 217.082,102.091 215.771,101.294C214.46,100.497 212.73,98.801 210.581,96.209C208.826,98.506 207.054,100.127 205.264,101.072C203.475,102.017 201.415,102.49 199.086,102.49C196.65,102.49 194.535,101.582 192.742,99.767C190.949,97.951 190.052,95.822 190.052,93.378C190.052,89.543 193.165,86.183 199.39,83.298C198.366,82.127 197.665,81.096 197.289,80.206C196.913,79.314 196.726,78.352 196.726,77.316C196.726,75.161 197.45,73.299 198.896,71.729C200.342,70.16 202.157,69.375 204.339,69.375C206.183,69.375 207.743,69.927 209.021,71.031C210.298,72.135 210.937,73.435 210.937,74.93C210.937,76.119 210.448,77.274 209.471,78.396C208.493,79.517 206.893,80.714 204.669,81.988L212.646,91.111C214.672,88.584 215.938,86.86 216.445,85.938C216.952,85.017 217.205,84.18 217.205,83.429C217.205,82.712 216.845,82.178 216.126,81.828C215.407,81.479 214.236,81.235 212.612,81.098C212.324,81.082 212.18,80.854 212.18,80.413C212.18,79.94 212.315,79.703 212.586,79.703C213.313,79.703 214.379,79.745 215.784,79.83C217.543,79.948 218.981,80.007 220.098,80.007C221.231,80.007 222.559,79.948 224.082,79.83C225.316,79.745 226.307,79.703 227.051,79.703C227.321,79.703 227.457,79.94 227.457,80.413Z" style="fill:rgb(147,169,83);fill-rule:nonzero;"/>
            <path d="M90.982,59.651C90.982,60.43 90.727,60.82 90.218,60.82C88.085,60.82 85.491,60.736 82.435,60.569C79.512,60.402 77.085,60.319 75.153,60.319C73.221,60.319 70.857,60.402 68.063,60.569C65.134,60.736 62.603,60.82 60.471,60.82C59.898,60.82 59.611,60.43 59.611,59.651C59.611,58.955 59.866,58.58 60.375,58.523C64.1,58.134 66.638,57.536 67.991,56.728C69.344,55.92 70.02,54.389 70.02,52.134L70.02,51.466L68.015,11.003L45,61.488C44.809,61.933 44.363,62.156 43.663,62.156C42.931,62.156 42.501,61.933 42.374,61.488L20.696,13.007L17.258,51.501C17.195,51.975 17.163,52.394 17.163,52.755C17.163,54.623 17.895,55.96 19.359,56.768C20.823,57.576 23.434,58.161 27.19,58.523C27.636,58.578 27.859,58.961 27.859,59.671C27.859,60.437 27.572,60.82 26.999,60.82C25.344,60.82 23.084,60.736 20.219,60.569C17.552,60.402 15.493,60.319 14.044,60.319C12.463,60.319 10.303,60.402 7.565,60.569C4.923,60.736 2.886,60.82 1.453,60.82C1.008,60.82 0.785,60.43 0.785,59.651C0.785,58.955 1.072,58.58 1.644,58.523C5.656,58.105 8.432,57.451 9.977,56.56C11.52,55.668 12.404,53.968 12.627,51.461L17.593,12.136C17.624,11.635 17.641,11.189 17.641,10.799C17.641,8.988 16.908,7.679 15.444,6.871C13.979,6.064 11.321,5.45 7.47,5.032C7.024,5.032 6.802,4.649 6.802,3.884C6.802,3.61 6.897,3.351 7.088,3.105C7.279,2.858 7.47,2.735 7.661,2.735C8.838,2.735 10.51,2.819 12.675,2.986C14.52,3.153 15.874,3.236 16.733,3.236C17.847,3.236 19.438,3.153 21.508,2.986C23.641,2.819 25.296,2.735 26.474,2.735L46.955,49.113L68.111,2.735C69.377,2.735 71.04,2.819 73.1,2.986C74.969,3.153 76.441,3.236 77.518,3.236C78.854,3.236 80.461,3.153 82.34,2.986C84.281,2.819 85.952,2.735 87.353,2.735C87.926,2.735 88.213,3.118 88.213,3.884C88.213,4.649 87.957,5.032 87.449,5.032C83.725,5.422 81.185,6.022 79.833,6.83C78.479,7.637 77.804,9.17 77.804,11.426L77.804,12.136L80,51.461C80.096,53.411 80.437,54.776 81.026,55.557C81.615,56.337 82.626,56.957 84.059,57.416C85.491,57.876 87.544,58.245 90.218,58.523C90.727,58.58 90.982,58.955 90.982,59.651Z" style="fill:rgb(36,19,72);fill-rule:nonzero;"/>
            <path d="M90.982,59.651C90.982,60.43 90.727,60.82 90.218,60.82C88.085,60.82 85.491,60.736 82.435,60.569C79.512,60.402 77.085,60.319 75.153,60.319C73.221,60.319 70.857,60.402 68.063,60.569C65.134,60.736 62.603,60.82 60.471,60.82C59.898,60.82 59.611,60.43 59.611,59.651C59.611,58.955 59.866,58.58 60.375,58.523C64.1,58.134 66.638,57.536 67.991,56.728C69.344,55.92 70.02,54.389 70.02,52.134L70.02,51.466L68.015,11.003L45,61.488C44.809,61.933 44.363,62.156 43.663,62.156C42.931,62.156 42.501,61.933 42.374,61.488L20.696,13.007L17.258,51.501C17.195,51.975 17.163,52.394 17.163,52.755C17.163,54.623 17.895,55.96 19.359,56.768C20.823,57.576 23.434,58.161 27.19,58.523C27.636,58.578 27.859,58.961 27.859,59.671C27.859,60.437 27.572,60.82 26.999,60.82C25.344,60.82 23.084,60.736 20.219,60.569C17.552,60.402 15.493,60.319 14.044,60.319C12.463,60.319 10.303,60.402 7.565,60.569C4.923,60.736 2.886,60.82 1.453,60.82C1.008,60.82 0.785,60.43 0.785,59.651C0.785,58.955 1.072,58.58 1.644,58.523C5.656,58.105 8.432,57.451 9.977,56.56C11.52,55.668 12.404,53.968 12.627,51.461L17.593,12.136C17.624,11.635 17.641,11.189 17.641,10.799C17.641,8.988 16.908,7.679 15.444,6.871C13.979,6.064 11.321,5.45 7.47,5.032C7.024,5.032 6.802,4.649 6.802,3.884C6.802,3.61 6.897,3.351 7.088,3.105C7.279,2.858 7.47,2.735 7.661,2.735C8.838,2.735 10.51,2.819 12.675,2.986C14.52,3.153 15.874,3.236 16.733,3.236C17.847,3.236 19.438,3.153 21.508,2.986C23.641,2.819 25.296,2.735 26.474,2.735L46.955,49.113L68.111,2.735C69.377,2.735 71.04,2.819 73.1,2.986C74.969,3.153 76.441,3.236 77.518,3.236C78.854,3.236 80.461,3.153 82.34,2.986C84.281,2.819 85.952,2.735 87.353,2.735C87.926,2.735 88.213,3.118 88.213,3.884C88.213,4.649 87.957,5.032 87.449,5.032C83.725,5.422 81.185,6.022 79.833,6.83C78.479,7.637 77.804,9.17 77.804,11.426L77.804,12.136L80,51.461C80.096,53.411 80.437,54.776 81.026,55.557C81.615,56.337 82.626,56.957 84.059,57.416C85.491,57.876 87.544,58.245 90.218,58.523C90.727,58.58 90.982,58.955 90.982,59.651Z" style="fill:none;stroke:rgb(34,31,31);stroke-opacity:0;stroke-width:1px;"/>
            <path d="M159.309,32.091C159.309,23.879 157.041,17.169 152.505,11.964C147.969,6.758 142.008,4.155 134.623,4.155C127.206,4.155 121.245,6.758 116.742,11.964C112.237,17.169 109.985,23.879 109.985,32.091C109.985,40.248 112.221,46.852 116.694,51.905C121.165,56.958 127.142,59.484 134.623,59.484C142.072,59.484 148.048,56.958 152.553,51.905C157.057,46.852 159.309,40.248 159.309,32.091ZM169.814,32.091C169.814,40.916 166.567,48.133 160.073,53.742C153.579,59.352 145.096,62.156 134.623,62.156C124.15,62.156 115.675,59.352 109.197,53.742C102.719,48.133 99.48,40.916 99.48,32.091C99.48,23.238 102.743,15.924 109.269,10.147C115.794,4.371 124.245,1.482 134.623,1.482C145.033,1.482 153.499,4.371 160.025,10.147C166.551,15.924 169.814,23.238 169.814,32.091Z" style="fill:rgb(36,19,72);fill-rule:nonzero;"/>
            <path d="M159.309,32.091L159.809,32.091C159.812,23.79 157.508,16.94 152.882,11.635C148.261,6.322 142.124,3.648 134.623,3.655C127.091,3.648 120.953,6.322 116.364,11.637C111.769,16.942 109.482,23.79 109.485,32.091C109.482,40.336 111.754,47.082 116.319,52.236C120.881,57.399 127.032,59.99 134.623,59.984C142.183,59.99 148.332,57.399 152.926,52.238C157.524,47.084 159.812,40.337 159.809,32.091L159.309,32.091L158.809,32.091C158.806,40.159 156.59,46.621 152.179,51.572C147.764,56.516 141.961,58.977 134.623,58.984C127.252,58.977 121.45,56.516 117.068,51.573C112.688,46.622 110.488,40.16 110.485,32.091C110.488,23.967 112.704,17.397 117.12,12.291C121.538,7.195 127.321,4.662 134.623,4.655C141.892,4.662 147.677,7.195 152.128,12.292C156.575,17.399 158.806,23.968 158.809,32.091L159.309,32.091ZM169.814,32.091L169.314,32.091C169.307,40.794 166.136,47.835 159.746,53.364C153.355,58.883 145.009,61.654 134.623,61.656C124.236,61.654 115.899,58.883 109.524,53.364C103.15,47.836 99.987,40.794 99.98,32.091C99.987,23.361 103.175,16.219 109.6,10.521C116.025,4.837 124.335,1.986 134.623,1.983C144.943,1.986 153.268,4.837 159.694,10.521C166.119,16.219 169.307,23.361 169.314,32.091L170.314,32.091C170.321,23.115 166.982,15.63 160.357,9.773C153.731,3.905 145.122,0.979 134.623,0.982C124.156,0.979 115.562,3.905 108.938,9.773C102.311,15.63 98.973,23.115 98.98,32.091C98.973,41.038 102.288,48.43 108.87,54.12C115.45,59.821 124.064,62.659 134.623,62.656C145.182,62.659 153.804,59.821 160.4,54.121C166.997,48.431 170.321,41.038 170.314,32.091L169.814,32.091Z" style="fill:rgb(34,31,31);fill-opacity:0;fill-rule:nonzero;"/>
            <path d="M221.191,17.767C221.191,9.611 217.132,5.533 209.015,5.533C206.341,5.533 204.311,5.722 202.927,6.099C201.542,6.476 200.619,7.069 200.158,7.879C199.696,8.69 199.465,10.114 199.465,12.153L199.465,30.796C201.311,31.02 203.635,31.13 206.436,31.13C211.561,31.13 215.301,30.069 217.657,27.947C220.013,25.825 221.191,22.431 221.191,17.767ZM245.543,59.651C245.543,60.43 245.288,60.82 244.778,60.82C243.6,60.82 241.675,60.722 239.001,60.528C237.059,60.388 235.769,60.319 235.134,60.319C234.21,60.319 232.762,60.402 230.788,60.569C228.814,60.736 227.366,60.82 226.443,60.82L211.975,40.22C209.938,37.369 208.29,35.538 207.033,34.727C205.775,33.917 203.253,33.511 199.465,33.511L199.465,51.466C199.465,53.387 199.744,54.744 200.301,55.538C200.857,56.331 201.844,56.958 203.261,57.417C204.677,57.876 206.706,58.245 209.349,58.523C209.89,58.58 210.161,58.955 210.161,59.651C210.161,60.43 209.906,60.82 209.397,60.82C207.264,60.82 204.718,60.736 201.757,60.569C198.924,60.402 196.536,60.319 194.595,60.319C192.653,60.319 190.281,60.402 187.48,60.569C184.551,60.736 182.02,60.82 179.888,60.82C179.379,60.82 179.124,60.43 179.124,59.651C179.124,58.955 179.379,58.58 179.888,58.523C182.53,58.245 184.551,57.876 185.953,57.416C187.353,56.957 188.331,56.337 188.889,55.557C189.445,54.776 189.724,53.411 189.724,51.461L189.724,12.136C189.724,10.214 189.462,8.856 188.936,8.062C188.411,7.268 187.448,6.634 186.048,6.16C184.647,5.687 182.594,5.311 179.888,5.032C179.379,5.032 179.124,4.649 179.124,3.884C179.124,3.118 179.379,2.735 179.888,2.735C182.02,2.735 184.551,2.819 187.48,2.986C190.281,3.153 192.653,3.236 194.595,3.236C196.536,3.236 198.924,3.153 201.757,2.986C204.718,2.819 207.264,2.735 209.397,2.735C216.495,2.735 221.986,4.034 225.87,6.632C229.754,9.23 231.695,12.878 231.695,17.579C231.695,20.547 230.412,23.303 227.847,25.846C225.28,28.389 221.81,30.347 217.438,31.722L232.145,52.662C233.421,54.491 235.063,55.842 237.073,56.715C239.083,57.587 241.682,58.19 244.873,58.523C245.319,58.58 245.543,58.955 245.543,59.651Z" style="fill:rgb(36,19,72);fill-rule:nonzero;"/>
            <path d="M221.191,17.767C221.191,9.611 217.132,5.533 209.015,5.533C206.341,5.533 204.311,5.722 202.927,6.099C201.542,6.476 200.619,7.069 200.158,7.879C199.696,8.69 199.465,10.114 199.465,12.153L199.465,30.796C201.311,31.02 203.635,31.13 206.436,31.13C211.561,31.13 215.301,30.069 217.657,27.947C220.013,25.825 221.191,22.431 221.191,17.767ZM245.543,59.651C245.543,60.43 245.288,60.82 244.778,60.82C243.6,60.82 241.675,60.722 239.001,60.528C237.059,60.388 235.769,60.319 235.134,60.319C234.21,60.319 232.762,60.402 230.788,60.569C228.814,60.736 227.366,60.82 226.443,60.82L211.975,40.22C209.938,37.369 208.29,35.538 207.033,34.727C205.775,33.917 203.253,33.511 199.465,33.511L199.465,51.466C199.465,53.387 199.744,54.744 200.301,55.538C200.857,56.331 201.844,56.958 203.261,57.417C204.677,57.876 206.706,58.245 209.349,58.523C209.89,58.58 210.161,58.955 210.161,59.651C210.161,60.43 209.906,60.82 209.397,60.82C207.264,60.82 204.718,60.736 201.757,60.569C198.924,60.402 196.536,60.319 194.595,60.319C192.653,60.319 190.281,60.402 187.48,60.569C184.551,60.736 182.02,60.82 179.888,60.82C179.379,60.82 179.124,60.43 179.124,59.651C179.124,58.955 179.379,58.58 179.888,58.523C182.53,58.245 184.551,57.876 185.953,57.416C187.353,56.957 188.331,56.337 188.889,55.557C189.445,54.776 189.724,53.411 189.724,51.461L189.724,12.136C189.724,10.214 189.462,8.856 188.936,8.062C188.411,7.268 187.448,6.634 186.048,6.16C184.647,5.687 182.594,5.311 179.888,5.032C179.379,5.032 179.124,4.649 179.124,3.884C179.124,3.118 179.379,2.735 179.888,2.735C182.02,2.735 184.551,2.819 187.48,2.986C190.281,3.153 192.653,3.236 194.595,3.236C196.536,3.236 198.924,3.153 201.757,2.986C204.718,2.819 207.264,2.735 209.397,2.735C216.495,2.735 221.986,4.034 225.87,6.632C229.754,9.23 231.695,12.878 231.695,17.579C231.695,20.547 230.412,23.303 227.847,25.846C225.28,28.389 221.81,30.347 217.438,31.722L232.145,52.662C233.421,54.491 235.063,55.842 237.073,56.715C239.083,57.587 241.682,58.19 244.873,58.523C245.319,58.58 245.543,58.955 245.543,59.651Z" style="fill:none;stroke:rgb(34,31,31);stroke-opacity:0;stroke-width:1px;"/>
            <path d="M293.291,17.767C293.291,9.611 289.232,5.533 281.115,5.533C278.441,5.533 276.412,5.722 275.027,6.099C273.642,6.476 272.719,7.069 272.258,7.879C271.795,8.69 271.564,10.114 271.564,12.153L271.564,30.796C273.41,31.02 275.734,31.13 278.537,31.13C283.66,31.13 287.4,30.069 289.758,27.947C292.113,25.825 293.291,22.431 293.291,17.767ZM317.642,59.651C317.642,60.43 317.387,60.82 316.879,60.82C315.699,60.82 313.775,60.722 311.101,60.528C309.158,60.388 307.869,60.319 307.232,60.319C306.308,60.319 304.861,60.402 302.889,60.569C300.914,60.736 299.465,60.82 298.543,60.82L284.074,40.22C282.037,37.369 280.391,35.538 279.133,34.727C277.875,33.917 275.353,33.511 271.564,33.511L271.564,51.466C271.564,53.387 271.844,54.744 272.4,55.538C272.957,56.331 273.943,56.958 275.361,57.417C276.777,57.876 278.807,58.245 281.449,58.523C281.99,58.58 282.26,58.955 282.26,59.651C282.26,60.43 282.006,60.82 281.496,60.82C279.363,60.82 276.816,60.736 273.857,60.569C271.023,60.402 268.637,60.319 266.695,60.319C264.752,60.319 262.381,60.402 259.579,60.569C256.65,60.736 254.121,60.82 251.988,60.82C251.478,60.82 251.224,60.43 251.224,59.651C251.224,58.955 251.478,58.58 251.988,58.523C254.629,58.245 256.65,57.876 258.053,57.416C259.453,56.957 260.432,56.337 260.988,55.557C261.545,54.776 261.824,53.411 261.824,51.461L261.824,12.136C261.824,10.214 261.562,8.856 261.036,8.062C260.512,7.268 259.549,6.634 258.148,6.16C256.746,5.687 254.693,5.311 251.988,5.032C251.478,5.032 251.224,4.649 251.224,3.884C251.224,3.118 251.478,2.735 251.988,2.735C254.121,2.735 256.65,2.819 259.579,2.986C262.381,3.153 264.752,3.236 266.695,3.236C268.637,3.236 271.023,3.153 273.857,2.986C276.816,2.819 279.363,2.735 281.496,2.735C288.594,2.735 294.086,4.034 297.971,6.632C301.853,9.23 303.795,12.878 303.795,17.579C303.795,20.547 302.512,23.303 299.945,25.846C297.379,28.389 293.91,30.347 289.537,31.722L304.244,52.662C305.521,54.491 307.162,55.842 309.172,56.715C311.183,57.587 313.781,58.19 316.973,58.523C317.418,58.58 317.642,58.955 317.642,59.651Z" style="fill:rgb(36,19,72);fill-rule:nonzero;"/>
            <path d="M293.291,17.767C293.291,9.611 289.232,5.533 281.115,5.533C278.441,5.533 276.412,5.722 275.027,6.099C273.642,6.476 272.719,7.069 272.258,7.879C271.795,8.69 271.564,10.114 271.564,12.153L271.564,30.796C273.41,31.02 275.734,31.13 278.537,31.13C283.66,31.13 287.4,30.069 289.758,27.947C292.113,25.825 293.291,22.431 293.291,17.767ZM317.642,59.651C317.642,60.43 317.387,60.82 316.879,60.82C315.699,60.82 313.775,60.722 311.101,60.528C309.158,60.388 307.869,60.319 307.232,60.319C306.308,60.319 304.861,60.402 302.889,60.569C300.914,60.736 299.465,60.82 298.543,60.82L284.074,40.22C282.037,37.369 280.391,35.538 279.133,34.727C277.875,33.917 275.353,33.511 271.564,33.511L271.564,51.466C271.564,53.387 271.844,54.744 272.4,55.538C272.957,56.331 273.943,56.958 275.361,57.417C276.777,57.876 278.807,58.245 281.449,58.523C281.99,58.58 282.26,58.955 282.26,59.651C282.26,60.43 282.006,60.82 281.496,60.82C279.363,60.82 276.816,60.736 273.857,60.569C271.023,60.402 268.637,60.319 266.695,60.319C264.752,60.319 262.381,60.402 259.579,60.569C256.65,60.736 254.121,60.82 251.988,60.82C251.478,60.82 251.224,60.43 251.224,59.651C251.224,58.955 251.478,58.58 251.988,58.523C254.629,58.245 256.65,57.876 258.053,57.416C259.453,56.957 260.432,56.337 260.988,55.557C261.545,54.776 261.824,53.411 261.824,51.461L261.824,12.136C261.824,10.214 261.562,8.856 261.036,8.062C260.512,7.268 259.549,6.634 258.148,6.16C256.746,5.687 254.693,5.311 251.988,5.032C251.478,5.032 251.224,4.649 251.224,3.884C251.224,3.118 251.478,2.735 251.988,2.735C254.121,2.735 256.65,2.819 259.579,2.986C262.381,3.153 264.752,3.236 266.695,3.236C268.637,3.236 271.023,3.153 273.857,2.986C276.816,2.819 279.363,2.735 281.496,2.735C288.594,2.735 294.086,4.034 297.971,6.632C301.853,9.23 303.795,12.878 303.795,17.579C303.795,20.547 302.512,23.303 299.945,25.846C297.379,28.389 293.91,30.347 289.537,31.722L304.244,52.662C305.521,54.491 307.162,55.842 309.172,56.715C311.183,57.587 313.781,58.19 316.973,58.523C317.418,58.58 317.642,58.955 317.642,59.651Z" style="fill:none;stroke:rgb(34,31,31);stroke-opacity:0;stroke-width:1px;"/>
            <path d="M357.13,59.651C357.13,60.43 356.875,60.82 356.366,60.82C354.233,60.82 351.702,60.736 348.774,60.569C345.973,60.402 343.6,60.319 341.659,60.319C339.718,60.319 337.346,60.402 334.545,60.569C331.585,60.736 329.021,60.82 326.857,60.82C326.348,60.82 326.094,60.43 326.094,59.651C326.094,58.955 326.348,58.58 326.857,58.523C330.709,58.133 333.327,57.507 334.712,56.643C336.097,55.779 336.789,54.052 336.789,51.461L336.789,12.136C336.789,10.187 336.51,8.814 335.953,8.02C335.396,7.226 334.417,6.599 333.016,6.139C331.616,5.68 329.562,5.311 326.857,5.032C326.348,5.032 326.094,4.649 326.094,3.884C326.094,3.118 326.348,2.735 326.857,2.735C329.021,2.735 331.585,2.819 334.545,2.986C337.346,3.153 339.718,3.236 341.659,3.236C343.6,3.236 345.973,3.153 348.774,2.986C351.702,2.819 354.233,2.735 356.366,2.735C356.875,2.735 357.13,3.118 357.13,3.884C357.13,4.649 356.875,5.032 356.366,5.032C353.692,5.311 351.654,5.68 350.254,6.139C348.853,6.599 347.883,7.219 347.342,8C346.8,8.78 346.53,10.158 346.53,12.136L346.53,51.461C346.53,53.383 346.8,54.742 347.342,55.536C347.883,56.33 348.846,56.957 350.23,57.416C351.615,57.876 353.644,58.245 356.318,58.523C356.859,58.58 357.13,58.955 357.13,59.651Z" style="fill:rgb(36,19,72);fill-rule:nonzero;"/>
            <path d="M357.13,59.651C357.13,60.43 356.875,60.82 356.366,60.82C354.233,60.82 351.702,60.736 348.774,60.569C345.973,60.402 343.6,60.319 341.659,60.319C339.718,60.319 337.346,60.402 334.545,60.569C331.585,60.736 329.021,60.82 326.857,60.82C326.348,60.82 326.094,60.43 326.094,59.651C326.094,58.955 326.348,58.58 326.857,58.523C330.709,58.133 333.327,57.507 334.712,56.643C336.097,55.779 336.789,54.052 336.789,51.461L336.789,12.136C336.789,10.187 336.51,8.814 335.953,8.02C335.396,7.226 334.417,6.599 333.016,6.139C331.616,5.68 329.562,5.311 326.857,5.032C326.348,5.032 326.094,4.649 326.094,3.884C326.094,3.118 326.348,2.735 326.857,2.735C329.021,2.735 331.585,2.819 334.545,2.986C337.346,3.153 339.718,3.236 341.659,3.236C343.6,3.236 345.973,3.153 348.774,2.986C351.702,2.819 354.233,2.735 356.366,2.735C356.875,2.735 357.13,3.118 357.13,3.884C357.13,4.649 356.875,5.032 356.366,5.032C353.692,5.311 351.654,5.68 350.254,6.139C348.853,6.599 347.883,7.219 347.342,8C346.8,8.78 346.53,10.158 346.53,12.136L346.53,51.461C346.53,53.383 346.8,54.742 347.342,55.536C347.883,56.33 348.846,56.957 350.23,57.416C351.615,57.876 353.644,58.245 356.318,58.523C356.859,58.58 357.13,58.955 357.13,59.651Z" style="fill:none;stroke:rgb(34,31,31);stroke-opacity:0;stroke-width:1px;"/>
            <path d="M409.938,44.033C409.938,49.573 408.057,53.979 404.297,57.25C400.536,60.521 395.453,62.156 389.047,62.156C386.211,62.156 382.817,61.71 378.866,60.82C375.264,59.985 372.316,59.567 370.021,59.567C369.83,54.835 369.447,50.103 368.874,45.37C368.874,44.925 369.351,44.702 370.307,44.702C370.975,44.702 371.389,44.925 371.548,45.37C373.269,50.547 375.469,54.195 378.147,56.31C380.825,58.426 384.581,59.484 389.416,59.484C393.264,59.484 396.246,58.51 398.361,56.561C400.476,54.612 401.534,51.884 401.534,48.376C401.534,46.121 400.61,44.027 398.765,42.092C396.918,40.157 392.987,37.659 386.971,34.596C380.063,31.117 375.543,28.166 373.41,25.744C371.277,23.322 370.211,20.635 370.211,17.685C370.211,13.147 372.132,9.312 375.973,6.18C379.813,3.048 384.682,1.482 390.579,1.482C392.809,1.482 395.376,1.748 398.276,2.276C400.985,2.75 403.328,2.986 405.305,2.986C405.686,7.886 406.196,12.201 406.834,15.931C406.834,16.376 406.42,16.599 405.593,16.599C404.701,16.599 404.208,16.376 404.112,15.931C403.059,11.755 401.466,8.749 399.329,6.911C397.192,5.074 394.237,4.155 390.464,4.155C386.882,4.155 384.035,5.074 381.925,6.911C379.813,8.749 378.758,11.227 378.758,14.344C378.758,16.321 379.643,18.207 381.417,20.002C383.188,21.797 387.027,24.199 392.935,27.205C399.928,30.769 404.51,33.748 406.681,36.141C408.851,38.536 409.938,41.167 409.938,44.033Z" style="fill:rgb(36,19,72);fill-rule:nonzero;"/>
            <path d="M409.938,44.033C409.938,49.573 408.057,53.979 404.297,57.25C400.536,60.521 395.453,62.156 389.047,62.156C386.211,62.156 382.817,61.71 378.866,60.82C375.264,59.985 372.316,59.567 370.021,59.567C369.83,54.835 369.447,50.103 368.874,45.37C368.874,44.925 369.351,44.702 370.307,44.702C370.975,44.702 371.389,44.925 371.548,45.37C373.269,50.547 375.469,54.195 378.147,56.31C380.825,58.426 384.581,59.484 389.416,59.484C393.264,59.484 396.246,58.51 398.361,56.561C400.476,54.612 401.534,51.884 401.534,48.376C401.534,46.121 400.61,44.027 398.765,42.092C396.918,40.157 392.987,37.659 386.971,34.596C380.063,31.117 375.543,28.166 373.41,25.744C371.277,23.322 370.211,20.635 370.211,17.685C370.211,13.147 372.132,9.312 375.973,6.18C379.813,3.048 384.682,1.482 390.579,1.482C392.809,1.482 395.376,1.748 398.276,2.276C400.985,2.75 403.328,2.986 405.305,2.986C405.686,7.886 406.196,12.201 406.834,15.931C406.834,16.376 406.42,16.599 405.593,16.599C404.701,16.599 404.208,16.376 404.112,15.931C403.059,11.755 401.466,8.749 399.329,6.911C397.192,5.074 394.237,4.155 390.464,4.155C386.882,4.155 384.035,5.074 381.925,6.911C379.813,8.749 378.758,11.227 378.758,14.344C378.758,16.321 379.643,18.207 381.417,20.002C383.188,21.797 387.027,24.199 392.935,27.205C399.928,30.769 404.51,33.748 406.681,36.141C408.851,38.536 409.938,41.167 409.938,44.033Z" style="fill:none;stroke:rgb(34,31,31);stroke-opacity:0;stroke-width:1px;"/>
            <path d="M253.582,92.244C253.297,93.496 253.02,94.826 252.752,96.235C252.301,96.235 251.482,96.341 250.297,96.552C248.778,96.826 247.655,96.963 246.929,96.963C245.126,96.963 243.544,96.611 242.184,95.906C240.824,95.202 239.765,94.194 239.006,92.884C238.247,91.573 237.867,90.115 237.867,88.511C237.867,86.93 238.268,85.473 239.071,84.139C239.874,82.804 240.978,81.766 242.386,81.022C243.793,80.278 245.379,79.907 247.141,79.907C247.885,79.907 248.881,79.985 250.131,80.142C251.103,80.267 251.81,80.329 252.254,80.329C252.356,81.425 252.538,82.755 252.799,84.32C252.799,84.446 252.673,84.508 252.42,84.508C252.262,84.508 252.166,84.446 252.135,84.32C251.85,83.256 251.237,82.38 250.297,81.691C249.355,81.002 248.272,80.658 247.047,80.658C245.188,80.658 243.629,81.417 242.368,82.935C241.107,84.454 240.476,86.312 240.476,88.511C240.476,90.647 241.101,92.465 242.35,93.963C243.599,95.462 245.126,96.211 246.929,96.211C249.751,96.211 251.751,94.889 252.93,92.244C252.984,92.119 253.092,92.056 253.25,92.056C253.471,92.056 253.582,92.119 253.582,92.244Z" style="fill:rgb(87,88,90);fill-rule:nonzero;stroke:rgb(87,88,90);stroke-width:0.24px;stroke-linejoin:round;"/>
            <path d="M253.582,92.244C253.297,93.496 253.02,94.826 252.752,96.235C252.301,96.235 251.482,96.341 250.297,96.552C248.778,96.826 247.655,96.963 246.929,96.963C245.126,96.963 243.544,96.611 242.184,95.906C240.824,95.202 239.765,94.194 239.006,92.884C238.247,91.573 237.867,90.115 237.867,88.511C237.867,86.93 238.268,85.473 239.071,84.139C239.874,82.804 240.978,81.766 242.386,81.022C243.793,80.278 245.379,79.907 247.141,79.907C247.885,79.907 248.881,79.985 250.131,80.142C251.103,80.267 251.81,80.329 252.254,80.329C252.356,81.425 252.538,82.755 252.799,84.32C252.799,84.446 252.673,84.508 252.42,84.508C252.262,84.508 252.166,84.446 252.135,84.32C251.85,83.256 251.237,82.38 250.297,81.691C249.355,81.002 248.272,80.658 247.047,80.658C245.188,80.658 243.629,81.417 242.368,82.935C241.107,84.454 240.476,86.312 240.476,88.511C240.476,90.647 241.101,92.465 242.35,93.963C243.599,95.462 245.126,96.211 246.929,96.211C249.751,96.211 251.751,94.889 252.93,92.244C252.984,92.119 253.092,92.056 253.25,92.056C253.471,92.056 253.582,92.119 253.582,92.244Z" style="fill:none;stroke:rgb(87,88,90);stroke-width:0.5px;"/>
            <path d="M270.73,88.511C270.73,86.203 270.167,84.316 269.041,82.853C267.914,81.39 266.433,80.658 264.599,80.658C262.757,80.658 261.276,81.39 260.157,82.853C259.039,84.316 258.479,86.203 258.479,88.511C258.479,90.804 259.035,92.661 260.144,94.081C261.256,95.501 262.741,96.211 264.599,96.211C266.449,96.211 267.933,95.501 269.053,94.081C270.171,92.661 270.73,90.804 270.73,88.511ZM273.34,88.511C273.34,90.992 272.533,93.021 270.921,94.598C269.307,96.174 267.2,96.963 264.599,96.963C261.997,96.963 259.892,96.174 258.284,94.598C256.674,93.021 255.87,90.992 255.87,88.511C255.87,86.022 256.681,83.966 258.302,82.342C259.923,80.719 262.021,79.907 264.599,79.907C267.184,79.907 269.288,80.719 270.909,82.342C272.529,83.966 273.34,86.022 273.34,88.511Z" style="fill:rgb(87,88,90);fill-rule:nonzero;stroke:rgb(87,88,90);stroke-width:0.24px;stroke-linejoin:round;"/>
            <path d="M270.73,88.511C270.73,86.203 270.167,84.316 269.041,82.853C267.914,81.39 266.433,80.658 264.599,80.658C262.757,80.658 261.276,81.39 260.157,82.853C259.039,84.316 258.479,86.203 258.479,88.511C258.479,90.804 259.035,92.661 260.144,94.081C261.256,95.501 262.741,96.211 264.599,96.211C266.449,96.211 267.933,95.501 269.053,94.081C270.171,92.661 270.73,90.804 270.73,88.511ZM273.34,88.511C273.34,90.992 272.533,93.021 270.921,94.598C269.307,96.174 267.2,96.963 264.599,96.963C261.997,96.963 259.892,96.174 258.284,94.598C256.674,93.021 255.87,90.992 255.87,88.511C255.87,86.022 256.681,83.966 258.302,82.342C259.923,80.719 262.021,79.907 264.599,79.907C267.184,79.907 269.288,80.719 270.909,82.342C272.529,83.966 273.34,86.022 273.34,88.511Z" style="fill:none;stroke:rgb(87,88,90);stroke-width:0.5px;"/>
            <path d="M295.352,80.587C295.352,80.783 295.289,80.889 295.162,80.904C294.174,81.014 293.496,81.194 293.129,81.445C292.761,81.696 292.569,82.178 292.554,82.891L292.292,96.728C292.292,96.884 292.197,96.963 292.008,96.963C291.913,96.963 291.786,96.9 291.628,96.775L279.4,83.1L279.234,93.958L279.223,94.134C279.223,94.729 279.412,95.149 279.792,95.396C280.172,95.642 280.855,95.824 281.844,95.941C281.97,95.958 282.033,96.063 282.033,96.258C282.033,96.478 281.97,96.587 281.844,96.587C281.432,96.587 280.867,96.564 280.147,96.517C279.475,96.47 278.958,96.446 278.594,96.446C278.198,96.446 277.665,96.47 276.993,96.517C276.345,96.564 275.843,96.587 275.487,96.587C275.36,96.587 275.297,96.478 275.297,96.258C275.297,96.063 275.368,95.958 275.511,95.941C276.491,95.824 277.163,95.642 277.526,95.396C277.891,95.148 278.084,94.669 278.107,93.956L278.523,82.901L278.523,82.796C278.523,82.162 278.337,81.719 277.966,81.468C277.594,81.218 276.902,81.03 275.89,80.904C275.779,80.904 275.724,80.797 275.724,80.582C275.724,80.367 275.787,80.259 275.914,80.259C276.19,80.259 276.578,80.282 277.076,80.329C277.518,80.376 277.85,80.4 278.072,80.4C278.349,80.4 278.681,80.376 279.068,80.329C279.464,80.282 279.804,80.259 280.089,80.259L291.51,92.901L291.51,82.892C291.51,82.226 291.317,81.757 290.934,81.487C290.551,81.216 289.841,81.022 288.806,80.904C288.679,80.889 288.616,80.783 288.616,80.587C288.616,80.369 288.679,80.259 288.806,80.259C289.232,80.259 289.802,80.282 290.514,80.329C291.178,80.376 291.691,80.4 292.055,80.4C292.45,80.4 292.984,80.376 293.656,80.329C294.305,80.282 294.807,80.259 295.162,80.259C295.289,80.259 295.352,80.369 295.352,80.587Z" style="fill:rgb(87,88,90);fill-rule:nonzero;stroke:rgb(87,88,90);stroke-width:0.24px;stroke-linejoin:round;"/>
            <path d="M295.352,80.587C295.352,80.783 295.289,80.889 295.162,80.904C294.174,81.014 293.496,81.194 293.129,81.445C292.761,81.696 292.569,82.178 292.554,82.891L292.292,96.728C292.292,96.884 292.197,96.963 292.008,96.963C291.913,96.963 291.786,96.9 291.628,96.775L279.4,83.1L279.234,93.958L279.223,94.134C279.223,94.729 279.412,95.149 279.792,95.396C280.172,95.642 280.855,95.824 281.844,95.941C281.97,95.958 282.033,96.063 282.033,96.258C282.033,96.478 281.97,96.587 281.844,96.587C281.432,96.587 280.867,96.564 280.147,96.517C279.475,96.47 278.958,96.446 278.594,96.446C278.198,96.446 277.665,96.47 276.993,96.517C276.345,96.564 275.843,96.587 275.487,96.587C275.36,96.587 275.297,96.478 275.297,96.258C275.297,96.063 275.368,95.958 275.511,95.941C276.491,95.824 277.163,95.642 277.526,95.396C277.891,95.148 278.084,94.669 278.107,93.956L278.523,82.901L278.523,82.796C278.523,82.162 278.337,81.719 277.966,81.468C277.594,81.218 276.902,81.03 275.89,80.904C275.779,80.904 275.724,80.797 275.724,80.582C275.724,80.367 275.787,80.259 275.914,80.259C276.19,80.259 276.578,80.282 277.076,80.329C277.518,80.376 277.85,80.4 278.072,80.4C278.349,80.4 278.681,80.376 279.068,80.329C279.464,80.282 279.804,80.259 280.089,80.259L291.51,92.901L291.51,82.892C291.51,82.226 291.317,81.757 290.934,81.487C290.551,81.216 289.841,81.022 288.806,80.904C288.679,80.889 288.616,80.783 288.616,80.587C288.616,80.369 288.679,80.259 288.806,80.259C289.232,80.259 289.802,80.282 290.514,80.329C291.178,80.376 291.691,80.4 292.055,80.4C292.45,80.4 292.984,80.376 293.656,80.329C294.305,80.282 294.807,80.259 295.162,80.259C295.289,80.259 295.352,80.369 295.352,80.587Z" style="fill:none;stroke:rgb(87,88,90);stroke-width:0.5px;"/>
            <path d="M307.176,91.868C307.176,93.426 306.709,94.664 305.775,95.584C304.841,96.503 303.578,96.963 301.987,96.963C301.283,96.963 300.439,96.837 299.458,96.587C298.563,96.353 297.831,96.235 297.262,96.235C297.214,94.905 297.119,93.574 296.976,92.244C296.976,92.119 297.096,92.056 297.332,92.056C297.498,92.056 297.601,92.119 297.641,92.244C298.068,93.7 298.614,94.725 299.28,95.319C299.945,95.914 300.878,96.211 302.079,96.211C303.034,96.211 303.775,95.938 304.301,95.39C304.826,94.842 305.089,94.075 305.089,93.089C305.089,92.455 304.859,91.866 304.401,91.322C303.942,90.779 302.966,90.076 301.472,89.215C299.756,88.237 298.633,87.408 298.103,86.727C297.573,86.046 297.308,85.291 297.308,84.461C297.308,83.186 297.786,82.108 298.739,81.227C299.693,80.347 300.903,79.907 302.368,79.907C302.922,79.907 303.559,79.981 304.279,80.13C304.952,80.263 305.534,80.329 306.025,80.329C306.12,81.707 306.247,82.919 306.405,83.968C306.405,84.094 306.303,84.156 306.097,84.156C305.875,84.156 305.753,84.094 305.729,83.968C305.468,82.794 305.072,81.949 304.541,81.433C304.011,80.916 303.276,80.658 302.339,80.658C301.449,80.658 300.742,80.916 300.218,81.433C299.693,81.949 299.432,82.646 299.432,83.522C299.432,84.078 299.651,84.608 300.092,85.113C300.532,85.618 301.485,86.293 302.953,87.138C304.689,88.14 305.828,88.977 306.367,89.65C306.906,90.323 307.176,91.063 307.176,91.868Z" style="fill:rgb(87,88,90);fill-rule:nonzero;stroke:rgb(87,88,90);stroke-width:0.24px;stroke-linejoin:round;"/>
            <path d="M307.176,91.868C307.176,93.426 306.709,94.664 305.775,95.584C304.841,96.503 303.578,96.963 301.987,96.963C301.283,96.963 300.439,96.837 299.458,96.587C298.563,96.353 297.831,96.235 297.262,96.235C297.214,94.905 297.119,93.574 296.976,92.244C296.976,92.119 297.096,92.056 297.332,92.056C297.498,92.056 297.601,92.119 297.641,92.244C298.068,93.7 298.614,94.725 299.28,95.319C299.945,95.914 300.878,96.211 302.079,96.211C303.034,96.211 303.775,95.938 304.301,95.39C304.826,94.842 305.089,94.075 305.089,93.089C305.089,92.455 304.859,91.866 304.401,91.322C303.942,90.779 302.966,90.076 301.472,89.215C299.756,88.237 298.633,87.408 298.103,86.727C297.573,86.046 297.308,85.291 297.308,84.461C297.308,83.186 297.786,82.108 298.739,81.227C299.693,80.347 300.903,79.907 302.368,79.907C302.922,79.907 303.559,79.981 304.279,80.13C304.952,80.263 305.534,80.329 306.025,80.329C306.12,81.707 306.247,82.919 306.405,83.968C306.405,84.094 306.303,84.156 306.097,84.156C305.875,84.156 305.753,84.094 305.729,83.968C305.468,82.794 305.072,81.949 304.541,81.433C304.011,80.916 303.276,80.658 302.339,80.658C301.449,80.658 300.742,80.916 300.218,81.433C299.693,81.949 299.432,82.646 299.432,83.522C299.432,84.078 299.651,84.608 300.092,85.113C300.532,85.618 301.485,86.293 302.953,87.138C304.689,88.14 305.828,88.977 306.367,89.65C306.906,90.323 307.176,91.063 307.176,91.868Z" style="fill:none;stroke:rgb(87,88,90);stroke-width:0.5px;"/>
            <path d="M326.863,80.582C326.863,80.797 326.8,80.904 326.674,80.904C325.678,81.03 325.009,81.212 324.669,81.451C324.329,81.689 324.159,82.173 324.159,82.901L324.159,90.267C324.159,92.358 323.649,93.997 322.631,95.183C321.611,96.37 320.174,96.963 318.318,96.963C316.201,96.963 314.55,96.397 313.365,95.265C312.181,94.134 311.588,92.593 311.588,90.643L311.588,82.901C311.588,82.361 311.522,81.98 311.391,81.756C311.262,81.533 311.022,81.355 310.675,81.222C310.326,81.088 309.816,80.983 309.144,80.904C309.018,80.904 308.955,80.797 308.955,80.582C308.955,80.367 309.018,80.259 309.144,80.259C309.674,80.259 310.303,80.282 311.03,80.329C311.725,80.376 312.315,80.4 312.798,80.4C313.279,80.4 313.873,80.376 314.576,80.329C315.311,80.282 315.944,80.259 316.474,80.259C316.6,80.259 316.664,80.367 316.664,80.582C316.664,80.797 316.6,80.904 316.474,80.904C315.802,80.983 315.292,81.087 314.944,81.216C314.596,81.345 314.352,81.522 314.215,81.745C314.076,81.968 314.007,82.354 314.007,82.902L314.007,90.314C314.007,92.241 314.375,93.655 315.11,94.555C315.846,95.456 317.043,95.906 318.704,95.906C321.827,95.906 323.389,93.948 323.389,90.032L323.389,82.902C323.389,82.173 323.212,81.686 322.86,81.439C322.509,81.192 321.847,81.014 320.874,80.904C320.747,80.904 320.684,80.797 320.684,80.582C320.684,80.367 320.747,80.259 320.873,80.259C321.236,80.259 321.713,80.282 322.304,80.329C322.91,80.376 323.402,80.4 323.781,80.4C324.159,80.4 324.634,80.376 325.203,80.329C325.788,80.282 326.278,80.259 326.674,80.259C326.8,80.259 326.863,80.367 326.863,80.582Z" style="fill:rgb(87,88,90);fill-rule:nonzero;stroke:rgb(87,88,90);stroke-width:0.24px;stroke-linejoin:round;"/>
            <path d="M326.863,80.582C326.863,80.797 326.8,80.904 326.674,80.904C325.678,81.03 325.009,81.212 324.669,81.451C324.329,81.689 324.159,82.173 324.159,82.901L324.159,90.267C324.159,92.358 323.649,93.997 322.631,95.183C321.611,96.37 320.174,96.963 318.318,96.963C316.201,96.963 314.55,96.397 313.365,95.265C312.181,94.134 311.588,92.593 311.588,90.643L311.588,82.901C311.588,82.361 311.522,81.98 311.391,81.756C311.262,81.533 311.022,81.355 310.675,81.222C310.326,81.088 309.816,80.983 309.144,80.904C309.018,80.904 308.955,80.797 308.955,80.582C308.955,80.367 309.018,80.259 309.144,80.259C309.674,80.259 310.303,80.282 311.03,80.329C311.725,80.376 312.315,80.4 312.798,80.4C313.279,80.4 313.873,80.376 314.576,80.329C315.311,80.282 315.944,80.259 316.474,80.259C316.6,80.259 316.664,80.367 316.664,80.582C316.664,80.797 316.6,80.904 316.474,80.904C315.802,80.983 315.292,81.087 314.944,81.216C314.596,81.345 314.352,81.522 314.215,81.745C314.076,81.968 314.007,82.354 314.007,82.902L314.007,90.314C314.007,92.241 314.375,93.655 315.11,94.555C315.846,95.456 317.043,95.906 318.704,95.906C321.827,95.906 323.389,93.948 323.389,90.032L323.389,82.902C323.389,82.173 323.212,81.686 322.86,81.439C322.509,81.192 321.847,81.014 320.874,80.904C320.747,80.904 320.684,80.797 320.684,80.582C320.684,80.367 320.747,80.259 320.873,80.259C321.236,80.259 321.713,80.282 322.304,80.329C322.91,80.376 323.402,80.4 323.781,80.4C324.159,80.4 324.634,80.376 325.203,80.329C325.788,80.282 326.278,80.259 326.674,80.259C326.8,80.259 326.863,80.367 326.863,80.582Z" style="fill:none;stroke:rgb(87,88,90);stroke-width:0.5px;"/>
            <path d="M342.316,92.268C341.944,93.645 341.652,95.085 341.438,96.587C338.41,96.493 336.256,96.446 334.974,96.446C333.71,96.446 331.583,96.493 328.595,96.587C328.468,96.587 328.404,96.478 328.404,96.258C328.404,96.063 328.468,95.958 328.595,95.941C329.551,95.832 330.201,95.656 330.545,95.413C330.89,95.17 331.061,94.685 331.061,93.956L331.061,82.901C331.061,82.354 330.992,81.968 330.853,81.745C330.715,81.522 330.472,81.345 330.124,81.216C329.776,81.086 329.266,80.983 328.595,80.904C328.468,80.904 328.404,80.797 328.404,80.582C328.404,80.367 328.468,80.259 328.595,80.259C329.124,80.259 329.757,80.282 330.492,80.329C331.195,80.376 331.789,80.4 332.27,80.4C332.753,80.4 333.342,80.376 334.038,80.329C334.766,80.282 335.393,80.259 335.924,80.259C336.05,80.259 336.113,80.367 336.113,80.582C336.113,80.797 336.05,80.904 335.924,80.904C335.26,80.983 334.754,81.087 334.405,81.216C334.057,81.345 333.816,81.519 333.682,81.739C333.548,81.958 333.48,82.346 333.48,82.902L333.48,94.309C333.48,95.233 333.939,95.695 334.856,95.695L337.205,95.695C338.177,95.695 338.999,95.439 339.672,94.926C340.344,94.414 341.008,93.457 341.664,92.056C341.695,91.994 341.77,91.962 341.89,91.962C341.992,91.962 342.089,91.994 342.18,92.056C342.27,92.119 342.316,92.189 342.316,92.268Z" style="fill:rgb(87,88,90);fill-rule:nonzero;stroke:rgb(87,88,90);stroke-width:0.24px;stroke-linejoin:round;"/>
            <path d="M342.316,92.268C341.944,93.645 341.652,95.085 341.438,96.587C338.41,96.493 336.256,96.446 334.974,96.446C333.71,96.446 331.583,96.493 328.595,96.587C328.468,96.587 328.404,96.478 328.404,96.258C328.404,96.063 328.468,95.958 328.595,95.941C329.551,95.832 330.201,95.656 330.545,95.413C330.89,95.17 331.061,94.685 331.061,93.956L331.061,82.901C331.061,82.354 330.992,81.968 330.853,81.745C330.715,81.522 330.472,81.345 330.124,81.216C329.776,81.086 329.266,80.983 328.595,80.904C328.468,80.904 328.404,80.797 328.404,80.582C328.404,80.367 328.468,80.259 328.595,80.259C329.124,80.259 329.757,80.282 330.492,80.329C331.195,80.376 331.789,80.4 332.27,80.4C332.753,80.4 333.342,80.376 334.038,80.329C334.766,80.282 335.393,80.259 335.924,80.259C336.05,80.259 336.113,80.367 336.113,80.582C336.113,80.797 336.05,80.904 335.924,80.904C335.26,80.983 334.754,81.087 334.405,81.216C334.057,81.345 333.816,81.519 333.682,81.739C333.548,81.958 333.48,82.346 333.48,82.902L333.48,94.309C333.48,95.233 333.939,95.695 334.856,95.695L337.205,95.695C338.177,95.695 338.999,95.439 339.672,94.926C340.344,94.414 341.008,93.457 341.664,92.056C341.695,91.994 341.77,91.962 341.89,91.962C341.992,91.962 342.089,91.994 342.18,92.056C342.27,92.119 342.316,92.189 342.316,92.268Z" style="fill:none;stroke:rgb(87,88,90);stroke-width:0.5px;"/>
            <path d="M357.699,84.121C357.699,84.27 357.557,84.344 357.272,84.344C357.145,84.344 357.066,84.289 357.035,84.18C356.694,83.076 356.209,82.295 355.576,81.838C354.943,81.38 354.007,81.151 352.766,81.151L351.65,81.151C351.263,81.151 350.998,81.214 350.855,81.339C350.714,81.464 350.642,81.699 350.642,82.043L350.642,93.958C350.642,94.498 350.712,94.879 350.849,95.102C350.988,95.325 351.233,95.501 351.585,95.63C351.936,95.76 352.441,95.863 353.098,95.941C353.224,95.958 353.287,96.063 353.287,96.258C353.287,96.478 353.224,96.587 353.098,96.587C352.567,96.587 351.935,96.564 351.2,96.517C350.502,96.47 349.919,96.446 349.45,96.446C348.966,96.446 348.371,96.47 347.666,96.517C346.931,96.564 346.298,96.587 345.767,96.587C345.641,96.587 345.578,96.478 345.578,96.258C345.578,96.063 345.641,95.958 345.767,95.941C346.724,95.832 347.375,95.656 347.719,95.413C348.062,95.171 348.234,94.686 348.234,93.958L348.234,82.043C348.234,81.699 348.164,81.464 348.021,81.339C347.879,81.214 347.61,81.151 347.215,81.151L346.29,81.151C345.175,81.151 344.163,81.431 343.254,81.99C342.345,82.55 341.751,83.276 341.474,84.168C341.434,84.285 341.348,84.344 341.214,84.344C340.945,84.344 340.81,84.258 340.81,84.085C341.253,82.904 341.672,81.566 342.067,80.071C343.143,80.29 345.604,80.4 349.45,80.4C353.398,80.4 355.911,80.29 356.987,80.071C357.098,81.088 357.335,82.439 357.699,84.121Z" style="fill:rgb(87,88,90);fill-rule:nonzero;stroke:rgb(87,88,90);stroke-width:0.24px;stroke-linejoin:round;"/>
            <path d="M357.699,84.121C357.699,84.27 357.557,84.344 357.272,84.344C357.145,84.344 357.066,84.289 357.035,84.18C356.694,83.076 356.209,82.295 355.576,81.838C354.943,81.38 354.007,81.151 352.766,81.151L351.65,81.151C351.263,81.151 350.998,81.214 350.855,81.339C350.714,81.464 350.642,81.699 350.642,82.043L350.642,93.958C350.642,94.498 350.712,94.879 350.849,95.102C350.988,95.325 351.233,95.501 351.585,95.63C351.936,95.76 352.441,95.863 353.098,95.941C353.224,95.958 353.287,96.063 353.287,96.258C353.287,96.478 353.224,96.587 353.098,96.587C352.567,96.587 351.935,96.564 351.2,96.517C350.502,96.47 349.919,96.446 349.45,96.446C348.966,96.446 348.371,96.47 347.666,96.517C346.931,96.564 346.298,96.587 345.767,96.587C345.641,96.587 345.578,96.478 345.578,96.258C345.578,96.063 345.641,95.958 345.767,95.941C346.724,95.832 347.375,95.656 347.719,95.413C348.062,95.171 348.234,94.686 348.234,93.958L348.234,82.043C348.234,81.699 348.164,81.464 348.021,81.339C347.879,81.214 347.61,81.151 347.215,81.151L346.29,81.151C345.175,81.151 344.163,81.431 343.254,81.99C342.345,82.55 341.751,83.276 341.474,84.168C341.434,84.285 341.348,84.344 341.214,84.344C340.945,84.344 340.81,84.258 340.81,84.085C341.253,82.904 341.672,81.566 342.067,80.071C343.143,80.29 345.604,80.4 349.45,80.4C353.398,80.4 355.911,80.29 356.987,80.071C357.098,81.088 357.335,82.439 357.699,84.121Z" style="fill:none;stroke:rgb(87,88,90);stroke-width:0.5px;"/>
            <path d="M367.376,96.258C367.376,96.478 367.313,96.587 367.186,96.587C366.657,96.587 366.028,96.564 365.301,96.517C364.605,96.47 364.016,96.446 363.534,96.446C363.052,96.446 362.462,96.47 361.766,96.517C361.031,96.564 360.394,96.587 359.857,96.587C359.73,96.587 359.668,96.478 359.668,96.258C359.668,96.063 359.73,95.958 359.857,95.941C360.813,95.832 361.464,95.656 361.808,95.413C362.152,95.17 362.324,94.685 362.324,93.956L362.324,82.901C362.324,82.354 362.255,81.968 362.116,81.745C361.978,81.522 361.735,81.345 361.387,81.216C361.039,81.086 360.529,80.983 359.857,80.904C359.73,80.904 359.668,80.797 359.668,80.582C359.668,80.367 359.73,80.259 359.857,80.259C360.394,80.259 361.031,80.282 361.766,80.329C362.462,80.376 363.052,80.4 363.534,80.4C364.016,80.4 364.605,80.376 365.301,80.329C366.028,80.282 366.657,80.259 367.186,80.259C367.313,80.259 367.376,80.367 367.376,80.582C367.376,80.797 367.313,80.904 367.186,80.904C366.522,80.983 366.016,81.086 365.669,81.216C365.32,81.345 365.079,81.519 364.945,81.739C364.81,81.958 364.743,82.346 364.743,82.901L364.743,93.956C364.743,94.497 364.81,94.878 364.945,95.102C365.079,95.325 365.318,95.501 365.663,95.63C366.007,95.759 366.511,95.863 367.175,95.941C367.309,95.958 367.376,96.063 367.376,96.258Z" style="fill:rgb(87,88,90);fill-rule:nonzero;stroke:rgb(87,88,90);stroke-width:0.24px;stroke-linejoin:round;"/>
            <path d="M367.376,96.258C367.376,96.478 367.313,96.587 367.186,96.587C366.657,96.587 366.028,96.564 365.301,96.517C364.605,96.47 364.016,96.446 363.534,96.446C363.052,96.446 362.462,96.47 361.766,96.517C361.031,96.564 360.394,96.587 359.857,96.587C359.73,96.587 359.668,96.478 359.668,96.258C359.668,96.063 359.73,95.958 359.857,95.941C360.813,95.832 361.464,95.656 361.808,95.413C362.152,95.17 362.324,94.685 362.324,93.956L362.324,82.901C362.324,82.354 362.255,81.968 362.116,81.745C361.978,81.522 361.735,81.345 361.387,81.216C361.039,81.086 360.529,80.983 359.857,80.904C359.73,80.904 359.668,80.797 359.668,80.582C359.668,80.367 359.73,80.259 359.857,80.259C360.394,80.259 361.031,80.282 361.766,80.329C362.462,80.376 363.052,80.4 363.534,80.4C364.016,80.4 364.605,80.376 365.301,80.329C366.028,80.282 366.657,80.259 367.186,80.259C367.313,80.259 367.376,80.367 367.376,80.582C367.376,80.797 367.313,80.904 367.186,80.904C366.522,80.983 366.016,81.086 365.669,81.216C365.32,81.345 365.079,81.519 364.945,81.739C364.81,81.958 364.743,82.346 364.743,82.901L364.743,93.956C364.743,94.497 364.81,94.878 364.945,95.102C365.079,95.325 365.318,95.501 365.663,95.63C366.007,95.759 366.511,95.863 367.175,95.941C367.309,95.958 367.376,96.063 367.376,96.258Z" style="fill:none;stroke:rgb(87,88,90);stroke-width:0.5px;"/>
            <path d="M389.708,80.587C389.708,80.783 389.645,80.889 389.518,80.904C388.53,81.014 387.852,81.194 387.485,81.445C387.116,81.696 386.925,82.178 386.909,82.891L386.649,96.728C386.649,96.884 386.554,96.963 386.364,96.963C386.268,96.963 386.141,96.9 385.983,96.775L373.757,83.1L373.591,93.958L373.579,94.134C373.579,94.729 373.768,95.149 374.148,95.396C374.528,95.642 375.212,95.824 376.2,95.941C376.326,95.958 376.39,96.063 376.39,96.258C376.39,96.478 376.326,96.587 376.2,96.587C375.789,96.587 375.224,96.564 374.504,96.517C373.832,96.47 373.314,96.446 372.95,96.446C372.555,96.446 372.021,96.47 371.349,96.517C370.701,96.564 370.199,96.587 369.844,96.587C369.717,96.587 369.653,96.478 369.653,96.258C369.653,96.063 369.724,95.958 369.867,95.941C370.848,95.824 371.519,95.642 371.883,95.396C372.247,95.148 372.44,94.669 372.464,93.956L372.88,82.901L372.88,82.796C372.88,82.162 372.693,81.719 372.322,81.468C371.95,81.218 371.259,81.03 370.246,80.904C370.136,80.904 370.08,80.797 370.08,80.582C370.08,80.367 370.143,80.259 370.27,80.259C370.547,80.259 370.934,80.282 371.432,80.329C371.875,80.376 372.207,80.4 372.429,80.4C372.705,80.4 373.037,80.376 373.425,80.329C373.82,80.282 374.16,80.259 374.445,80.259L385.866,92.901L385.866,82.892C385.866,82.226 385.675,81.757 385.29,81.487C384.907,81.216 384.198,81.022 383.161,80.904C383.034,80.889 382.972,80.783 382.972,80.587C382.972,80.369 383.034,80.259 383.161,80.259C383.589,80.259 384.157,80.282 384.87,80.329C385.534,80.376 386.048,80.4 386.411,80.4C386.806,80.4 387.341,80.376 388.013,80.329C388.661,80.282 389.163,80.259 389.518,80.259C389.645,80.259 389.708,80.369 389.708,80.587Z" style="fill:rgb(87,88,90);fill-rule:nonzero;stroke:rgb(87,88,90);stroke-width:0.24px;stroke-linejoin:round;"/>
            <path d="M389.708,80.587C389.708,80.783 389.645,80.889 389.518,80.904C388.53,81.014 387.852,81.194 387.485,81.445C387.116,81.696 386.925,82.178 386.909,82.891L386.649,96.728C386.649,96.884 386.554,96.963 386.364,96.963C386.268,96.963 386.141,96.9 385.983,96.775L373.757,83.1L373.591,93.958L373.579,94.134C373.579,94.729 373.768,95.149 374.148,95.396C374.528,95.642 375.212,95.824 376.2,95.941C376.326,95.958 376.39,96.063 376.39,96.258C376.39,96.478 376.326,96.587 376.2,96.587C375.789,96.587 375.224,96.564 374.504,96.517C373.832,96.47 373.314,96.446 372.95,96.446C372.555,96.446 372.021,96.47 371.349,96.517C370.701,96.564 370.199,96.587 369.844,96.587C369.717,96.587 369.653,96.478 369.653,96.258C369.653,96.063 369.724,95.958 369.867,95.941C370.848,95.824 371.519,95.642 371.883,95.396C372.247,95.148 372.44,94.669 372.464,93.956L372.88,82.901L372.88,82.796C372.88,82.162 372.693,81.719 372.322,81.468C371.95,81.218 371.259,81.03 370.246,80.904C370.136,80.904 370.08,80.797 370.08,80.582C370.08,80.367 370.143,80.259 370.27,80.259C370.547,80.259 370.934,80.282 371.432,80.329C371.875,80.376 372.207,80.4 372.429,80.4C372.705,80.4 373.037,80.376 373.425,80.329C373.82,80.282 374.16,80.259 374.445,80.259L385.866,92.901L385.866,82.892C385.866,82.226 385.675,81.757 385.29,81.487C384.907,81.216 384.198,81.022 383.161,80.904C383.034,80.889 382.972,80.783 382.972,80.587C382.972,80.369 383.034,80.259 383.161,80.259C383.589,80.259 384.157,80.282 384.87,80.329C385.534,80.376 386.048,80.4 386.411,80.4C386.806,80.4 387.341,80.376 388.013,80.329C388.661,80.282 389.163,80.259 389.518,80.259C389.645,80.259 389.708,80.369 389.708,80.587Z" style="fill:none;stroke:rgb(87,88,90);stroke-width:0.5px;"/>
            <path d="M409.514,89.38C409.514,89.575 409.451,89.681 409.325,89.697C408.373,89.806 407.725,89.982 407.383,90.225C407.04,90.467 406.869,90.953 406.869,91.681L406.869,93.065C406.869,94.271 406.956,95.101 407.13,95.554C406.078,95.969 404.942,96.308 403.724,96.569C402.506,96.832 401.43,96.963 400.496,96.963C398.691,96.963 397.108,96.611 395.748,95.906C394.387,95.202 393.326,94.194 392.567,92.884C391.807,91.573 391.428,90.115 391.428,88.511C391.428,86.915 391.839,85.449 392.662,84.115C393.485,82.781 394.62,81.746 396.068,81.01C397.516,80.274 399.158,79.907 400.994,79.907C401.706,79.907 402.664,80.032 403.866,80.282C404.927,80.501 405.738,80.611 406.3,80.611C406.402,81.707 406.584,83.037 406.846,84.602C406.846,84.728 406.719,84.79 406.466,84.79C406.3,84.79 406.201,84.728 406.17,84.602C405.473,81.973 403.621,80.658 400.614,80.658C398.754,80.658 397.192,81.417 395.931,82.935C394.668,84.454 394.037,86.312 394.037,88.511C394.037,90.647 394.661,92.465 395.911,93.963C397.16,95.462 398.685,96.211 400.488,96.211C403.138,96.211 404.462,95.561 404.462,94.259L404.462,91.155C404.462,90.724 404.252,90.416 403.833,90.231C403.414,90.047 402.41,89.877 400.82,89.72C400.694,89.72 400.631,89.605 400.631,89.374C400.631,89.159 400.694,89.051 400.82,89.051C401.35,89.051 402.133,89.071 403.169,89.11C404.165,89.149 404.904,89.168 405.387,89.168C405.861,89.168 406.49,89.149 407.272,89.11C408.11,89.071 408.795,89.051 409.324,89.051C409.451,89.051 409.514,89.161 409.514,89.38Z" style="fill:rgb(87,88,90);fill-rule:nonzero;stroke:rgb(87,88,90);stroke-width:0.24px;stroke-linejoin:round;"/>
            <path d="M409.514,89.38C409.514,89.575 409.451,89.681 409.325,89.697C408.373,89.806 407.725,89.982 407.383,90.225C407.04,90.467 406.869,90.953 406.869,91.681L406.869,93.065C406.869,94.271 406.956,95.101 407.13,95.554C406.078,95.969 404.942,96.308 403.724,96.569C402.506,96.832 401.43,96.963 400.496,96.963C398.691,96.963 397.108,96.611 395.748,95.906C394.387,95.202 393.326,94.194 392.567,92.884C391.807,91.573 391.428,90.115 391.428,88.511C391.428,86.915 391.839,85.449 392.662,84.115C393.485,82.781 394.62,81.746 396.068,81.01C397.516,80.274 399.158,79.907 400.994,79.907C401.706,79.907 402.664,80.032 403.866,80.282C404.927,80.501 405.738,80.611 406.3,80.611C406.402,81.707 406.584,83.037 406.846,84.602C406.846,84.728 406.719,84.79 406.466,84.79C406.3,84.79 406.201,84.728 406.17,84.602C405.473,81.973 403.621,80.658 400.614,80.658C398.754,80.658 397.192,81.417 395.931,82.935C394.668,84.454 394.037,86.312 394.037,88.511C394.037,90.647 394.661,92.465 395.911,93.963C397.16,95.462 398.685,96.211 400.488,96.211C403.138,96.211 404.462,95.561 404.462,94.259L404.462,91.155C404.462,90.724 404.252,90.416 403.833,90.231C403.414,90.047 402.41,89.877 400.82,89.72C400.694,89.72 400.631,89.605 400.631,89.374C400.631,89.159 400.694,89.051 400.82,89.051C401.35,89.051 402.133,89.071 403.169,89.11C404.165,89.149 404.904,89.168 405.387,89.168C405.861,89.168 406.49,89.149 407.272,89.11C408.11,89.071 408.795,89.051 409.324,89.051C409.451,89.051 409.514,89.161 409.514,89.38Z" style="fill:none;stroke:rgb(87,88,90);stroke-width:0.5px;"/>
            <path d="M18.528,84.132C18.528,81.772 17.412,80.592 15.179,80.592C14.444,80.592 13.885,80.647 13.504,80.755C13.123,80.865 12.87,81.037 12.743,81.271C12.616,81.505 12.552,81.918 12.552,82.508L12.552,87.903C13.06,87.967 13.699,88 14.47,88C15.879,88 16.908,87.692 17.557,87.078C18.204,86.464 18.528,85.482 18.528,84.132ZM25.227,96.253C25.227,96.479 25.157,96.591 25.017,96.591C24.693,96.591 24.163,96.563 23.427,96.507C22.893,96.466 22.538,96.446 22.364,96.446C22.109,96.446 21.711,96.47 21.168,96.519C20.625,96.567 20.227,96.591 19.973,96.591L15.994,90.63C15.433,89.805 14.98,89.275 14.634,89.04C14.288,88.806 13.594,88.689 12.552,88.689L12.552,93.884C12.552,94.44 12.629,94.833 12.782,95.063C12.935,95.293 13.206,95.474 13.597,95.606C13.986,95.739 14.544,95.846 15.271,95.927C15.42,95.943 15.494,96.052 15.494,96.253C15.494,96.479 15.424,96.591 15.284,96.591C14.697,96.591 13.997,96.567 13.183,96.519C12.403,96.47 11.746,96.446 11.212,96.446C10.678,96.446 10.026,96.47 9.255,96.519C8.45,96.567 7.754,96.591 7.167,96.591C7.027,96.591 6.957,96.479 6.957,96.253C6.957,96.052 7.027,95.943 7.167,95.927C7.894,95.846 8.45,95.739 8.835,95.606C9.221,95.473 9.49,95.294 9.643,95.068C9.796,94.842 9.873,94.447 9.873,93.883L9.873,82.503C9.873,81.946 9.801,81.554 9.656,81.324C9.512,81.094 9.246,80.911 8.861,80.773C8.476,80.636 7.911,80.527 7.167,80.447C7.027,80.447 6.957,80.336 6.957,80.115C6.957,79.893 7.027,79.782 7.167,79.782C7.754,79.782 8.45,79.807 9.255,79.855C10.026,79.903 10.678,79.927 11.212,79.927C11.746,79.927 12.403,79.903 13.183,79.855C13.997,79.807 14.697,79.782 15.284,79.782C17.237,79.782 18.747,80.158 19.815,80.91C20.884,81.662 21.418,82.718 21.418,84.078C21.418,84.937 21.065,85.734 20.359,86.47C19.653,87.206 18.699,87.773 17.496,88.17L21.541,94.23C21.892,94.76 22.344,95.151 22.897,95.403C23.45,95.656 24.165,95.831 25.042,95.927C25.165,95.943 25.227,96.052 25.227,96.253Z" style="fill:rgb(87,88,90);fill-rule:nonzero;stroke:rgb(87,88,90);stroke-width:0.24px;stroke-linejoin:round;"/>
            <path d="M18.528,84.132C18.528,81.772 17.412,80.592 15.179,80.592C14.444,80.592 13.885,80.647 13.504,80.755C13.123,80.865 12.87,81.037 12.743,81.271C12.616,81.505 12.552,81.918 12.552,82.508L12.552,87.903C13.06,87.967 13.699,88 14.47,88C15.879,88 16.908,87.692 17.557,87.078C18.204,86.464 18.528,85.482 18.528,84.132ZM25.227,96.253C25.227,96.479 25.157,96.591 25.017,96.591C24.693,96.591 24.163,96.563 23.427,96.507C22.893,96.466 22.538,96.446 22.364,96.446C22.109,96.446 21.711,96.47 21.168,96.519C20.625,96.567 20.227,96.591 19.973,96.591L15.994,90.63C15.433,89.805 14.98,89.275 14.634,89.04C14.288,88.806 13.594,88.689 12.552,88.689L12.552,93.884C12.552,94.44 12.629,94.833 12.782,95.063C12.935,95.293 13.206,95.474 13.597,95.606C13.986,95.739 14.544,95.846 15.271,95.927C15.42,95.943 15.494,96.052 15.494,96.253C15.494,96.479 15.424,96.591 15.284,96.591C14.697,96.591 13.997,96.567 13.183,96.519C12.403,96.47 11.746,96.446 11.212,96.446C10.678,96.446 10.026,96.47 9.255,96.519C8.45,96.567 7.754,96.591 7.167,96.591C7.027,96.591 6.957,96.479 6.957,96.253C6.957,96.052 7.027,95.943 7.167,95.927C7.894,95.846 8.45,95.739 8.835,95.606C9.221,95.473 9.49,95.294 9.643,95.068C9.796,94.842 9.873,94.447 9.873,93.883L9.873,82.503C9.873,81.946 9.801,81.554 9.656,81.324C9.512,81.094 9.246,80.911 8.861,80.773C8.476,80.636 7.911,80.527 7.167,80.447C7.027,80.447 6.957,80.336 6.957,80.115C6.957,79.893 7.027,79.782 7.167,79.782C7.754,79.782 8.45,79.807 9.255,79.855C10.026,79.903 10.678,79.927 11.212,79.927C11.746,79.927 12.403,79.903 13.183,79.855C13.997,79.807 14.697,79.782 15.284,79.782C17.237,79.782 18.747,80.158 19.815,80.91C20.884,81.662 21.418,82.718 21.418,84.078C21.418,84.937 21.065,85.734 20.359,86.47C19.653,87.206 18.699,87.773 17.496,88.17L21.541,94.23C21.892,94.76 22.344,95.151 22.897,95.403C23.45,95.656 24.165,95.831 25.042,95.927C25.165,95.943 25.227,96.052 25.227,96.253Z" style="fill:none;stroke:rgb(87,88,90);stroke-width:0.5px;"/>
            <path d="M41.566,92.604C40.856,93.998 40.279,95.327 39.832,96.591C36.531,96.495 34.18,96.446 32.779,96.446C31.395,96.446 29.049,96.495 25.739,96.591C25.599,96.591 25.529,96.479 25.529,96.253C25.529,96.052 25.599,95.943 25.739,95.927C26.466,95.846 27.021,95.739 27.407,95.606C27.792,95.473 28.061,95.294 28.215,95.068C28.368,94.842 28.445,94.447 28.445,93.883L28.445,82.503C28.445,81.946 28.372,81.554 28.228,81.324C28.083,81.094 27.818,80.911 27.433,80.773C27.048,80.636 26.483,80.527 25.739,80.447C25.599,80.447 25.529,80.336 25.529,80.115C25.529,79.893 25.599,79.782 25.739,79.782C27.946,79.879 30.205,79.927 32.516,79.927C34.845,79.927 37.109,79.879 39.307,79.782C39.508,81.031 39.801,82.264 40.186,83.48C40.186,83.641 40.033,83.722 39.727,83.722C39.578,83.722 39.486,83.666 39.451,83.553C38.803,81.651 37.419,80.701 35.301,80.701L32.647,80.701C31.632,80.701 31.124,81.184 31.124,82.151L31.124,87.528L34.434,87.528C35.314,87.528 35.911,87.343 36.223,86.972C36.536,86.602 36.753,85.945 36.877,85.002C36.877,84.874 36.997,84.809 37.238,84.809C37.479,84.809 37.599,84.874 37.599,85.002C37.599,85.406 37.573,85.913 37.52,86.525C37.468,87.113 37.441,87.593 37.441,87.963C37.441,88.342 37.468,88.825 37.52,89.413C37.573,90.042 37.599,90.557 37.599,90.96C37.599,91.089 37.479,91.153 37.238,91.153C36.997,91.153 36.877,91.089 36.877,90.96C36.745,89.978 36.514,89.289 36.184,88.894C35.853,88.499 35.27,88.302 34.434,88.302L31.124,88.302L31.124,94.247C31.124,95.198 31.632,95.673 32.647,95.673L35.511,95.673C36.553,95.673 37.586,95.361 38.61,94.736C39.635,94.112 40.388,93.333 40.87,92.398C40.905,92.326 40.979,92.29 41.093,92.29C41.215,92.29 41.325,92.319 41.421,92.38C41.517,92.44 41.566,92.515 41.566,92.604Z" style="fill:rgb(87,88,90);fill-rule:nonzero;stroke:rgb(87,88,90);stroke-width:0.24px;stroke-linejoin:round;"/>
            <path d="M41.566,92.604C40.856,93.998 40.279,95.327 39.832,96.591C36.531,96.495 34.18,96.446 32.779,96.446C31.395,96.446 29.049,96.495 25.739,96.591C25.599,96.591 25.529,96.479 25.529,96.253C25.529,96.052 25.599,95.943 25.739,95.927C26.466,95.846 27.021,95.739 27.407,95.606C27.792,95.473 28.061,95.294 28.215,95.068C28.368,94.842 28.445,94.447 28.445,93.883L28.445,82.503C28.445,81.946 28.372,81.554 28.228,81.324C28.083,81.094 27.818,80.911 27.433,80.773C27.048,80.636 26.483,80.527 25.739,80.447C25.599,80.447 25.529,80.336 25.529,80.115C25.529,79.893 25.599,79.782 25.739,79.782C27.946,79.879 30.205,79.927 32.516,79.927C34.845,79.927 37.109,79.879 39.307,79.782C39.508,81.031 39.801,82.264 40.186,83.48C40.186,83.641 40.033,83.722 39.727,83.722C39.578,83.722 39.486,83.666 39.451,83.553C38.803,81.651 37.419,80.701 35.301,80.701L32.647,80.701C31.632,80.701 31.124,81.184 31.124,82.151L31.124,87.528L34.434,87.528C35.314,87.528 35.911,87.343 36.223,86.972C36.536,86.602 36.753,85.945 36.877,85.002C36.877,84.874 36.997,84.809 37.238,84.809C37.479,84.809 37.599,84.874 37.599,85.002C37.599,85.406 37.573,85.913 37.52,86.525C37.468,87.113 37.441,87.593 37.441,87.963C37.441,88.342 37.468,88.825 37.52,89.413C37.573,90.042 37.599,90.557 37.599,90.96C37.599,91.089 37.479,91.153 37.238,91.153C36.997,91.153 36.877,91.089 36.877,90.96C36.745,89.978 36.514,89.289 36.184,88.894C35.853,88.499 35.27,88.302 34.434,88.302L31.124,88.302L31.124,94.247C31.124,95.198 31.632,95.673 32.647,95.673L35.511,95.673C36.553,95.673 37.586,95.361 38.61,94.736C39.635,94.112 40.388,93.333 40.87,92.398C40.905,92.326 40.979,92.29 41.093,92.29C41.215,92.29 41.325,92.319 41.421,92.38C41.517,92.44 41.566,92.515 41.566,92.604Z" style="fill:none;stroke:rgb(87,88,90);stroke-width:0.5px;"/>
            <path d="M59.795,92.12C59.48,93.409 59.173,94.779 58.876,96.229C58.377,96.229 57.471,96.337 56.157,96.555C54.476,96.837 53.232,96.978 52.427,96.978C50.431,96.978 48.679,96.615 47.173,95.891C45.667,95.166 44.494,94.128 43.653,92.779C42.813,91.43 42.392,89.929 42.392,88.277C42.392,86.65 42.837,85.15 43.726,83.776C44.614,82.403 45.838,81.333 47.396,80.568C48.955,79.802 50.711,79.42 52.663,79.42C53.486,79.42 54.59,79.501 55.973,79.662C57.05,79.791 57.834,79.855 58.324,79.855C58.438,80.983 58.64,82.352 58.929,83.963C58.929,84.092 58.788,84.157 58.508,84.157C58.333,84.157 58.228,84.092 58.193,83.963C57.878,82.868 57.199,81.965 56.157,81.256C55.115,80.548 53.915,80.193 52.559,80.193C50.5,80.193 48.773,80.975 47.377,82.538C45.98,84.101 45.282,86.014 45.282,88.277C45.282,90.477 45.974,92.348 47.357,93.891C48.741,95.433 50.431,96.205 52.427,96.205C55.553,96.205 57.768,94.843 59.073,92.12C59.134,91.991 59.252,91.927 59.428,91.927C59.673,91.927 59.795,91.991 59.795,92.12Z" style="fill:rgb(87,88,90);fill-rule:nonzero;stroke:rgb(87,88,90);stroke-width:0.24px;stroke-linejoin:round;"/>
            <path d="M59.795,92.12C59.48,93.409 59.173,94.779 58.876,96.229C58.377,96.229 57.471,96.337 56.157,96.555C54.476,96.837 53.232,96.978 52.427,96.978C50.431,96.978 48.679,96.615 47.173,95.891C45.667,95.166 44.494,94.128 43.653,92.779C42.813,91.43 42.392,89.929 42.392,88.277C42.392,86.65 42.837,85.15 43.726,83.776C44.614,82.403 45.838,81.333 47.396,80.568C48.955,79.802 50.711,79.42 52.663,79.42C53.486,79.42 54.59,79.501 55.973,79.662C57.05,79.791 57.834,79.855 58.324,79.855C58.438,80.983 58.64,82.352 58.929,83.963C58.929,84.092 58.788,84.157 58.508,84.157C58.333,84.157 58.228,84.092 58.193,83.963C57.878,82.868 57.199,81.965 56.157,81.256C55.115,80.548 53.915,80.193 52.559,80.193C50.5,80.193 48.773,80.975 47.377,82.538C45.98,84.101 45.282,86.014 45.282,88.277C45.282,90.477 45.974,92.348 47.357,93.891C48.741,95.433 50.431,96.205 52.427,96.205C55.553,96.205 57.768,94.843 59.073,92.12C59.134,91.991 59.252,91.927 59.428,91.927C59.673,91.927 59.795,91.991 59.795,92.12Z" style="fill:none;stroke:rgb(87,88,90);stroke-width:0.5px;"/>
            <path d="M72.168,84.132C72.168,81.772 71.052,80.592 68.819,80.592C68.083,80.592 67.525,80.647 67.144,80.755C66.763,80.865 66.509,81.037 66.382,81.271C66.255,81.505 66.192,81.918 66.192,82.508L66.192,87.903C66.7,87.967 67.339,88 68.109,88C69.519,88 70.548,87.692 71.196,87.078C71.844,86.464 72.168,85.482 72.168,84.132ZM78.867,96.253C78.867,96.479 78.796,96.591 78.656,96.591C78.332,96.591 77.803,96.563 77.067,96.507C76.533,96.466 76.178,96.446 76.003,96.446C75.749,96.446 75.351,96.47 74.808,96.519C74.265,96.567 73.867,96.591 73.613,96.591L69.633,90.63C69.073,89.805 68.62,89.275 68.274,89.04C67.928,88.806 67.234,88.689 66.192,88.689L66.192,93.884C66.192,94.44 66.268,94.833 66.422,95.063C66.575,95.293 66.846,95.474 67.236,95.606C67.625,95.739 68.184,95.846 68.911,95.927C69.059,95.943 69.134,96.052 69.134,96.253C69.134,96.479 69.064,96.591 68.924,96.591C68.337,96.591 67.637,96.567 66.822,96.519C66.043,96.47 65.386,96.446 64.852,96.446C64.318,96.446 63.665,96.47 62.895,96.519C62.089,96.567 61.393,96.591 60.807,96.591C60.666,96.591 60.597,96.479 60.597,96.253C60.597,96.052 60.666,95.943 60.807,95.927C61.534,95.846 62.089,95.739 62.475,95.606C62.86,95.473 63.129,95.294 63.283,95.068C63.436,94.842 63.513,94.447 63.513,93.883L63.513,82.503C63.513,81.946 63.44,81.554 63.296,81.324C63.151,81.094 62.886,80.911 62.501,80.773C62.116,80.636 61.551,80.527 60.807,80.447C60.666,80.447 60.597,80.336 60.597,80.115C60.597,79.893 60.666,79.782 60.807,79.782C61.393,79.782 62.089,79.807 62.895,79.855C63.665,79.903 64.318,79.927 64.852,79.927C65.386,79.927 66.043,79.903 66.822,79.855C67.637,79.807 68.337,79.782 68.924,79.782C70.876,79.782 72.387,80.158 73.455,80.91C74.523,81.662 75.058,82.718 75.058,84.078C75.058,84.937 74.705,85.734 73.999,86.47C73.293,87.206 72.338,87.773 71.136,88.17L75.181,94.23C75.532,94.76 75.984,95.151 76.537,95.403C77.09,95.656 77.805,95.831 78.682,95.927C78.805,95.943 78.867,96.052 78.867,96.253Z" style="fill:rgb(87,88,90);fill-rule:nonzero;stroke:rgb(87,88,90);stroke-width:0.24px;stroke-linejoin:round;"/>
            <path d="M72.168,84.132C72.168,81.772 71.052,80.592 68.819,80.592C68.083,80.592 67.525,80.647 67.144,80.755C66.763,80.865 66.509,81.037 66.382,81.271C66.255,81.505 66.192,81.918 66.192,82.508L66.192,87.903C66.7,87.967 67.339,88 68.109,88C69.519,88 70.548,87.692 71.196,87.078C71.844,86.464 72.168,85.482 72.168,84.132ZM78.867,96.253C78.867,96.479 78.796,96.591 78.656,96.591C78.332,96.591 77.803,96.563 77.067,96.507C76.533,96.466 76.178,96.446 76.003,96.446C75.749,96.446 75.351,96.47 74.808,96.519C74.265,96.567 73.867,96.591 73.613,96.591L69.633,90.63C69.073,89.805 68.62,89.275 68.274,89.04C67.928,88.806 67.234,88.689 66.192,88.689L66.192,93.884C66.192,94.44 66.268,94.833 66.422,95.063C66.575,95.293 66.846,95.474 67.236,95.606C67.625,95.739 68.184,95.846 68.911,95.927C69.059,95.943 69.134,96.052 69.134,96.253C69.134,96.479 69.064,96.591 68.924,96.591C68.337,96.591 67.637,96.567 66.822,96.519C66.043,96.47 65.386,96.446 64.852,96.446C64.318,96.446 63.665,96.47 62.895,96.519C62.089,96.567 61.393,96.591 60.807,96.591C60.666,96.591 60.597,96.479 60.597,96.253C60.597,96.052 60.666,95.943 60.807,95.927C61.534,95.846 62.089,95.739 62.475,95.606C62.86,95.473 63.129,95.294 63.283,95.068C63.436,94.842 63.513,94.447 63.513,93.883L63.513,82.503C63.513,81.946 63.44,81.554 63.296,81.324C63.151,81.094 62.886,80.911 62.501,80.773C62.116,80.636 61.551,80.527 60.807,80.447C60.666,80.447 60.597,80.336 60.597,80.115C60.597,79.893 60.666,79.782 60.807,79.782C61.393,79.782 62.089,79.807 62.895,79.855C63.665,79.903 64.318,79.927 64.852,79.927C65.386,79.927 66.043,79.903 66.822,79.855C67.637,79.807 68.337,79.782 68.924,79.782C70.876,79.782 72.387,80.158 73.455,80.91C74.523,81.662 75.058,82.718 75.058,84.078C75.058,84.937 74.705,85.734 73.999,86.47C73.293,87.206 72.338,87.773 71.136,88.17L75.181,94.23C75.532,94.76 75.984,95.151 76.537,95.403C77.09,95.656 77.805,95.831 78.682,95.927C78.805,95.943 78.867,96.052 78.867,96.253Z" style="fill:none;stroke:rgb(87,88,90);stroke-width:0.5px;"/>
            <path d="M97.163,80.115C97.163,80.336 97.092,80.447 96.952,80.447C95.849,80.576 95.109,80.764 94.732,81.009C94.356,81.255 94.168,81.753 94.168,82.503L94.168,90.085C94.168,92.238 93.603,93.925 92.475,95.146C91.347,96.367 89.754,96.978 87.699,96.978C85.354,96.978 83.526,96.396 82.214,95.23C80.901,94.065 80.246,92.48 80.246,90.472L80.246,82.503C80.246,81.946 80.173,81.554 80.029,81.324C79.884,81.094 79.619,80.911 79.234,80.773C78.849,80.636 78.284,80.527 77.54,80.447C77.399,80.447 77.33,80.336 77.33,80.115C77.33,79.893 77.399,79.782 77.54,79.782C78.126,79.782 78.822,79.807 79.628,79.855C80.398,79.903 81.051,79.927 81.585,79.927C82.119,79.927 82.776,79.903 83.555,79.855C84.37,79.807 85.07,79.782 85.657,79.782C85.797,79.782 85.867,79.893 85.867,80.115C85.867,80.336 85.797,80.447 85.657,80.447C84.913,80.528 84.348,80.635 83.962,80.768C83.577,80.9 83.308,81.082 83.155,81.312C83.001,81.542 82.925,81.939 82.925,82.503L82.925,90.134C82.925,92.117 83.332,93.573 84.146,94.5C84.96,95.427 86.287,95.891 88.126,95.891C91.584,95.891 93.314,93.875 93.314,89.844L93.314,82.503C93.314,81.753 93.119,81.251 92.729,80.997C92.34,80.743 91.606,80.56 90.53,80.447C90.39,80.447 90.319,80.336 90.319,80.115C90.319,79.893 90.389,79.782 90.529,79.782C90.93,79.782 91.458,79.807 92.113,79.855C92.785,79.903 93.33,79.927 93.749,79.927C94.168,79.927 94.693,79.903 95.324,79.855C95.972,79.807 96.514,79.782 96.952,79.782C97.092,79.782 97.163,79.893 97.163,80.115Z" style="fill:rgb(87,88,90);fill-rule:nonzero;stroke:rgb(87,88,90);stroke-width:0.24px;stroke-linejoin:round;"/>
            <path d="M97.163,80.115C97.163,80.336 97.092,80.447 96.952,80.447C95.849,80.576 95.109,80.764 94.732,81.009C94.356,81.255 94.168,81.753 94.168,82.503L94.168,90.085C94.168,92.238 93.603,93.925 92.475,95.146C91.347,96.367 89.754,96.978 87.699,96.978C85.354,96.978 83.526,96.396 82.214,95.23C80.901,94.065 80.246,92.48 80.246,90.472L80.246,82.503C80.246,81.946 80.173,81.554 80.029,81.324C79.884,81.094 79.619,80.911 79.234,80.773C78.849,80.636 78.284,80.527 77.54,80.447C77.399,80.447 77.33,80.336 77.33,80.115C77.33,79.893 77.399,79.782 77.54,79.782C78.126,79.782 78.822,79.807 79.628,79.855C80.398,79.903 81.051,79.927 81.585,79.927C82.119,79.927 82.776,79.903 83.555,79.855C84.37,79.807 85.07,79.782 85.657,79.782C85.797,79.782 85.867,79.893 85.867,80.115C85.867,80.336 85.797,80.447 85.657,80.447C84.913,80.528 84.348,80.635 83.962,80.768C83.577,80.9 83.308,81.082 83.155,81.312C83.001,81.542 82.925,81.939 82.925,82.503L82.925,90.134C82.925,92.117 83.332,93.573 84.146,94.5C84.96,95.427 86.287,95.891 88.126,95.891C91.584,95.891 93.314,93.875 93.314,89.844L93.314,82.503C93.314,81.753 93.119,81.251 92.729,80.997C92.34,80.743 91.606,80.56 90.53,80.447C90.39,80.447 90.319,80.336 90.319,80.115C90.319,79.893 90.389,79.782 90.529,79.782C90.93,79.782 91.458,79.807 92.113,79.855C92.785,79.903 93.33,79.927 93.749,79.927C94.168,79.927 94.693,79.903 95.324,79.855C95.972,79.807 96.514,79.782 96.952,79.782C97.092,79.782 97.163,79.893 97.163,80.115Z" style="fill:none;stroke:rgb(87,88,90);stroke-width:0.5px;"/>
            <path d="M106.882,96.253C106.882,96.479 106.812,96.591 106.672,96.591C106.085,96.591 105.389,96.567 104.583,96.519C103.813,96.47 103.161,96.446 102.626,96.446C102.092,96.446 101.44,96.47 100.669,96.519C99.855,96.567 99.15,96.591 98.555,96.591C98.414,96.591 98.344,96.479 98.344,96.253C98.344,96.052 98.414,95.943 98.555,95.927C99.614,95.814 100.334,95.632 100.716,95.382C101.097,95.132 101.287,94.633 101.287,93.883L101.287,82.503C101.287,81.939 101.21,81.542 101.057,81.312C100.904,81.082 100.635,80.9 100.249,80.767C99.863,80.634 99.299,80.527 98.555,80.447C98.414,80.447 98.344,80.336 98.344,80.115C98.344,79.893 98.414,79.782 98.555,79.782C99.15,79.782 99.855,79.807 100.669,79.855C101.44,79.903 102.092,79.927 102.626,79.927C103.161,79.927 103.813,79.903 104.583,79.855C105.389,79.807 106.085,79.782 106.672,79.782C106.812,79.782 106.882,79.893 106.882,80.115C106.882,80.336 106.812,80.447 106.672,80.447C105.936,80.527 105.376,80.634 104.991,80.767C104.605,80.9 104.338,81.08 104.189,81.306C104.04,81.531 103.966,81.93 103.966,82.503L103.966,93.883C103.966,94.439 104.04,94.833 104.189,95.062C104.338,95.292 104.603,95.473 104.984,95.606C105.365,95.739 105.923,95.846 106.659,95.927C106.807,95.943 106.882,96.052 106.882,96.253Z" style="fill:rgb(87,88,90);fill-rule:nonzero;stroke:rgb(87,88,90);stroke-width:0.24px;stroke-linejoin:round;"/>
            <path d="M106.882,96.253C106.882,96.479 106.812,96.591 106.672,96.591C106.085,96.591 105.389,96.567 104.583,96.519C103.813,96.47 103.161,96.446 102.626,96.446C102.092,96.446 101.44,96.47 100.669,96.519C99.855,96.567 99.15,96.591 98.555,96.591C98.414,96.591 98.344,96.479 98.344,96.253C98.344,96.052 98.414,95.943 98.555,95.927C99.614,95.814 100.334,95.632 100.716,95.382C101.097,95.132 101.287,94.633 101.287,93.883L101.287,82.503C101.287,81.939 101.21,81.542 101.057,81.312C100.904,81.082 100.635,80.9 100.249,80.767C99.863,80.634 99.299,80.527 98.555,80.447C98.414,80.447 98.344,80.336 98.344,80.115C98.344,79.893 98.414,79.782 98.555,79.782C99.15,79.782 99.855,79.807 100.669,79.855C101.44,79.903 102.092,79.927 102.626,79.927C103.161,79.927 103.813,79.903 104.583,79.855C105.389,79.807 106.085,79.782 106.672,79.782C106.812,79.782 106.882,79.893 106.882,80.115C106.882,80.336 106.812,80.447 106.672,80.447C105.936,80.527 105.376,80.634 104.991,80.767C104.605,80.9 104.338,81.08 104.189,81.306C104.04,81.531 103.966,81.93 103.966,82.503L103.966,93.883C103.966,94.439 104.04,94.833 104.189,95.062C104.338,95.292 104.603,95.473 104.984,95.606C105.365,95.739 105.923,95.846 106.659,95.927C106.807,95.943 106.882,96.052 106.882,96.253Z" style="fill:none;stroke:rgb(87,88,90);stroke-width:0.5px;"/>
            <path d="M126.452,83.758C126.452,83.911 126.294,83.987 125.979,83.987C125.839,83.987 125.751,83.931 125.716,83.818C125.34,82.683 124.801,81.879 124.1,81.408C123.4,80.937 122.362,80.701 120.988,80.701L119.753,80.701C119.324,80.701 119.031,80.765 118.873,80.894C118.716,81.023 118.637,81.265 118.637,81.619L118.637,93.884C118.637,94.44 118.713,94.833 118.867,95.063C119.02,95.293 119.291,95.474 119.681,95.606C120.071,95.739 120.629,95.846 121.356,95.927C121.495,95.943 121.566,96.052 121.566,96.253C121.566,96.479 121.495,96.591 121.356,96.591C120.769,96.591 120.068,96.567 119.254,96.519C118.482,96.47 117.836,96.446 117.317,96.446C116.78,96.446 116.121,96.47 115.34,96.519C114.526,96.567 113.825,96.591 113.239,96.591C113.099,96.591 113.029,96.479 113.029,96.253C113.029,96.052 113.099,95.943 113.239,95.927C114.298,95.814 115.018,95.633 115.399,95.383C115.78,95.133 115.971,94.634 115.971,93.884L115.971,81.619C115.971,81.265 115.892,81.023 115.734,80.894C115.577,80.765 115.279,80.701 114.841,80.701L113.817,80.701C112.582,80.701 111.461,80.989 110.454,81.564C109.447,82.141 108.79,82.888 108.484,83.806C108.44,83.927 108.344,83.987 108.195,83.987C107.897,83.987 107.748,83.899 107.748,83.722C108.239,82.505 108.703,81.128 109.141,79.589C110.332,79.814 113.058,79.927 117.317,79.927C121.689,79.927 124.472,79.814 125.663,79.589C125.786,80.636 126.049,82.026 126.452,83.758Z" style="fill:rgb(87,88,90);fill-rule:nonzero;stroke:rgb(87,88,90);stroke-width:0.24px;stroke-linejoin:round;"/>
            <path d="M126.452,83.758C126.452,83.911 126.294,83.987 125.979,83.987C125.839,83.987 125.751,83.931 125.716,83.818C125.34,82.683 124.801,81.879 124.1,81.408C123.4,80.937 122.362,80.701 120.988,80.701L119.753,80.701C119.324,80.701 119.031,80.765 118.873,80.894C118.716,81.023 118.637,81.265 118.637,81.619L118.637,93.884C118.637,94.44 118.713,94.833 118.867,95.063C119.02,95.293 119.291,95.474 119.681,95.606C120.071,95.739 120.629,95.846 121.356,95.927C121.495,95.943 121.566,96.052 121.566,96.253C121.566,96.479 121.495,96.591 121.356,96.591C120.769,96.591 120.068,96.567 119.254,96.519C118.482,96.47 117.836,96.446 117.317,96.446C116.78,96.446 116.121,96.47 115.34,96.519C114.526,96.567 113.825,96.591 113.239,96.591C113.099,96.591 113.029,96.479 113.029,96.253C113.029,96.052 113.099,95.943 113.239,95.927C114.298,95.814 115.018,95.633 115.399,95.383C115.78,95.133 115.971,94.634 115.971,93.884L115.971,81.619C115.971,81.265 115.892,81.023 115.734,80.894C115.577,80.765 115.279,80.701 114.841,80.701L113.817,80.701C112.582,80.701 111.461,80.989 110.454,81.564C109.447,82.141 108.79,82.888 108.484,83.806C108.44,83.927 108.344,83.987 108.195,83.987C107.897,83.987 107.748,83.899 107.748,83.722C108.239,82.505 108.703,81.128 109.141,79.589C110.332,79.814 113.058,79.927 117.317,79.927C121.689,79.927 124.472,79.814 125.663,79.589C125.786,80.636 126.049,82.026 126.452,83.758Z" style="fill:none;stroke:rgb(87,88,90);stroke-width:0.5px;"/>
            <path d="M135.856,96.253C135.856,96.479 135.786,96.591 135.645,96.591C135.059,96.591 134.363,96.567 133.557,96.519C132.786,96.47 132.134,96.446 131.6,96.446C131.065,96.446 130.412,96.47 129.643,96.519C128.828,96.567 128.123,96.591 127.529,96.591C127.389,96.591 127.318,96.479 127.318,96.253C127.318,96.052 127.389,95.943 127.529,95.927C128.588,95.814 129.308,95.632 129.688,95.382C130.07,95.132 130.261,94.633 130.261,93.883L130.261,82.503C130.261,81.939 130.183,81.542 130.031,81.312C129.877,81.082 129.608,80.9 129.223,80.767C128.837,80.634 128.272,80.527 127.529,80.447C127.389,80.447 127.318,80.336 127.318,80.115C127.318,79.893 127.389,79.782 127.529,79.782C128.123,79.782 128.828,79.807 129.643,79.855C130.412,79.903 131.065,79.927 131.6,79.927C132.134,79.927 132.786,79.903 133.557,79.855C134.363,79.807 135.059,79.782 135.645,79.782C135.786,79.782 135.856,79.893 135.856,80.115C135.856,80.336 135.786,80.447 135.645,80.447C134.91,80.527 134.349,80.634 133.964,80.767C133.579,80.9 133.312,81.08 133.163,81.306C133.014,81.531 132.94,81.93 132.94,82.503L132.94,93.883C132.94,94.439 133.014,94.833 133.163,95.062C133.312,95.292 133.577,95.473 133.958,95.606C134.339,95.739 134.897,95.846 135.632,95.927C135.781,95.943 135.856,96.052 135.856,96.253Z" style="fill:rgb(87,88,90);fill-rule:nonzero;stroke:rgb(87,88,90);stroke-width:0.24px;stroke-linejoin:round;"/>
            <path d="M135.856,96.253C135.856,96.479 135.786,96.591 135.645,96.591C135.059,96.591 134.363,96.567 133.557,96.519C132.786,96.47 132.134,96.446 131.6,96.446C131.065,96.446 130.412,96.47 129.643,96.519C128.828,96.567 128.123,96.591 127.529,96.591C127.389,96.591 127.318,96.479 127.318,96.253C127.318,96.052 127.389,95.943 127.529,95.927C128.588,95.814 129.308,95.632 129.688,95.382C130.07,95.132 130.261,94.633 130.261,93.883L130.261,82.503C130.261,81.939 130.183,81.542 130.031,81.312C129.877,81.082 129.608,80.9 129.223,80.767C128.837,80.634 128.272,80.527 127.529,80.447C127.389,80.447 127.318,80.336 127.318,80.115C127.318,79.893 127.389,79.782 127.529,79.782C128.123,79.782 128.828,79.807 129.643,79.855C130.412,79.903 131.065,79.927 131.6,79.927C132.134,79.927 132.786,79.903 133.557,79.855C134.363,79.807 135.059,79.782 135.645,79.782C135.786,79.782 135.856,79.893 135.856,80.115C135.856,80.336 135.786,80.447 135.645,80.447C134.91,80.527 134.349,80.634 133.964,80.767C133.579,80.9 133.312,81.08 133.163,81.306C133.014,81.531 132.94,81.93 132.94,82.503L132.94,93.883C132.94,94.439 133.014,94.833 133.163,95.062C133.312,95.292 133.577,95.473 133.958,95.606C134.339,95.739 134.897,95.846 135.632,95.927C135.781,95.943 135.856,96.052 135.856,96.253Z" style="fill:none;stroke:rgb(87,88,90);stroke-width:0.5px;"/>
            <path d="M159.274,80.121C159.274,80.322 159.203,80.431 159.064,80.447C157.969,80.56 157.218,80.746 156.811,81.003C156.404,81.262 156.192,81.758 156.174,82.492L155.885,96.736C155.885,96.897 155.78,96.978 155.57,96.978C155.464,96.978 155.325,96.914 155.15,96.785L141.608,82.707L141.424,93.884L141.411,94.066C141.411,94.678 141.621,95.111 142.041,95.365C142.462,95.619 143.219,95.806 144.314,95.927C144.453,95.943 144.524,96.052 144.524,96.253C144.524,96.479 144.453,96.591 144.314,96.591C143.858,96.591 143.232,96.567 142.435,96.519C141.691,96.47 141.118,96.446 140.715,96.446C140.277,96.446 139.686,96.47 138.942,96.519C138.224,96.567 137.668,96.591 137.274,96.591C137.134,96.591 137.064,96.479 137.064,96.253C137.064,96.052 137.142,95.943 137.3,95.927C138.386,95.806 139.13,95.618 139.533,95.364C139.935,95.11 140.15,94.617 140.177,93.883L140.636,82.503L140.636,82.394C140.636,81.741 140.431,81.286 140.019,81.027C139.607,80.77 138.841,80.576 137.721,80.447C137.598,80.447 137.536,80.336 137.536,80.115C137.536,79.893 137.606,79.782 137.746,79.782C138.053,79.782 138.482,79.807 139.034,79.855C139.524,79.903 139.892,79.927 140.137,79.927C140.443,79.927 140.811,79.903 141.24,79.855C141.678,79.807 142.055,79.782 142.37,79.782L155.018,92.797L155.018,82.493C155.018,81.807 154.806,81.325 154.381,81.046C153.956,80.768 153.17,80.568 152.023,80.447C151.883,80.431 151.813,80.322 151.813,80.121C151.813,79.895 151.883,79.782 152.023,79.782C152.496,79.782 153.126,79.807 153.914,79.855C154.651,79.903 155.219,79.927 155.622,79.927C156.06,79.927 156.651,79.903 157.396,79.855C158.114,79.807 158.669,79.782 159.064,79.782C159.203,79.782 159.274,79.895 159.274,80.121Z" style="fill:rgb(87,88,90);fill-rule:nonzero;stroke:rgb(87,88,90);stroke-width:0.24px;stroke-linejoin:round;"/>
            <path d="M159.274,80.121C159.274,80.322 159.203,80.431 159.064,80.447C157.969,80.56 157.218,80.746 156.811,81.003C156.404,81.262 156.192,81.758 156.174,82.492L155.885,96.736C155.885,96.897 155.78,96.978 155.57,96.978C155.464,96.978 155.325,96.914 155.15,96.785L141.608,82.707L141.424,93.884L141.411,94.066C141.411,94.678 141.621,95.111 142.041,95.365C142.462,95.619 143.219,95.806 144.314,95.927C144.453,95.943 144.524,96.052 144.524,96.253C144.524,96.479 144.453,96.591 144.314,96.591C143.858,96.591 143.232,96.567 142.435,96.519C141.691,96.47 141.118,96.446 140.715,96.446C140.277,96.446 139.686,96.47 138.942,96.519C138.224,96.567 137.668,96.591 137.274,96.591C137.134,96.591 137.064,96.479 137.064,96.253C137.064,96.052 137.142,95.943 137.3,95.927C138.386,95.806 139.13,95.618 139.533,95.364C139.935,95.11 140.15,94.617 140.177,93.883L140.636,82.503L140.636,82.394C140.636,81.741 140.431,81.286 140.019,81.027C139.607,80.77 138.841,80.576 137.721,80.447C137.598,80.447 137.536,80.336 137.536,80.115C137.536,79.893 137.606,79.782 137.746,79.782C138.053,79.782 138.482,79.807 139.034,79.855C139.524,79.903 139.892,79.927 140.137,79.927C140.443,79.927 140.811,79.903 141.24,79.855C141.678,79.807 142.055,79.782 142.37,79.782L155.018,92.797L155.018,82.493C155.018,81.807 154.806,81.325 154.381,81.046C153.956,80.768 153.17,80.568 152.023,80.447C151.883,80.431 151.813,80.322 151.813,80.121C151.813,79.895 151.883,79.782 152.023,79.782C152.496,79.782 153.126,79.807 153.914,79.855C154.651,79.903 155.219,79.927 155.622,79.927C156.06,79.927 156.651,79.903 157.396,79.855C158.114,79.807 158.669,79.782 159.064,79.782C159.203,79.782 159.274,79.895 159.274,80.121Z" style="fill:none;stroke:rgb(87,88,90);stroke-width:0.5px;"/>
            <path d="M179.894,89.172C179.894,89.373 179.824,89.482 179.685,89.498C178.63,89.611 177.912,89.792 177.534,90.042C177.155,90.292 176.965,90.791 176.965,91.54L176.965,92.966C176.965,94.207 177.061,95.061 177.254,95.528C176.088,95.955 174.831,96.303 173.482,96.573C172.132,96.843 170.941,96.978 169.907,96.978C167.909,96.978 166.156,96.615 164.649,95.891C163.141,95.166 161.967,94.128 161.125,92.779C160.285,91.43 159.864,89.929 159.864,88.277C159.864,86.634 160.32,85.126 161.231,83.752C162.142,82.378 163.4,81.313 165.003,80.556C166.607,79.798 168.425,79.42 170.458,79.42C171.247,79.42 172.307,79.549 173.639,79.807C174.814,80.032 175.711,80.145 176.334,80.145C176.448,81.273 176.649,82.642 176.939,84.253C176.939,84.382 176.798,84.447 176.518,84.447C176.334,84.447 176.225,84.382 176.19,84.253C175.418,81.546 173.368,80.193 170.037,80.193C167.977,80.193 166.248,80.975 164.851,82.538C163.453,84.101 162.753,86.014 162.753,88.277C162.753,90.477 163.446,92.348 164.828,93.891C166.212,95.433 167.903,96.205 169.899,96.205C172.831,96.205 174.298,95.535 174.298,94.195L174.298,90.999C174.298,90.555 174.067,90.238 173.603,90.049C173.138,89.859 172.027,89.684 170.266,89.522C170.126,89.522 170.056,89.403 170.056,89.166C170.056,88.944 170.126,88.834 170.266,88.834C170.853,88.834 171.72,88.854 172.867,88.894C173.97,88.934 174.788,88.954 175.323,88.954C175.848,88.954 176.544,88.934 177.411,88.894C178.339,88.854 179.097,88.834 179.684,88.834C179.824,88.834 179.894,88.946 179.894,89.172Z" style="fill:rgb(87,88,90);fill-rule:nonzero;stroke:rgb(87,88,90);stroke-width:0.24px;stroke-linejoin:round;"/>
            <path d="M179.894,89.172C179.894,89.373 179.824,89.482 179.685,89.498C178.63,89.611 177.912,89.792 177.534,90.042C177.155,90.292 176.965,90.791 176.965,91.54L176.965,92.966C176.965,94.207 177.061,95.061 177.254,95.528C176.088,95.955 174.831,96.303 173.482,96.573C172.132,96.843 170.941,96.978 169.907,96.978C167.909,96.978 166.156,96.615 164.649,95.891C163.141,95.166 161.967,94.128 161.125,92.779C160.285,91.43 159.864,89.929 159.864,88.277C159.864,86.634 160.32,85.126 161.231,83.752C162.142,82.378 163.4,81.313 165.003,80.556C166.607,79.798 168.425,79.42 170.458,79.42C171.247,79.42 172.307,79.549 173.639,79.807C174.814,80.032 175.711,80.145 176.334,80.145C176.448,81.273 176.649,82.642 176.939,84.253C176.939,84.382 176.798,84.447 176.518,84.447C176.334,84.447 176.225,84.382 176.19,84.253C175.418,81.546 173.368,80.193 170.037,80.193C167.977,80.193 166.248,80.975 164.851,82.538C163.453,84.101 162.753,86.014 162.753,88.277C162.753,90.477 163.446,92.348 164.828,93.891C166.212,95.433 167.903,96.205 169.899,96.205C172.831,96.205 174.298,95.535 174.298,94.195L174.298,90.999C174.298,90.555 174.067,90.238 173.603,90.049C173.138,89.859 172.027,89.684 170.266,89.522C170.126,89.522 170.056,89.403 170.056,89.166C170.056,88.944 170.126,88.834 170.266,88.834C170.853,88.834 171.72,88.854 172.867,88.894C173.97,88.934 174.788,88.954 175.323,88.954C175.848,88.954 176.544,88.934 177.411,88.894C178.339,88.854 179.097,88.834 179.684,88.834C179.824,88.834 179.894,88.946 179.894,89.172Z" style="fill:none;stroke:rgb(87,88,90);stroke-width:0.5px;"/>
            <path d="M207.716,74.79C207.716,73.567 207.415,72.598 206.815,71.885C206.214,71.171 205.381,70.814 204.315,70.814C203.453,70.814 202.678,71.218 201.993,72.025C201.308,72.832 200.965,73.873 200.965,75.147C200.965,76.745 201.845,78.555 203.605,80.577C204.874,79.762 205.876,78.822 206.612,77.76C207.348,76.698 207.716,75.708 207.716,74.79ZM209.476,94.801L200.356,84.4C196.922,86.899 195.205,89.55 195.205,92.354C195.205,94.359 195.789,95.965 196.957,97.172C198.126,98.378 199.725,98.981 201.756,98.981C204.516,98.981 207.089,97.588 209.476,94.801ZM227.408,80.228C227.408,80.652 227.272,80.88 227.001,80.913C225.192,81.202 223.754,81.613 222.688,82.146C221.623,82.68 220.641,83.497 219.744,84.598L213.705,92.12C216.259,95.034 218.09,96.923 219.198,97.787C220.306,98.651 221.369,99.083 222.383,99.083C223.804,99.083 225.082,98.513 226.215,97.373L226.342,97.324C226.511,97.324 226.676,97.42 226.836,97.61C226.998,97.8 227.078,98.01 227.078,98.241C227.078,98.49 226.647,99.034 225.784,99.877C224.921,100.719 224.016,101.334 223.069,101.723C222.121,102.111 221.064,102.305 219.897,102.305C218.424,102.305 217.033,101.906 215.722,101.109C214.411,100.312 212.681,98.616 210.532,96.024C208.777,98.321 207.004,99.942 205.215,100.887C203.426,101.832 201.366,102.305 199.037,102.305C196.601,102.305 194.486,101.397 192.693,99.582C190.899,97.766 190.003,95.637 190.003,93.193C190.003,89.358 193.116,85.998 199.341,83.113C198.316,81.943 197.616,80.911 197.24,80.021C196.864,79.13 196.677,78.167 196.677,77.131C196.677,74.976 197.4,73.114 198.847,71.544C200.293,69.975 202.108,69.19 204.29,69.19C206.134,69.19 207.694,69.742 208.972,70.846C210.249,71.95 210.888,73.25 210.888,74.745C210.888,75.934 210.399,77.089 209.422,78.211C208.444,79.332 206.844,80.529 204.62,81.803L212.597,90.926C214.623,88.4 215.889,86.676 216.396,85.754C216.902,84.832 217.156,83.995 217.156,83.244C217.156,82.527 216.796,81.993 216.077,81.643C215.358,81.294 214.187,81.051 212.563,80.913C212.274,80.897 212.131,80.669 212.131,80.228C212.131,79.755 212.266,79.518 212.537,79.518C213.264,79.518 214.33,79.56 215.734,79.645C217.494,79.763 218.932,79.822 220.048,79.822C221.182,79.822 222.51,79.763 224.033,79.645C225.267,79.56 226.257,79.518 227.001,79.518C227.272,79.518 227.408,79.755 227.408,80.228Z" style="fill:rgb(145,167,81);fill-rule:nonzero;"/>
            <path d="M146.784,37.287C146.306,37.487 145.797,37.602 145.223,37.618C144.953,37.625 144.687,37.595 144.429,37.536C139.541,38.299 134.492,40.78 132.559,47.371C132.559,47.371 134.481,48.381 137.996,48.034C139.727,47.598 141.464,47.172 143.191,46.72C145.259,45.905 147.606,44.632 150.194,42.746C150.687,42.224 151.264,41.774 151.925,41.415C152.745,40.755 153.581,40.05 154.444,39.262C154.789,38.857 155.183,38.491 155.622,38.168L155.682,38.112C155.682,38.112 151.586,37.018 146.784,37.287Z" style="fill:rgb(145,167,81);fill-rule:nonzero;"/>
            <path d="M124.537,28.669C123.822,28.046 123.338,27.213 123.087,26.305C121.531,23.995 119.451,21.503 116.68,18.866C116.68,18.866 113.454,33.157 120.754,39.752L120.991,39.966C121.571,40.461 122.234,40.893 122.947,41.285C123.579,41.406 124.107,41.664 124.535,42.016C125.232,42.279 125.963,42.513 126.773,42.675C126.773,42.674 129.261,37.192 124.537,28.669Z" style="fill:rgb(145,167,81);fill-rule:nonzero;"/>
            <path d="M144.508,13.881C144.062,14.092 143.555,14.309 143.018,14.53C137.305,17.598 128.11,24.606 135.039,35.631C135.039,35.631 147.141,34.124 146.951,12.734C146.951,12.734 146.489,12.898 145.745,13.217C145.343,13.456 144.931,13.68 144.508,13.881Z" style="fill:rgb(145,167,81);fill-rule:nonzero;"/>
            <path d="M120.536,69.904C120.55,68.715 120.717,64.774 122.163,59.343C122.233,58.837 122.375,58.335 122.581,57.854C124.361,51.84 127.683,44.293 133.896,36.696C133.896,36.696 120.999,47.11 118.439,71.291L120.479,70.313C120.499,70.174 120.518,70.037 120.536,69.904Z" style="fill:rgb(145,167,81);fill-rule:nonzero;"/>
        </g>
    </g>
</svg>
