<?xml version="1.0" encoding="UTF-8" standalone="no"?><!DOCTYPE svg PUBLIC "-//W3C//DTD SVG 1.1//EN" "http://www.w3.org/Graphics/SVG/1.1/DTD/svg11.dtd"><svg width="100%" height="100%" viewBox="0 0 1713 443" version="1.1" xmlns="http://www.w3.org/2000/svg" xmlns:xlink="http://www.w3.org/1999/xlink" xml:space="preserve" xmlns:serif="http://www.serif.com/" style="fill-rule:evenodd;clip-rule:evenodd;stroke-linejoin:round;stroke-miterlimit:1.41421;"><rect id="Artboard1" x="0" y="0" width="1712.5" height="443" style="fill:none;"/><g><path d="M865.688,312.396c0,-5.1 -1.254,-9.133 -3.754,-12.108c-2.504,-2.975 -5.975,-4.459 -10.412,-4.459c-3.596,0 -6.825,1.68 -9.68,5.042c-2.854,3.367 -4.279,7.704 -4.279,13.013c0,6.658 3.663,14.2 10.996,22.625c5.288,-3.4 9.463,-7.313 12.529,-11.738c3.067,-4.425 4.6,-8.55 4.6,-12.375Zm7.334,83.375l-37.996,-43.333c-14.313,10.408 -21.467,21.454 -21.467,33.141c0,8.355 2.433,15.046 7.3,20.071c4.871,5.029 11.533,7.542 20,7.542c11.496,0 22.221,-5.804 32.163,-17.421Zm74.716,-60.717c0,1.763 -0.566,2.717 -1.691,2.855c-7.542,1.204 -13.534,2.912 -17.975,5.137c-4.438,2.225 -8.53,5.629 -12.267,10.217l-25.163,31.341c10.642,12.142 18.275,20.013 22.888,23.613c4.617,3.6 9.046,5.4 13.275,5.4c5.917,0 11.242,-2.375 15.962,-7.125l0.53,-0.204c0.704,0 1.391,0.4 2.062,1.191c0.671,0.792 1.004,1.667 1.004,2.63c0,1.033 -1.796,3.304 -5.391,6.816c-3.592,3.509 -7.367,6.071 -11.313,7.692c-3.95,1.617 -8.354,2.425 -13.217,2.425c-6.133,0 -11.933,-1.662 -17.395,-4.983c-5.463,-3.321 -12.671,-10.388 -21.625,-21.188c-7.313,9.571 -14.696,16.325 -22.155,20.263c-7.454,3.937 -16.037,5.908 -25.741,5.908c-10.15,0 -18.963,-3.783 -26.434,-11.346c-7.471,-7.567 -11.208,-16.437 -11.208,-26.621c0,-15.979 12.971,-29.979 38.908,-42c-4.266,-4.879 -7.187,-9.175 -8.754,-12.883c-1.567,-3.717 -2.346,-7.725 -2.346,-12.042c0,-8.979 3.017,-16.737 9.042,-23.279c6.025,-6.537 13.588,-9.808 22.679,-9.808c7.684,0 14.184,2.3 19.509,6.9c5.32,4.6 7.983,10.016 7.983,16.246c0,4.954 -2.038,9.766 -6.108,14.441c-4.075,4.671 -10.742,9.659 -20.009,14.967l33.238,38.012c8.441,-10.529 13.716,-17.712 15.829,-21.554c2.112,-3.837 3.167,-7.325 3.167,-10.454c0,-2.987 -1.5,-5.212 -4.496,-6.671c-2.996,-1.454 -7.875,-2.471 -14.642,-3.041c-1.2,-0.067 -1.8,-1.017 -1.8,-2.855c0,-1.97 0.563,-2.958 1.692,-2.958c3.029,0 7.471,0.175 13.325,0.529c7.329,0.492 13.321,0.738 17.975,0.738c4.721,0 10.254,-0.246 16.6,-0.738c5.141,-0.354 9.271,-0.529 12.371,-0.529c1.125,0 1.691,0.988 1.691,2.958Z" style="fill:#fff;fill-rule:nonzero;"/><path d="M379.092,248.546c0,3.246 -1.063,4.871 -3.183,4.871c-8.888,0 -19.696,-0.35 -32.43,-1.046c-12.179,-0.696 -22.291,-1.042 -30.341,-1.042c-8.05,0 -17.9,0.346 -29.542,1.042c-12.204,0.696 -22.75,1.046 -31.633,1.046c-2.388,0 -3.584,-1.625 -3.584,-4.871c0,-2.9 1.063,-4.462 3.184,-4.7c15.521,-1.621 26.096,-4.112 31.733,-7.479c5.638,-3.367 8.454,-9.746 8.454,-19.142l0,-2.783l-8.354,-168.596l-95.896,210.354c-0.796,1.854 -2.654,2.784 -5.571,2.784c-3.05,0 -4.841,-0.93 -5.371,-2.784l-90.325,-202.004l-14.325,160.392c-0.262,1.975 -0.395,3.721 -0.395,5.225c0,7.783 3.05,13.354 9.15,16.721c6.1,3.366 16.979,5.804 32.629,7.312c1.858,0.229 2.787,1.825 2.787,4.783c0,3.192 -1.196,4.788 -3.583,4.788c-6.896,0 -16.313,-0.35 -28.25,-1.046c-11.113,-0.696 -19.692,-1.042 -25.729,-1.042c-6.588,0 -15.588,0.346 -26.996,1.042c-11.008,0.696 -19.496,1.046 -25.467,1.046c-1.854,0 -2.783,-1.625 -2.783,-4.871c0,-2.9 1.196,-4.462 3.579,-4.7c16.717,-1.742 28.283,-4.467 34.721,-8.179c6.429,-3.717 10.112,-10.8 11.042,-21.246l20.691,-163.854c0.129,-2.088 0.2,-3.946 0.2,-5.571c0,-7.546 -3.054,-13 -9.154,-16.367c-6.104,-3.362 -17.179,-5.921 -33.225,-7.662c-1.858,0 -2.783,-1.596 -2.783,-4.784c0,-1.141 0.396,-2.22 1.191,-3.245c0.796,-1.03 1.592,-1.542 2.388,-1.542c4.904,0 11.871,0.35 20.892,1.046c7.687,0.696 13.329,1.041 16.908,1.041c4.642,0 11.271,-0.345 19.896,-1.041c8.887,-0.696 15.783,-1.046 20.691,-1.046l85.338,193.242l88.15,-193.242c5.275,0 12.204,0.35 20.788,1.046c7.787,0.696 13.92,1.041 18.408,1.041c5.567,0 12.262,-0.345 20.092,-1.041c8.087,-0.696 15.05,-1.046 20.887,-1.046c2.388,0 3.583,1.596 3.583,4.787c0,3.188 -1.066,4.784 -3.183,4.784c-15.517,1.625 -26.1,4.125 -31.733,7.491c-5.642,3.363 -8.454,9.75 -8.454,19.15l0,2.959l9.15,163.854c0.4,8.125 1.82,13.813 4.275,17.067c2.454,3.25 6.666,5.833 12.637,7.746c5.967,1.916 14.521,3.454 25.663,4.612c2.12,0.238 3.183,1.8 3.183,4.7Z" style="fill:#fff;fill-rule:nonzero;"/><path d="M379.092,248.546c0,3.246 -1.063,4.871 -3.183,4.871c-8.888,0 -19.696,-0.35 -32.43,-1.046c-12.179,-0.696 -22.291,-1.042 -30.341,-1.042c-8.05,0 -17.9,0.346 -29.542,1.042c-12.204,0.696 -22.75,1.046 -31.633,1.046c-2.388,0 -3.584,-1.625 -3.584,-4.871c0,-2.9 1.063,-4.462 3.184,-4.7c15.521,-1.621 26.096,-4.112 31.733,-7.479c5.638,-3.367 8.454,-9.746 8.454,-19.142l0,-2.783l-8.354,-168.596l-95.896,210.354c-0.796,1.854 -2.654,2.784 -5.571,2.784c-3.05,0 -4.841,-0.93 -5.371,-2.784l-90.325,-202.004l-14.325,160.392c-0.262,1.975 -0.395,3.721 -0.395,5.225c0,7.783 3.05,13.354 9.15,16.721c6.1,3.366 16.979,5.804 32.629,7.312c1.858,0.229 2.787,1.825 2.787,4.783c0,3.192 -1.196,4.788 -3.583,4.788c-6.896,0 -16.313,-0.35 -28.25,-1.046c-11.113,-0.696 -19.692,-1.042 -25.729,-1.042c-6.588,0 -15.588,0.346 -26.996,1.042c-11.008,0.696 -19.496,1.046 -25.467,1.046c-1.854,0 -2.783,-1.625 -2.783,-4.871c0,-2.9 1.196,-4.462 3.579,-4.7c16.717,-1.742 28.283,-4.467 34.721,-8.179c6.429,-3.717 10.112,-10.8 11.042,-21.246l20.691,-163.854c0.129,-2.088 0.2,-3.946 0.2,-5.571c0,-7.546 -3.054,-13 -9.154,-16.367c-6.104,-3.362 -17.179,-5.921 -33.225,-7.662c-1.858,0 -2.783,-1.596 -2.783,-4.784c0,-1.141 0.396,-2.22 1.191,-3.245c0.796,-1.03 1.592,-1.542 2.388,-1.542c4.904,0 11.871,0.35 20.892,1.046c7.687,0.696 13.329,1.041 16.908,1.041c4.642,0 11.271,-0.345 19.896,-1.041c8.887,-0.696 15.783,-1.046 20.691,-1.046l85.338,193.242l88.15,-193.242c5.275,0 12.204,0.35 20.788,1.046c7.787,0.696 13.92,1.041 18.408,1.041c5.567,0 12.262,-0.345 20.092,-1.041c8.087,-0.696 15.05,-1.046 20.887,-1.046c2.388,0 3.583,1.596 3.583,4.787c0,3.188 -1.066,4.784 -3.183,4.784c-15.517,1.625 -26.1,4.125 -31.733,7.491c-5.642,3.363 -8.454,9.75 -8.454,19.15l0,2.959l9.15,163.854c0.4,8.125 1.82,13.813 4.275,17.067c2.454,3.25 6.666,5.833 12.637,7.746c5.967,1.916 14.521,3.454 25.663,4.612c2.12,0.238 3.183,1.8 3.183,4.7Z" style="fill:#fff;"/><path d="M663.788,133.713c0,-34.217 -9.45,-62.175 -28.35,-83.863c-18.9,-21.692 -43.738,-32.537 -74.508,-32.537c-30.905,0 -55.742,10.845 -74.505,32.537c-18.77,21.688 -28.154,49.646 -28.154,83.863c0,33.987 9.317,61.504 27.954,82.558c18.63,21.054 43.534,31.579 74.705,31.579c31.037,0 55.937,-10.525 74.708,-31.579c18.767,-21.054 28.15,-48.571 28.15,-82.558Zm43.771,0c0,36.77 -13.529,66.841 -40.588,90.212c-27.058,23.375 -62.404,35.059 -106.041,35.059c-43.638,0 -78.95,-11.684 -105.942,-35.059c-26.992,-23.371 -40.488,-53.442 -40.488,-90.212c0,-36.888 13.596,-67.363 40.788,-91.434c27.187,-24.066 62.4,-36.104 105.642,-36.104c43.375,0 78.65,12.038 105.841,36.104c27.192,24.071 40.788,54.546 40.788,91.434Z" style="fill:#fff;fill-rule:nonzero;"/><path d="M663.788,133.713l2.083,0c0.013,-34.588 -9.587,-63.13 -28.862,-85.234c-19.254,-22.137 -44.825,-33.279 -76.079,-33.25c-31.384,-0.029 -56.959,11.113 -76.08,33.259c-19.145,22.104 -28.675,50.637 -28.662,85.225c-0.013,34.354 9.454,62.462 28.475,83.937c19.008,21.513 44.637,32.309 76.267,32.284c31.5,0.025 57.12,-10.771 76.262,-32.275c19.159,-21.476 28.692,-49.588 28.679,-83.946l-2.083,0l-2.083,0c-0.013,33.616 -9.246,60.541 -27.625,81.171c-18.396,20.6 -42.575,30.854 -73.15,30.883c-30.713,-0.029 -54.888,-10.283 -73.146,-30.879c-18.25,-20.63 -27.417,-47.555 -27.429,-81.175c0.012,-33.85 9.245,-61.225 27.645,-82.5c18.409,-21.234 42.505,-31.788 72.93,-31.817c30.287,0.029 54.391,10.583 72.937,31.821c18.529,21.279 27.825,48.65 27.838,82.496l2.083,0Zm43.771,0l-2.083,0c-0.03,36.262 -13.242,65.6 -39.867,88.637c-26.629,22.996 -61.404,34.542 -104.679,34.55c-43.28,-0.008 -78.017,-11.554 -104.58,-34.55c-26.558,-23.033 -39.737,-52.375 -39.766,-88.637c0.029,-36.375 13.312,-66.134 40.083,-89.875c26.771,-23.684 61.396,-35.563 104.263,-35.575c43,0.012 77.687,11.891 104.462,35.575c26.771,23.741 40.054,53.5 40.084,89.875l4.166,0c0.029,-37.4 -13.883,-68.588 -41.487,-92.992c-27.609,-24.45 -63.48,-36.642 -107.225,-36.629c-43.613,-0.013 -79.421,12.179 -107.021,36.629c-27.613,24.404 -41.521,55.592 -41.492,92.992c-0.029,37.279 13.783,68.079 41.208,91.787c27.417,23.754 63.309,35.579 107.305,35.567c43.995,0.012 79.921,-11.813 107.404,-35.563c27.487,-23.708 41.337,-54.512 41.308,-91.791l-2.083,0Z" style="fill:#fff;fill-rule:nonzero;"/><path d="M921.63,74.029c0,-33.983 -16.913,-50.975 -50.733,-50.975c-11.142,0 -19.6,0.788 -25.367,2.359c-5.771,1.57 -9.617,4.041 -11.538,7.416c-1.925,3.379 -2.887,9.313 -2.887,17.809l0,77.679c7.692,0.933 17.375,1.391 29.046,1.391c21.354,0 36.937,-4.42 46.754,-13.262c9.817,-8.842 14.725,-22.983 14.725,-42.417Zm101.467,174.517c0,3.246 -1.063,4.871 -3.188,4.871c-4.908,0 -12.929,-0.408 -24.071,-1.217c-8.091,-0.583 -13.466,-0.871 -16.112,-0.871c-3.85,0 -9.884,0.346 -18.109,1.042c-8.225,0.696 -14.258,1.046 -18.104,1.046l-60.283,-85.834c-8.488,-11.879 -15.354,-19.508 -20.592,-22.887c-5.241,-3.375 -15.75,-5.067 -31.533,-5.067l0,74.813c0,8.004 1.162,13.658 3.483,16.967c2.317,3.304 6.429,5.916 12.334,7.829c5.9,1.912 14.354,3.45 25.366,4.608c2.254,0.238 3.384,1.8 3.384,4.7c0,3.246 -1.063,4.871 -3.184,4.871c-8.887,0 -19.496,-0.35 -31.833,-1.046c-11.804,-0.696 -21.754,-1.042 -29.842,-1.042c-8.092,0 -17.975,0.346 -29.646,1.042c-12.204,0.696 -22.75,1.046 -31.633,1.046c-2.121,0 -3.183,-1.625 -3.183,-4.871c0,-2.9 1.062,-4.462 3.183,-4.7c11.008,-1.158 19.429,-2.696 25.271,-4.612c5.833,-1.913 9.908,-4.496 12.233,-7.746c2.317,-3.254 3.479,-8.942 3.479,-17.067l0,-163.854c0,-8.009 -1.091,-13.667 -3.283,-16.975c-2.188,-3.309 -6.2,-5.95 -12.033,-7.925c-5.838,-1.971 -14.392,-3.538 -25.667,-4.7c-2.121,0 -3.183,-1.596 -3.183,-4.784c0,-3.191 1.062,-4.787 3.183,-4.787c8.883,0 19.429,0.35 31.633,1.046c11.671,0.696 21.554,1.041 29.646,1.041c8.088,0 18.038,-0.345 29.842,-1.041c12.337,-0.696 22.946,-1.046 31.833,-1.046c29.575,0 52.454,5.412 68.638,16.237c16.183,10.825 24.271,26.025 24.271,45.613c0,12.367 -5.346,23.85 -16.034,34.446c-10.696,10.596 -25.154,18.754 -43.371,24.483l61.28,87.25c5.316,7.621 12.158,13.25 20.533,16.888c8.375,3.633 19.204,6.146 32.5,7.533c1.858,0.238 2.792,1.8 2.792,4.7Z" style="fill:#fff;fill-rule:nonzero;"/><path d="M921.63,74.029c0,-33.983 -16.913,-50.975 -50.733,-50.975c-11.142,0 -19.6,0.788 -25.367,2.359c-5.771,1.57 -9.617,4.041 -11.538,7.416c-1.925,3.379 -2.887,9.313 -2.887,17.809l0,77.679c7.692,0.933 17.375,1.391 29.046,1.391c21.354,0 36.937,-4.42 46.754,-13.262c9.817,-8.842 14.725,-22.983 14.725,-42.417Zm101.467,174.517c0,3.246 -1.063,4.871 -3.188,4.871c-4.908,0 -12.929,-0.408 -24.071,-1.217c-8.091,-0.583 -13.466,-0.871 -16.112,-0.871c-3.85,0 -9.884,0.346 -18.109,1.042c-8.225,0.696 -14.258,1.046 -18.104,1.046l-60.283,-85.834c-8.488,-11.879 -15.354,-19.508 -20.592,-22.887c-5.241,-3.375 -15.75,-5.067 -31.533,-5.067l0,74.813c0,8.004 1.162,13.658 3.483,16.967c2.317,3.304 6.429,5.916 12.334,7.829c5.9,1.912 14.354,3.45 25.366,4.608c2.254,0.238 3.384,1.8 3.384,4.7c0,3.246 -1.063,4.871 -3.184,4.871c-8.887,0 -19.496,-0.35 -31.833,-1.046c-11.804,-0.696 -21.754,-1.042 -29.842,-1.042c-8.092,0 -17.975,0.346 -29.646,1.042c-12.204,0.696 -22.75,1.046 -31.633,1.046c-2.121,0 -3.183,-1.625 -3.183,-4.871c0,-2.9 1.062,-4.462 3.183,-4.7c11.008,-1.158 19.429,-2.696 25.271,-4.612c5.833,-1.913 9.908,-4.496 12.233,-7.746c2.317,-3.254 3.479,-8.942 3.479,-17.067l0,-163.854c0,-8.009 -1.091,-13.667 -3.283,-16.975c-2.188,-3.309 -6.2,-5.95 -12.033,-7.925c-5.838,-1.971 -14.392,-3.538 -25.667,-4.7c-2.121,0 -3.183,-1.596 -3.183,-4.784c0,-3.191 1.062,-4.787 3.183,-4.787c8.883,0 19.429,0.35 31.633,1.046c11.671,0.696 21.554,1.041 29.646,1.041c8.088,0 18.038,-0.345 29.842,-1.041c12.337,-0.696 22.946,-1.046 31.833,-1.046c29.575,0 52.454,5.412 68.638,16.237c16.183,10.825 24.271,26.025 24.271,45.613c0,12.367 -5.346,23.85 -16.034,34.446c-10.696,10.596 -25.154,18.754 -43.371,24.483l61.28,87.25c5.316,7.621 12.158,13.25 20.533,16.888c8.375,3.633 19.204,6.146 32.5,7.533c1.858,0.238 2.792,1.8 2.792,4.7Z" style="fill:#fff;"/><path d="M1222.05,74.029c0,-33.983 -16.913,-50.975 -50.734,-50.975c-11.141,0 -19.595,0.788 -25.366,2.359c-5.771,1.57 -9.617,4.041 -11.538,7.416c-1.929,3.379 -2.891,9.313 -2.891,17.809l0,77.679c7.691,0.933 17.375,1.391 29.054,1.391c21.346,0 36.929,-4.42 46.754,-13.262c9.812,-8.842 14.721,-22.983 14.721,-42.417Zm101.462,174.517c0,3.246 -1.062,4.871 -3.179,4.871c-4.916,0 -12.933,-0.408 -24.075,-1.217c-8.096,-0.583 -13.466,-0.871 -16.121,-0.871c-3.85,0 -9.879,0.346 -18.095,1.042c-8.23,0.696 -14.267,1.046 -18.109,1.046l-60.287,-85.834c-8.488,-11.879 -15.346,-19.508 -20.588,-22.887c-5.242,-3.375 -15.75,-5.067 -31.537,-5.067l0,74.813c0,8.004 1.166,13.658 3.483,16.967c2.321,3.304 6.429,5.916 12.337,7.829c5.9,1.912 14.359,3.45 25.367,4.608c2.254,0.238 3.379,1.8 3.379,4.7c0,3.246 -1.058,4.871 -3.183,4.871c-8.888,0 -19.5,-0.35 -31.829,-1.046c-11.809,-0.696 -21.75,-1.042 -29.842,-1.042c-8.096,0 -17.975,0.346 -29.65,1.042c-12.204,0.696 -22.742,1.046 -31.629,1.046c-2.125,0 -3.183,-1.625 -3.183,-4.871c0,-2.9 1.058,-4.462 3.183,-4.7c11.004,-1.158 19.425,-2.696 25.271,-4.612c5.833,-1.913 9.912,-4.496 12.229,-7.746c2.321,-3.254 3.483,-8.942 3.483,-17.067l0,-163.854c0,-8.009 -1.091,-13.667 -3.283,-16.975c-2.183,-3.309 -6.196,-5.95 -12.033,-7.925c-5.842,-1.971 -14.396,-3.538 -25.667,-4.7c-2.125,0 -3.183,-1.596 -3.183,-4.784c0,-3.191 1.058,-4.787 3.183,-4.787c8.887,0 19.425,0.35 31.629,1.046c11.675,0.696 21.554,1.041 29.65,1.041c8.092,0 18.033,-0.345 29.842,-1.041c12.329,-0.696 22.941,-1.046 31.829,-1.046c29.575,0 52.458,5.412 68.646,16.237c16.175,10.825 24.267,26.025 24.267,45.613c0,12.367 -5.346,23.85 -16.042,34.446c-10.692,10.596 -25.146,18.754 -43.367,24.483l61.279,87.25c5.321,7.621 12.159,13.25 20.534,16.888c8.379,3.633 19.204,6.146 32.504,7.533c1.854,0.238 2.787,1.8 2.787,4.7Z" style="fill:#fff;fill-rule:nonzero;"/><path d="M1222.05,74.029c0,-33.983 -16.913,-50.975 -50.734,-50.975c-11.141,0 -19.595,0.788 -25.366,2.359c-5.771,1.57 -9.617,4.041 -11.538,7.416c-1.929,3.379 -2.891,9.313 -2.891,17.809l0,77.679c7.691,0.933 17.375,1.391 29.054,1.391c21.346,0 36.929,-4.42 46.754,-13.262c9.812,-8.842 14.721,-22.983 14.721,-42.417Zm101.462,174.517c0,3.246 -1.062,4.871 -3.179,4.871c-4.916,0 -12.933,-0.408 -24.075,-1.217c-8.096,-0.583 -13.466,-0.871 -16.121,-0.871c-3.85,0 -9.879,0.346 -18.095,1.042c-8.23,0.696 -14.267,1.046 -18.109,1.046l-60.287,-85.834c-8.488,-11.879 -15.346,-19.508 -20.588,-22.887c-5.242,-3.375 -15.75,-5.067 -31.537,-5.067l0,74.813c0,8.004 1.166,13.658 3.483,16.967c2.321,3.304 6.429,5.916 12.337,7.829c5.9,1.912 14.359,3.45 25.367,4.608c2.254,0.238 3.379,1.8 3.379,4.7c0,3.246 -1.058,4.871 -3.183,4.871c-8.888,0 -19.5,-0.35 -31.829,-1.046c-11.809,-0.696 -21.75,-1.042 -29.842,-1.042c-8.096,0 -17.975,0.346 -29.65,1.042c-12.204,0.696 -22.742,1.046 -31.629,1.046c-2.125,0 -3.183,-1.625 -3.183,-4.871c0,-2.9 1.058,-4.462 3.183,-4.7c11.004,-1.158 19.425,-2.696 25.271,-4.612c5.833,-1.913 9.912,-4.496 12.229,-7.746c2.321,-3.254 3.483,-8.942 3.483,-17.067l0,-163.854c0,-8.009 -1.091,-13.667 -3.283,-16.975c-2.183,-3.309 -6.196,-5.95 -12.033,-7.925c-5.842,-1.971 -14.396,-3.538 -25.667,-4.7c-2.125,0 -3.183,-1.596 -3.183,-4.784c0,-3.191 1.058,-4.787 3.183,-4.787c8.887,0 19.425,0.35 31.629,1.046c11.675,0.696 21.554,1.041 29.65,1.041c8.092,0 18.033,-0.345 29.842,-1.041c12.329,-0.696 22.941,-1.046 31.829,-1.046c29.575,0 52.458,5.412 68.646,16.237c16.175,10.825 24.267,26.025 24.267,45.613c0,12.367 -5.346,23.85 -16.042,34.446c-10.692,10.596 -25.146,18.754 -43.367,24.483l61.279,87.25c5.321,7.621 12.159,13.25 20.534,16.888c8.379,3.633 19.204,6.146 32.504,7.533c1.854,0.238 2.787,1.8 2.787,4.7Z" style="fill:#fff;"/><path d="M1488.04,248.546c0,3.246 -1.063,4.871 -3.183,4.871c-8.888,0 -19.434,-0.35 -31.634,-1.046c-11.671,-0.696 -21.558,-1.042 -29.646,-1.042c-8.087,0 -17.971,0.346 -29.641,1.042c-12.334,0.696 -23.017,1.046 -32.034,1.046c-2.121,0 -3.179,-1.625 -3.179,-4.871c0,-2.9 1.058,-4.462 3.179,-4.7c16.05,-1.625 26.959,-4.233 32.729,-7.833c5.771,-3.6 8.655,-10.796 8.655,-21.592l0,-163.854c0,-8.121 -1.163,-13.842 -3.484,-17.15c-2.321,-3.309 -6.4,-5.921 -12.237,-7.838c-5.834,-1.912 -14.392,-3.45 -25.663,-4.612c-2.121,0 -3.179,-1.596 -3.179,-4.784c0,-3.191 1.058,-4.787 3.179,-4.787c9.017,0 19.7,0.35 32.034,1.046c11.67,0.696 21.554,1.041 29.641,1.041c8.088,0 17.975,-0.345 29.646,-1.041c12.2,-0.696 22.746,-1.046 31.634,-1.046c2.12,0 3.183,1.596 3.183,4.787c0,3.188 -1.063,4.784 -3.183,4.784c-11.142,1.162 -19.634,2.7 -25.467,4.612c-5.838,1.917 -9.879,4.5 -12.134,7.754c-2.258,3.25 -3.383,8.992 -3.383,17.234l0,163.854c0,8.008 1.125,13.671 3.383,16.979c2.255,3.309 6.267,5.921 12.034,7.834c5.771,1.916 14.225,3.454 25.367,4.612c2.254,0.238 3.383,1.8 3.383,4.7Z" style="fill:#fff;fill-rule:nonzero;"/><path d="M1488.04,248.546c0,3.246 -1.063,4.871 -3.183,4.871c-8.888,0 -19.434,-0.35 -31.634,-1.046c-11.671,-0.696 -21.558,-1.042 -29.646,-1.042c-8.087,0 -17.971,0.346 -29.641,1.042c-12.334,0.696 -23.017,1.046 -32.034,1.046c-2.121,0 -3.179,-1.625 -3.179,-4.871c0,-2.9 1.058,-4.462 3.179,-4.7c16.05,-1.625 26.959,-4.233 32.729,-7.833c5.771,-3.6 8.655,-10.796 8.655,-21.592l0,-163.854c0,-8.121 -1.163,-13.842 -3.484,-17.15c-2.321,-3.309 -6.4,-5.921 -12.237,-7.838c-5.834,-1.912 -14.392,-3.45 -25.663,-4.612c-2.121,0 -3.179,-1.596 -3.179,-4.784c0,-3.191 1.058,-4.787 3.179,-4.787c9.017,0 19.7,0.35 32.034,1.046c11.67,0.696 21.554,1.041 29.641,1.041c8.088,0 17.975,-0.345 29.646,-1.041c12.2,-0.696 22.746,-1.046 31.634,-1.046c2.12,0 3.183,1.596 3.183,4.787c0,3.188 -1.063,4.784 -3.183,4.784c-11.142,1.162 -19.634,2.7 -25.467,4.612c-5.838,1.917 -9.879,4.5 -12.134,7.754c-2.258,3.25 -3.383,8.992 -3.383,17.234l0,163.854c0,8.008 1.125,13.671 3.383,16.979c2.255,3.309 6.267,5.921 12.034,7.834c5.771,1.916 14.225,3.454 25.367,4.612c2.254,0.238 3.383,1.8 3.383,4.7Z" style="fill:#fff;"/><path d="M1708.08,183.471c0,23.083 -7.837,41.442 -23.504,55.071c-15.671,13.629 -36.85,20.442 -63.542,20.442c-11.816,0 -25.958,-1.859 -42.42,-5.567c-15.009,-3.479 -27.292,-5.221 -36.855,-5.221c-0.795,-19.717 -2.391,-39.433 -4.779,-59.154c0,-1.854 1.988,-2.784 5.971,-2.784c2.783,0 4.508,0.93 5.171,2.784c7.171,21.571 16.337,36.771 27.496,45.583c11.158,8.817 26.808,13.225 46.954,13.225c16.033,0 28.458,-4.058 37.271,-12.179c8.812,-8.121 13.221,-19.487 13.221,-34.104c0,-9.396 -3.85,-18.121 -11.538,-26.184c-7.696,-8.062 -24.075,-18.47 -49.142,-31.233c-28.783,-14.496 -47.616,-26.792 -56.504,-36.883c-8.887,-10.092 -13.329,-21.288 -13.329,-33.579c0,-18.909 8.004,-34.888 24.008,-47.938c16,-13.05 36.288,-19.575 60.859,-19.575c9.291,0 19.987,1.108 32.071,3.308c11.287,1.975 21.05,2.959 29.287,2.959c1.588,20.416 3.713,38.396 6.371,53.937c0,1.854 -1.725,2.784 -5.171,2.784c-3.716,0 -5.771,-0.93 -6.171,-2.784c-4.387,-17.4 -11.025,-29.925 -19.929,-37.583c-8.904,-7.654 -21.217,-11.483 -36.937,-11.483c-14.925,0 -26.788,3.829 -35.58,11.483c-8.8,7.658 -13.195,17.983 -13.195,30.971c0,8.237 3.687,16.096 11.079,23.575c7.379,7.479 23.375,17.487 47.991,30.012c29.138,14.85 48.23,27.263 57.276,37.234c9.041,9.979 13.57,20.941 13.57,32.883Z" style="fill:#fff;fill-rule:nonzero;"/><path d="M1708.08,183.471c0,23.083 -7.837,41.442 -23.504,55.071c-15.671,13.629 -36.85,20.442 -63.542,20.442c-11.816,0 -25.958,-1.859 -42.42,-5.567c-15.009,-3.479 -27.292,-5.221 -36.855,-5.221c-0.795,-19.717 -2.391,-39.433 -4.779,-59.154c0,-1.854 1.988,-2.784 5.971,-2.784c2.783,0 4.508,0.93 5.171,2.784c7.171,21.571 16.337,36.771 27.496,45.583c11.158,8.817 26.808,13.225 46.954,13.225c16.033,0 28.458,-4.058 37.271,-12.179c8.812,-8.121 13.221,-19.487 13.221,-34.104c0,-9.396 -3.85,-18.121 -11.538,-26.184c-7.696,-8.062 -24.075,-18.47 -49.142,-31.233c-28.783,-14.496 -47.616,-26.792 -56.504,-36.883c-8.887,-10.092 -13.329,-21.288 -13.329,-33.579c0,-18.909 8.004,-34.888 24.008,-47.938c16,-13.05 36.288,-19.575 60.859,-19.575c9.291,0 19.987,1.108 32.071,3.308c11.287,1.975 21.05,2.959 29.287,2.959c1.588,20.416 3.713,38.396 6.371,53.937c0,1.854 -1.725,2.784 -5.171,2.784c-3.716,0 -5.771,-0.93 -6.171,-2.784c-4.387,-17.4 -11.025,-29.925 -19.929,-37.583c-8.904,-7.654 -21.217,-11.483 -36.937,-11.483c-14.925,0 -26.788,3.829 -35.58,11.483c-8.8,7.658 -13.195,17.983 -13.195,30.971c0,8.237 3.687,16.096 11.079,23.575c7.379,7.479 23.375,17.487 47.991,30.012c29.138,14.85 48.23,27.263 57.276,37.234c9.041,9.979 13.57,20.941 13.57,32.883Z" style="fill:#fff;"/><path d="M1056.59,384.35c-1.188,5.217 -2.342,10.759 -3.459,16.629c-1.879,0 -5.291,0.442 -10.229,1.321c-6.329,1.142 -11.008,1.713 -14.033,1.713c-7.513,0 -14.105,-1.467 -19.771,-4.404c-5.667,-2.934 -10.079,-7.134 -13.242,-12.592c-3.162,-5.463 -4.746,-11.538 -4.746,-18.221c0,-6.587 1.671,-12.658 5.017,-18.217c3.346,-5.562 7.946,-9.887 13.812,-12.987c5.863,-3.1 12.471,-4.646 19.813,-4.646c3.1,0 7.25,0.325 12.458,0.979c4.05,0.521 6.996,0.779 8.846,0.779c0.425,4.567 1.184,10.109 2.271,16.63c0,0.525 -0.525,0.783 -1.579,0.783c-0.658,0 -1.058,-0.258 -1.188,-0.783c-1.187,-4.434 -3.741,-8.084 -7.658,-10.955c-3.925,-2.87 -8.438,-4.304 -13.542,-4.304c-7.746,0 -14.241,3.163 -19.496,9.488c-5.254,6.329 -7.883,14.071 -7.883,23.233c0,8.9 2.604,16.475 7.808,22.717c5.205,6.246 11.567,9.366 19.08,9.366c11.758,0 20.091,-5.508 25.004,-16.529c0.225,-0.521 0.675,-0.783 1.333,-0.783c0.921,0 1.384,0.262 1.384,0.783Z" style="fill:#fff;fill-rule:nonzero;"/><path d="M1056.59,384.35c-1.188,5.217 -2.342,10.759 -3.459,16.629c-1.879,0 -5.291,0.442 -10.229,1.321c-6.329,1.142 -11.008,1.713 -14.033,1.713c-7.513,0 -14.105,-1.467 -19.771,-4.404c-5.667,-2.934 -10.079,-7.134 -13.242,-12.592c-3.162,-5.463 -4.746,-11.538 -4.746,-18.221c0,-6.587 1.671,-12.658 5.017,-18.217c3.346,-5.562 7.946,-9.887 13.812,-12.987c5.863,-3.1 12.471,-4.646 19.813,-4.646c3.1,0 7.25,0.325 12.458,0.979c4.05,0.521 6.996,0.779 8.846,0.779c0.425,4.567 1.184,10.109 2.271,16.63c0,0.525 -0.525,0.783 -1.579,0.783c-0.658,0 -1.058,-0.258 -1.188,-0.783c-1.187,-4.434 -3.741,-8.084 -7.658,-10.955c-3.925,-2.87 -8.438,-4.304 -13.542,-4.304c-7.746,0 -14.241,3.163 -19.496,9.488c-5.254,6.329 -7.883,14.071 -7.883,23.233c0,8.9 2.604,16.475 7.808,22.717c5.205,6.246 11.567,9.366 19.08,9.366c11.758,0 20.091,-5.508 25.004,-16.529c0.225,-0.521 0.675,-0.783 1.333,-0.783c0.921,0 1.384,0.262 1.384,0.783Z" style="fill:#fff;"/><path d="M1128.04,368.796c0,-9.617 -2.346,-17.479 -7.038,-23.575c-4.696,-6.096 -10.867,-9.146 -18.508,-9.146c-7.675,0 -13.846,3.05 -18.509,9.146c-4.658,6.096 -6.991,13.958 -6.991,23.575c0,9.554 2.316,17.292 6.937,23.208c4.634,5.917 10.821,8.875 18.563,8.875c7.708,0 13.891,-2.958 18.558,-8.875c4.658,-5.916 6.988,-13.654 6.988,-23.208Zm10.875,0c0,10.338 -3.363,18.792 -10.08,25.363c-6.725,6.566 -15.504,9.854 -26.341,9.854c-10.842,0 -19.613,-3.288 -26.313,-9.854c-6.708,-6.571 -10.058,-15.025 -10.058,-25.363c0,-10.371 3.379,-18.937 10.133,-25.704c6.754,-6.763 15.496,-10.146 26.238,-10.146c10.771,0 19.537,3.383 26.291,10.146c6.75,6.767 10.13,15.333 10.13,25.704Z" style="fill:#fff;fill-rule:nonzero;"/><path d="M1128.04,368.796c0,-9.617 -2.346,-17.479 -7.038,-23.575c-4.696,-6.096 -10.867,-9.146 -18.508,-9.146c-7.675,0 -13.846,3.05 -18.509,9.146c-4.658,6.096 -6.991,13.958 -6.991,23.575c0,9.554 2.316,17.292 6.937,23.208c4.634,5.917 10.821,8.875 18.563,8.875c7.708,0 13.891,-2.958 18.558,-8.875c4.658,-5.916 6.988,-13.654 6.988,-23.208Zm10.875,0c0,10.338 -3.363,18.792 -10.08,25.363c-6.725,6.566 -15.504,9.854 -26.341,9.854c-10.842,0 -19.613,-3.288 -26.313,-9.854c-6.708,-6.571 -10.058,-15.025 -10.058,-25.363c0,-10.371 3.379,-18.937 10.133,-25.704c6.754,-6.763 15.496,-10.146 26.238,-10.146c10.771,0 19.537,3.383 26.291,10.146c6.75,6.767 10.13,15.333 10.13,25.704Z" style="fill:#fff;"/><path d="M1230.63,335.779c0,0.817 -0.262,1.259 -0.791,1.321c-4.117,0.459 -6.942,1.209 -8.471,2.254c-1.534,1.046 -2.334,3.055 -2.396,6.025l-1.092,57.655c0,0.65 -0.396,0.979 -1.183,0.979c-0.396,0 -0.925,-0.263 -1.583,-0.784l-50.95,-56.979l-0.692,45.242l-0.046,0.733c0,2.479 0.788,4.229 2.371,5.259c1.583,1.025 4.429,1.783 8.55,2.27c0.525,0.071 0.787,0.509 0.787,1.321c0,0.917 -0.262,1.371 -0.787,1.371c-1.717,0 -4.071,-0.096 -7.071,-0.292c-2.8,-0.195 -4.954,-0.295 -6.471,-0.295c-1.65,0 -3.871,0.1 -6.671,0.295c-2.7,0.196 -4.791,0.292 -6.275,0.292c-0.529,0 -0.791,-0.454 -0.791,-1.371c0,-0.812 0.296,-1.25 0.891,-1.321c4.084,-0.487 6.884,-1.245 8.396,-2.27c1.521,-1.034 2.325,-3.03 2.421,-6l1.733,-46.063l0,-0.437c0,-2.642 -0.775,-4.488 -2.32,-5.534c-1.55,-1.041 -4.434,-1.825 -8.65,-2.35c-0.463,0 -0.692,-0.446 -0.692,-1.341c0,-0.896 0.262,-1.346 0.792,-1.346c1.15,0 2.766,0.096 4.841,0.291c1.842,0.196 3.225,0.296 4.15,0.296c1.154,0 2.538,-0.1 4.15,-0.296c1.65,-0.195 3.067,-0.291 4.254,-0.291l47.588,52.675l0,-41.704c0,-2.775 -0.804,-4.73 -2.4,-5.855c-1.596,-1.129 -4.554,-1.937 -8.867,-2.429c-0.529,-0.062 -0.791,-0.504 -0.791,-1.321c0,-0.908 0.262,-1.366 0.791,-1.366c1.775,0 4.15,0.096 7.117,0.291c2.767,0.196 4.904,0.296 6.421,0.296c1.646,0 3.871,-0.1 6.671,-0.296c2.704,-0.195 4.795,-0.291 6.275,-0.291c0.529,0 0.791,0.458 0.791,1.366Z" style="fill:#fff;fill-rule:nonzero;"/><path d="M1230.63,335.779c0,0.817 -0.262,1.259 -0.791,1.321c-4.117,0.459 -6.942,1.209 -8.471,2.254c-1.534,1.046 -2.334,3.055 -2.396,6.025l-1.092,57.655c0,0.65 -0.396,0.979 -1.183,0.979c-0.396,0 -0.925,-0.263 -1.583,-0.784l-50.95,-56.979l-0.692,45.242l-0.046,0.733c0,2.479 0.788,4.229 2.371,5.259c1.583,1.025 4.429,1.783 8.55,2.27c0.525,0.071 0.787,0.509 0.787,1.321c0,0.917 -0.262,1.371 -0.787,1.371c-1.717,0 -4.071,-0.096 -7.071,-0.292c-2.8,-0.195 -4.954,-0.295 -6.471,-0.295c-1.65,0 -3.871,0.1 -6.671,0.295c-2.7,0.196 -4.791,0.292 -6.275,0.292c-0.529,0 -0.791,-0.454 -0.791,-1.371c0,-0.812 0.296,-1.25 0.891,-1.321c4.084,-0.487 6.884,-1.245 8.396,-2.27c1.521,-1.034 2.325,-3.03 2.421,-6l1.733,-46.063l0,-0.437c0,-2.642 -0.775,-4.488 -2.32,-5.534c-1.55,-1.041 -4.434,-1.825 -8.65,-2.35c-0.463,0 -0.692,-0.446 -0.692,-1.341c0,-0.896 0.262,-1.346 0.792,-1.346c1.15,0 2.766,0.096 4.841,0.291c1.842,0.196 3.225,0.296 4.15,0.296c1.154,0 2.538,-0.1 4.15,-0.296c1.65,-0.195 3.067,-0.291 4.254,-0.291l47.588,52.675l0,-41.704c0,-2.775 -0.804,-4.73 -2.4,-5.855c-1.596,-1.129 -4.554,-1.937 -8.867,-2.429c-0.529,-0.062 -0.791,-0.504 -0.791,-1.321c0,-0.908 0.262,-1.366 0.791,-1.366c1.775,0 4.15,0.096 7.117,0.291c2.767,0.196 4.904,0.296 6.421,0.296c1.646,0 3.871,-0.1 6.671,-0.296c2.704,-0.195 4.795,-0.291 6.275,-0.291c0.529,0 0.791,0.458 0.791,1.366Z" style="fill:#fff;"/><path d="M1279.9,382.784c0,6.491 -1.946,11.65 -5.837,15.483c-3.892,3.829 -9.155,5.746 -15.784,5.746c-2.933,0 -6.45,-0.525 -10.537,-1.567c-3.73,-0.975 -6.78,-1.467 -9.15,-1.467c-0.2,-5.541 -0.596,-11.087 -1.192,-16.629c0,-0.521 0.5,-0.783 1.483,-0.783c0.692,0 1.121,0.262 1.288,0.783c1.779,6.067 4.054,10.338 6.829,12.813c2.771,2.479 6.658,3.716 11.663,3.716c3.979,0 7.066,-1.137 9.258,-3.42c2.187,-2.284 3.283,-5.48 3.283,-9.588c0,-2.642 -0.958,-5.096 -2.866,-7.362c-1.913,-2.263 -5.98,-5.192 -12.205,-8.78c-7.15,-4.075 -11.829,-7.529 -14.037,-10.366c-2.209,-2.838 -3.313,-5.984 -3.313,-9.442c0,-5.312 1.992,-9.804 5.963,-13.475c3.975,-3.667 9.017,-5.5 15.121,-5.5c2.308,0 4.962,0.308 7.962,0.929c2.804,0.554 5.229,0.829 7.275,0.829c0.396,5.742 0.925,10.792 1.584,15.163c0,0.525 -0.425,0.783 -1.284,0.783c-0.925,0 -1.433,-0.258 -1.533,-0.783c-1.088,-4.892 -2.738,-8.413 -4.95,-10.563c-2.208,-2.154 -5.271,-3.229 -9.175,-3.229c-3.708,0 -6.654,1.075 -8.838,3.229c-2.187,2.15 -3.275,5.055 -3.275,8.705c0,2.316 0.913,4.525 2.75,6.629c1.834,2.104 5.805,4.916 11.921,8.437c7.234,4.175 11.979,7.663 14.225,10.467c2.246,2.804 3.371,5.887 3.371,9.242Z" style="fill:#fff;fill-rule:nonzero;"/><path d="M1279.9,382.784c0,6.491 -1.946,11.65 -5.837,15.483c-3.892,3.829 -9.155,5.746 -15.784,5.746c-2.933,0 -6.45,-0.525 -10.537,-1.567c-3.73,-0.975 -6.78,-1.467 -9.15,-1.467c-0.2,-5.541 -0.596,-11.087 -1.192,-16.629c0,-0.521 0.5,-0.783 1.483,-0.783c0.692,0 1.121,0.262 1.288,0.783c1.779,6.067 4.054,10.338 6.829,12.813c2.771,2.479 6.658,3.716 11.663,3.716c3.979,0 7.066,-1.137 9.258,-3.42c2.187,-2.284 3.283,-5.48 3.283,-9.588c0,-2.642 -0.958,-5.096 -2.866,-7.362c-1.913,-2.263 -5.98,-5.192 -12.205,-8.78c-7.15,-4.075 -11.829,-7.529 -14.037,-10.366c-2.209,-2.838 -3.313,-5.984 -3.313,-9.442c0,-5.312 1.992,-9.804 5.963,-13.475c3.975,-3.667 9.017,-5.5 15.121,-5.5c2.308,0 4.962,0.308 7.962,0.929c2.804,0.554 5.229,0.829 7.275,0.829c0.396,5.742 0.925,10.792 1.584,15.163c0,0.525 -0.425,0.783 -1.284,0.783c-0.925,0 -1.433,-0.258 -1.533,-0.783c-1.088,-4.892 -2.738,-8.413 -4.95,-10.563c-2.208,-2.154 -5.271,-3.229 -9.175,-3.229c-3.708,0 -6.654,1.075 -8.838,3.229c-2.187,2.15 -3.275,5.055 -3.275,8.705c0,2.316 0.913,4.525 2.75,6.629c1.834,2.104 5.805,4.916 11.921,8.437c7.234,4.175 11.979,7.663 14.225,10.467c2.246,2.804 3.371,5.887 3.371,9.242Z" style="fill:#fff;"/><path d="M1361.93,335.759c0,0.895 -0.262,1.341 -0.787,1.341c-4.15,0.525 -6.938,1.284 -8.354,2.279c-1.417,0.992 -2.125,3.009 -2.125,6.042l0,30.692c0,8.712 -2.125,15.541 -6.367,20.483c-4.25,4.946 -10.238,7.417 -17.971,7.417c-8.821,0 -15.7,-2.359 -20.637,-7.075c-4.934,-4.713 -7.405,-11.134 -7.405,-19.259l0,-32.258c0,-2.25 -0.275,-3.837 -0.82,-4.771c-0.538,-0.929 -1.538,-1.671 -2.984,-2.225c-1.454,-0.558 -3.579,-0.996 -6.379,-1.325c-0.525,0 -0.787,-0.446 -0.787,-1.341c0,-0.896 0.262,-1.346 0.787,-1.346c2.208,0 4.829,0.096 7.858,0.291c2.896,0.196 5.355,0.296 7.367,0.296c2.004,0 4.479,-0.1 7.408,-0.296c3.063,-0.195 5.7,-0.291 7.909,-0.291c0.525,0 0.791,0.45 0.791,1.346c0,0.895 -0.266,1.341 -0.791,1.341c-2.8,0.329 -4.925,0.763 -6.375,1.3c-1.45,0.538 -2.467,1.275 -3.038,2.204c-0.579,0.93 -0.866,2.538 -0.866,4.821l0,30.884c0,8.029 1.533,13.92 4.595,17.67c3.067,3.755 8.055,5.63 14.975,5.63c13.013,0 19.521,-8.159 19.521,-24.475l0,-29.709c0,-3.037 -0.737,-5.066 -2.204,-6.096c-1.462,-1.029 -4.221,-1.77 -8.275,-2.229c-0.529,0 -0.792,-0.446 -0.792,-1.341c0,-0.896 0.263,-1.346 0.788,-1.346c1.512,0 3.5,0.096 5.962,0.291c2.525,0.196 4.575,0.296 6.155,0.296c1.575,0 3.554,-0.1 5.925,-0.296c2.437,-0.195 4.479,-0.291 6.129,-0.291c0.525,0 0.787,0.45 0.787,1.346Z" style="fill:#fff;fill-rule:nonzero;"/><path d="M1361.93,335.759c0,0.895 -0.262,1.341 -0.787,1.341c-4.15,0.525 -6.938,1.284 -8.354,2.279c-1.417,0.992 -2.125,3.009 -2.125,6.042l0,30.692c0,8.712 -2.125,15.541 -6.367,20.483c-4.25,4.946 -10.238,7.417 -17.971,7.417c-8.821,0 -15.7,-2.359 -20.637,-7.075c-4.934,-4.713 -7.405,-11.134 -7.405,-19.259l0,-32.258c0,-2.25 -0.275,-3.837 -0.82,-4.771c-0.538,-0.929 -1.538,-1.671 -2.984,-2.225c-1.454,-0.558 -3.579,-0.996 -6.379,-1.325c-0.525,0 -0.787,-0.446 -0.787,-1.341c0,-0.896 0.262,-1.346 0.787,-1.346c2.208,0 4.829,0.096 7.858,0.291c2.896,0.196 5.355,0.296 7.367,0.296c2.004,0 4.479,-0.1 7.408,-0.296c3.063,-0.195 5.7,-0.291 7.909,-0.291c0.525,0 0.791,0.45 0.791,1.346c0,0.895 -0.266,1.341 -0.791,1.341c-2.8,0.329 -4.925,0.763 -6.375,1.3c-1.45,0.538 -2.467,1.275 -3.038,2.204c-0.579,0.93 -0.866,2.538 -0.866,4.821l0,30.884c0,8.029 1.533,13.92 4.595,17.67c3.067,3.755 8.055,5.63 14.975,5.63c13.013,0 19.521,-8.159 19.521,-24.475l0,-29.709c0,-3.037 -0.737,-5.066 -2.204,-6.096c-1.462,-1.029 -4.221,-1.77 -8.275,-2.229c-0.529,0 -0.792,-0.446 -0.792,-1.341c0,-0.896 0.263,-1.346 0.788,-1.346c1.512,0 3.5,0.096 5.962,0.291c2.525,0.196 4.575,0.296 6.155,0.296c1.575,0 3.554,-0.1 5.925,-0.296c2.437,-0.195 4.479,-0.291 6.129,-0.291c0.525,0 0.787,0.45 0.787,1.346Z" style="fill:#fff;"/><path d="M1426.32,384.45c-1.55,5.738 -2.767,11.738 -3.659,17.996c-12.616,-0.392 -21.591,-0.587 -26.933,-0.587c-5.267,0 -14.129,0.195 -26.579,0.587c-0.529,0 -0.796,-0.454 -0.796,-1.371c0,-0.812 0.267,-1.25 0.796,-1.321c3.983,-0.454 6.692,-1.187 8.125,-2.2c1.437,-1.012 2.15,-3.033 2.15,-6.07l0,-46.063c0,-2.279 -0.288,-3.887 -0.867,-4.817c-0.575,-0.929 -1.587,-1.666 -3.037,-2.204c-1.45,-0.541 -3.575,-0.971 -6.371,-1.3c-0.529,0 -0.796,-0.446 -0.796,-1.341c0,-0.896 0.267,-1.346 0.796,-1.346c2.204,0 4.842,0.096 7.904,0.291c2.929,0.196 5.404,0.296 7.408,0.296c2.013,0 4.467,-0.1 7.367,-0.296c3.033,-0.195 5.646,-0.291 7.858,-0.291c0.525,0 0.788,0.45 0.788,1.346c0,0.895 -0.263,1.341 -0.788,1.341c-2.766,0.329 -4.875,0.763 -6.329,1.3c-1.45,0.538 -2.454,1.263 -3.012,2.179c-0.559,0.913 -0.842,2.53 -0.842,4.846l0,47.529c0,3.85 1.913,5.775 5.733,5.775l9.788,0c4.05,0 7.475,-1.066 10.279,-3.204c2.8,-2.133 5.567,-6.121 8.3,-11.958c0.129,-0.258 0.442,-0.392 0.942,-0.392c0.425,0 0.829,0.134 1.208,0.392c0.375,0.262 0.567,0.554 0.567,0.883Z" style="fill:#fff;fill-rule:nonzero;"/><path d="M1426.32,384.45c-1.55,5.738 -2.767,11.738 -3.659,17.996c-12.616,-0.392 -21.591,-0.587 -26.933,-0.587c-5.267,0 -14.129,0.195 -26.579,0.587c-0.529,0 -0.796,-0.454 -0.796,-1.371c0,-0.812 0.267,-1.25 0.796,-1.321c3.983,-0.454 6.692,-1.187 8.125,-2.2c1.437,-1.012 2.15,-3.033 2.15,-6.07l0,-46.063c0,-2.279 -0.288,-3.887 -0.867,-4.817c-0.575,-0.929 -1.587,-1.666 -3.037,-2.204c-1.45,-0.541 -3.575,-0.971 -6.371,-1.3c-0.529,0 -0.796,-0.446 -0.796,-1.341c0,-0.896 0.267,-1.346 0.796,-1.346c2.204,0 4.842,0.096 7.904,0.291c2.929,0.196 5.404,0.296 7.408,0.296c2.013,0 4.467,-0.1 7.367,-0.296c3.033,-0.195 5.646,-0.291 7.858,-0.291c0.525,0 0.788,0.45 0.788,1.346c0,0.895 -0.263,1.341 -0.788,1.341c-2.766,0.329 -4.875,0.763 -6.329,1.3c-1.45,0.538 -2.454,1.263 -3.012,2.179c-0.559,0.913 -0.842,2.53 -0.842,4.846l0,47.529c0,3.85 1.913,5.775 5.733,5.775l9.788,0c4.05,0 7.475,-1.066 10.279,-3.204c2.8,-2.133 5.567,-6.121 8.3,-11.958c0.129,-0.258 0.442,-0.392 0.942,-0.392c0.425,0 0.829,0.134 1.208,0.392c0.375,0.262 0.567,0.554 0.567,0.883Z" style="fill:#fff;"/><path d="M1490.41,350.504c0,0.621 -0.592,0.93 -1.779,0.93c-0.53,0 -0.859,-0.23 -0.988,-0.684c-1.421,-4.6 -3.442,-7.854 -6.079,-9.758c-2.638,-1.908 -6.538,-2.863 -11.708,-2.863l-4.65,0c-1.613,0 -2.717,0.263 -3.313,0.784c-0.587,0.521 -0.887,1.5 -0.887,2.933l0,49.646c0,2.25 0.291,3.837 0.862,4.767c0.579,0.929 1.6,1.662 3.067,2.2c1.462,0.541 3.566,0.97 6.304,1.295c0.525,0.071 0.787,0.509 0.787,1.321c0,0.917 -0.262,1.371 -0.787,1.371c-2.213,0 -4.846,-0.096 -7.908,-0.292c-2.909,-0.195 -5.338,-0.295 -7.292,-0.295c-2.017,0 -4.496,0.1 -7.434,0.295c-3.062,0.196 -5.7,0.292 -7.912,0.292c-0.525,0 -0.788,-0.454 -0.788,-1.371c0,-0.812 0.263,-1.25 0.788,-1.321c3.987,-0.454 6.7,-1.187 8.133,-2.2c1.429,-1.008 2.146,-3.029 2.146,-6.062l0,-49.646c0,-1.433 -0.292,-2.412 -0.887,-2.933c-0.592,-0.521 -1.713,-0.784 -3.359,-0.784l-3.854,0c-4.646,0 -8.862,1.167 -12.65,3.496c-3.787,2.334 -6.262,5.359 -7.417,9.075c-0.166,0.488 -0.525,0.734 -1.083,0.734c-1.121,0 -1.683,-0.359 -1.683,-1.08c1.846,-4.92 3.591,-10.495 5.237,-16.725c4.484,0.913 14.738,1.371 30.763,1.371c16.45,0 26.921,-0.458 31.404,-1.371c0.463,4.238 1.45,9.867 2.967,16.875Z" style="fill:#fff;fill-rule:nonzero;"/><path d="M1490.41,350.504c0,0.621 -0.592,0.93 -1.779,0.93c-0.53,0 -0.859,-0.23 -0.988,-0.684c-1.421,-4.6 -3.442,-7.854 -6.079,-9.758c-2.638,-1.908 -6.538,-2.863 -11.708,-2.863l-4.65,0c-1.613,0 -2.717,0.263 -3.313,0.784c-0.587,0.521 -0.887,1.5 -0.887,2.933l0,49.646c0,2.25 0.291,3.837 0.862,4.767c0.579,0.929 1.6,1.662 3.067,2.2c1.462,0.541 3.566,0.97 6.304,1.295c0.525,0.071 0.787,0.509 0.787,1.321c0,0.917 -0.262,1.371 -0.787,1.371c-2.213,0 -4.846,-0.096 -7.908,-0.292c-2.909,-0.195 -5.338,-0.295 -7.292,-0.295c-2.017,0 -4.496,0.1 -7.434,0.295c-3.062,0.196 -5.7,0.292 -7.912,0.292c-0.525,0 -0.788,-0.454 -0.788,-1.371c0,-0.812 0.263,-1.25 0.788,-1.321c3.987,-0.454 6.7,-1.187 8.133,-2.2c1.429,-1.008 2.146,-3.029 2.146,-6.062l0,-49.646c0,-1.433 -0.292,-2.412 -0.887,-2.933c-0.592,-0.521 -1.713,-0.784 -3.359,-0.784l-3.854,0c-4.646,0 -8.862,1.167 -12.65,3.496c-3.787,2.334 -6.262,5.359 -7.417,9.075c-0.166,0.488 -0.525,0.734 -1.083,0.734c-1.121,0 -1.683,-0.359 -1.683,-1.08c1.846,-4.92 3.591,-10.495 5.237,-16.725c4.484,0.913 14.738,1.371 30.763,1.371c16.45,0 26.921,-0.458 31.404,-1.371c0.463,4.238 1.45,9.867 2.967,16.875Z" style="fill:#fff;"/><path d="M1530.74,401.075c0,0.917 -0.263,1.371 -0.792,1.371c-2.204,0 -4.825,-0.096 -7.854,-0.292c-2.9,-0.195 -5.354,-0.295 -7.363,-0.295c-2.008,0 -4.466,0.1 -7.366,0.295c-3.063,0.196 -5.717,0.292 -7.955,0.292c-0.529,0 -0.787,-0.454 -0.787,-1.371c0,-0.812 0.258,-1.25 0.787,-1.321c3.984,-0.454 6.696,-1.187 8.13,-2.2c1.433,-1.012 2.15,-3.033 2.15,-6.07l0,-46.063c0,-2.279 -0.288,-3.887 -0.867,-4.817c-0.575,-0.929 -1.588,-1.666 -3.038,-2.204c-1.45,-0.541 -3.575,-0.971 -6.375,-1.3c-0.529,0 -0.787,-0.446 -0.787,-1.341c0,-0.896 0.258,-1.346 0.787,-1.346c2.238,0 4.892,0.096 7.955,0.291c2.9,0.196 5.358,0.296 7.366,0.296c2.009,0 4.463,-0.1 7.363,-0.296c3.029,-0.195 5.65,-0.291 7.854,-0.291c0.529,0 0.792,0.45 0.792,1.346c0,0.895 -0.263,1.341 -0.792,1.341c-2.767,0.329 -4.875,0.759 -6.321,1.3c-1.454,0.538 -2.458,1.263 -3.017,2.179c-0.562,0.913 -0.841,2.53 -0.841,4.842l0,46.063c0,2.254 0.279,3.841 0.841,4.775c0.559,0.929 1.555,1.662 2.992,2.2c1.433,0.537 3.533,0.97 6.3,1.295c0.558,0.071 0.838,0.509 0.838,1.321Z" style="fill:#fff;fill-rule:nonzero;"/><path d="M1530.74,401.075c0,0.917 -0.263,1.371 -0.792,1.371c-2.204,0 -4.825,-0.096 -7.854,-0.292c-2.9,-0.195 -5.354,-0.295 -7.363,-0.295c-2.008,0 -4.466,0.1 -7.366,0.295c-3.063,0.196 -5.717,0.292 -7.955,0.292c-0.529,0 -0.787,-0.454 -0.787,-1.371c0,-0.812 0.258,-1.25 0.787,-1.321c3.984,-0.454 6.696,-1.187 8.13,-2.2c1.433,-1.012 2.15,-3.033 2.15,-6.07l0,-46.063c0,-2.279 -0.288,-3.887 -0.867,-4.817c-0.575,-0.929 -1.588,-1.666 -3.038,-2.204c-1.45,-0.541 -3.575,-0.971 -6.375,-1.3c-0.529,0 -0.787,-0.446 -0.787,-1.341c0,-0.896 0.258,-1.346 0.787,-1.346c2.238,0 4.892,0.096 7.955,0.291c2.9,0.196 5.358,0.296 7.366,0.296c2.009,0 4.463,-0.1 7.363,-0.296c3.029,-0.195 5.65,-0.291 7.854,-0.291c0.529,0 0.792,0.45 0.792,1.346c0,0.895 -0.263,1.341 -0.792,1.341c-2.767,0.329 -4.875,0.759 -6.321,1.3c-1.454,0.538 -2.458,1.263 -3.017,2.179c-0.562,0.913 -0.841,2.53 -0.841,4.842l0,46.063c0,2.254 0.279,3.841 0.841,4.775c0.559,0.929 1.555,1.662 2.992,2.2c1.433,0.537 3.533,0.97 6.3,1.295c0.558,0.071 0.838,0.509 0.838,1.321Z" style="fill:#fff;"/><path d="M1623.79,335.779c0,0.817 -0.263,1.259 -0.792,1.321c-4.117,0.459 -6.942,1.209 -8.471,2.254c-1.537,1.046 -2.333,3.055 -2.4,6.025l-1.083,57.655c0,0.65 -0.396,0.979 -1.188,0.979c-0.4,0 -0.929,-0.263 -1.587,-0.784l-50.942,-56.979l-0.692,45.242l-0.05,0.733c0,2.479 0.788,4.229 2.371,5.259c1.584,1.025 4.434,1.783 8.55,2.27c0.525,0.071 0.792,0.509 0.792,1.321c0,0.917 -0.267,1.371 -0.792,1.371c-1.712,0 -4.066,-0.096 -7.066,-0.292c-2.8,-0.195 -4.959,-0.295 -6.475,-0.295c-1.646,0 -3.871,0.1 -6.671,0.295c-2.7,0.196 -4.792,0.292 -6.271,0.292c-0.529,0 -0.796,-0.454 -0.796,-1.371c0,-0.812 0.296,-1.25 0.892,-1.321c4.087,-0.487 6.883,-1.245 8.4,-2.27c1.516,-1.034 2.321,-3.03 2.421,-6l1.733,-46.063l0,-0.437c0,-2.642 -0.779,-4.488 -2.325,-5.534c-1.55,-1.041 -4.429,-1.825 -8.65,-2.35c-0.458,0 -0.692,-0.446 -0.692,-1.341c0,-0.896 0.263,-1.346 0.792,-1.346c1.154,0 2.767,0.096 4.842,0.291c1.845,0.196 3.229,0.296 4.154,0.296c1.15,0 2.533,-0.1 4.15,-0.296c1.646,-0.195 3.062,-0.291 4.25,-0.291l47.587,52.675l0,-41.704c0,-2.775 -0.796,-4.73 -2.4,-5.855c-1.596,-1.129 -4.55,-1.937 -8.871,-2.429c-0.529,-0.062 -0.787,-0.504 -0.787,-1.321c0,-0.908 0.258,-1.366 0.787,-1.366c1.784,0 4.15,0.096 7.121,0.291c2.767,0.196 4.909,0.296 6.421,0.296c1.646,0 3.875,-0.1 6.675,-0.296c2.7,-0.195 4.792,-0.291 6.271,-0.291c0.529,0 0.792,0.458 0.792,1.366Z" style="fill:#fff;fill-rule:nonzero;"/><path d="M1623.79,335.779c0,0.817 -0.263,1.259 -0.792,1.321c-4.117,0.459 -6.942,1.209 -8.471,2.254c-1.537,1.046 -2.333,3.055 -2.4,6.025l-1.083,57.655c0,0.65 -0.396,0.979 -1.188,0.979c-0.4,0 -0.929,-0.263 -1.587,-0.784l-50.942,-56.979l-0.692,45.242l-0.05,0.733c0,2.479 0.788,4.229 2.371,5.259c1.584,1.025 4.434,1.783 8.55,2.27c0.525,0.071 0.792,0.509 0.792,1.321c0,0.917 -0.267,1.371 -0.792,1.371c-1.712,0 -4.066,-0.096 -7.066,-0.292c-2.8,-0.195 -4.959,-0.295 -6.475,-0.295c-1.646,0 -3.871,0.1 -6.671,0.295c-2.7,0.196 -4.792,0.292 -6.271,0.292c-0.529,0 -0.796,-0.454 -0.796,-1.371c0,-0.812 0.296,-1.25 0.892,-1.321c4.087,-0.487 6.883,-1.245 8.4,-2.27c1.516,-1.034 2.321,-3.03 2.421,-6l1.733,-46.063l0,-0.437c0,-2.642 -0.779,-4.488 -2.325,-5.534c-1.55,-1.041 -4.429,-1.825 -8.65,-2.35c-0.458,0 -0.692,-0.446 -0.692,-1.341c0,-0.896 0.263,-1.346 0.792,-1.346c1.154,0 2.767,0.096 4.842,0.291c1.845,0.196 3.229,0.296 4.154,0.296c1.15,0 2.533,-0.1 4.15,-0.296c1.646,-0.195 3.062,-0.291 4.25,-0.291l47.587,52.675l0,-41.704c0,-2.775 -0.796,-4.73 -2.4,-5.855c-1.596,-1.129 -4.55,-1.937 -8.871,-2.429c-0.529,-0.062 -0.787,-0.504 -0.787,-1.321c0,-0.908 0.258,-1.366 0.787,-1.366c1.784,0 4.15,0.096 7.121,0.291c2.767,0.196 4.909,0.296 6.421,0.296c1.646,0 3.875,-0.1 6.675,-0.296c2.7,-0.195 4.792,-0.291 6.271,-0.291c0.529,0 0.792,0.458 0.792,1.366Z" style="fill:#fff;"/><path d="M1706.31,372.417c0,0.812 -0.263,1.254 -0.788,1.321c-3.966,0.454 -6.666,1.187 -8.091,2.2c-1.43,1.008 -2.142,3.033 -2.142,6.066l0,5.767c0,5.025 0.362,8.483 1.087,10.371c-4.383,1.729 -9.116,3.142 -14.191,4.229c-5.075,1.096 -9.559,1.642 -13.45,1.642c-7.521,0 -14.117,-1.467 -19.784,-4.404c-5.671,-2.934 -10.091,-7.134 -13.254,-12.592c-3.167,-5.463 -4.746,-11.538 -4.746,-18.221c0,-6.65 1.713,-12.758 5.142,-18.317c3.429,-5.558 8.158,-9.87 14.192,-12.937c6.033,-3.067 12.875,-4.596 20.525,-4.596c2.966,0 6.958,0.521 11.966,1.563c4.421,0.912 7.8,1.37 10.142,1.37c0.425,4.567 1.183,10.109 2.275,16.63c0,0.525 -0.529,0.783 -1.583,0.783c-0.692,0 -1.104,-0.258 -1.234,-0.783c-2.904,-10.955 -10.62,-16.434 -23.15,-16.434c-7.75,0 -14.258,3.163 -19.512,9.488c-5.263,6.329 -7.892,14.071 -7.892,23.233c0,8.9 2.6,16.475 7.808,22.717c5.205,6.246 11.559,9.366 19.071,9.366c11.042,0 16.559,-2.708 16.559,-8.133l0,-12.933c0,-1.796 -0.875,-3.079 -2.621,-3.85c-1.746,-0.767 -5.929,-1.475 -12.554,-2.129c-0.525,0 -0.788,-0.48 -0.788,-1.442c0,-0.896 0.263,-1.346 0.788,-1.346c2.208,0 5.471,0.083 9.787,0.246c4.15,0.162 7.229,0.242 9.242,0.242c1.975,0 4.596,-0.08 7.854,-0.242c3.492,-0.163 6.346,-0.246 8.55,-0.246c0.529,0 0.792,0.458 0.792,1.371Z" style="fill:#fff;fill-rule:nonzero;"/><path d="M1706.31,372.417c0,0.812 -0.263,1.254 -0.788,1.321c-3.966,0.454 -6.666,1.187 -8.091,2.2c-1.43,1.008 -2.142,3.033 -2.142,6.066l0,5.767c0,5.025 0.362,8.483 1.087,10.371c-4.383,1.729 -9.116,3.142 -14.191,4.229c-5.075,1.096 -9.559,1.642 -13.45,1.642c-7.521,0 -14.117,-1.467 -19.784,-4.404c-5.671,-2.934 -10.091,-7.134 -13.254,-12.592c-3.167,-5.463 -4.746,-11.538 -4.746,-18.221c0,-6.65 1.713,-12.758 5.142,-18.317c3.429,-5.558 8.158,-9.87 14.192,-12.937c6.033,-3.067 12.875,-4.596 20.525,-4.596c2.966,0 6.958,0.521 11.966,1.563c4.421,0.912 7.8,1.37 10.142,1.37c0.425,4.567 1.183,10.109 2.275,16.63c0,0.525 -0.529,0.783 -1.583,0.783c-0.692,0 -1.104,-0.258 -1.234,-0.783c-2.904,-10.955 -10.62,-16.434 -23.15,-16.434c-7.75,0 -14.258,3.163 -19.512,9.488c-5.263,6.329 -7.892,14.071 -7.892,23.233c0,8.9 2.6,16.475 7.808,22.717c5.205,6.246 11.559,9.366 19.071,9.366c11.042,0 16.559,-2.708 16.559,-8.133l0,-12.933c0,-1.796 -0.875,-3.079 -2.621,-3.85c-1.746,-0.767 -5.929,-1.475 -12.554,-2.129c-0.525,0 -0.788,-0.48 -0.788,-1.442c0,-0.896 0.263,-1.346 0.788,-1.346c2.208,0 5.471,0.083 9.787,0.246c4.15,0.162 7.229,0.242 9.242,0.242c1.975,0 4.596,-0.08 7.854,-0.242c3.492,-0.163 6.346,-0.246 8.55,-0.246c0.529,0 0.792,0.458 0.792,1.371Z" style="fill:#fff;"/><path d="M77.2,350.55c0,-9.833 -4.65,-14.75 -13.954,-14.75c-3.063,0 -5.392,0.229 -6.979,0.679c-1.588,0.459 -2.642,1.175 -3.171,2.15c-0.529,0.975 -0.796,2.696 -0.796,5.155l0,22.479c2.117,0.266 4.779,0.404 7.992,0.404c5.871,0 10.158,-1.283 12.862,-3.842c2.696,-2.558 4.046,-6.65 4.046,-12.275Zm27.913,50.504c0,0.942 -0.292,1.409 -0.875,1.409c-1.35,0 -3.559,-0.117 -6.625,-0.35c-2.225,-0.171 -3.705,-0.254 -4.43,-0.254c-1.062,0 -2.72,0.1 -4.983,0.304c-2.262,0.2 -3.921,0.3 -4.979,0.3l-16.579,-24.838c-2.338,-3.437 -4.225,-5.646 -5.667,-6.625c-1.442,-0.975 -4.333,-1.462 -8.675,-1.462l0,21.646c0,2.316 0.321,3.954 0.958,4.912c0.638,0.958 1.767,1.713 3.396,2.263c1.621,0.554 3.946,1 6.975,1.337c0.621,0.067 0.929,0.521 0.929,1.358c0,0.942 -0.291,1.409 -0.875,1.409c-2.445,0 -5.362,-0.1 -8.754,-0.3c-3.25,-0.204 -5.987,-0.304 -8.212,-0.304c-2.225,0 -4.942,0.1 -8.154,0.304c-3.355,0.2 -6.255,0.3 -8.7,0.3c-0.584,0 -0.875,-0.467 -0.875,-1.409c0,-0.837 0.291,-1.291 0.875,-1.358c3.029,-0.337 5.345,-0.783 6.95,-1.337c1.608,-0.555 2.729,-1.3 3.366,-2.242c0.638,-0.942 0.959,-2.588 0.959,-4.938l0,-47.416c0,-2.321 -0.3,-3.954 -0.905,-4.913c-0.6,-0.958 -1.708,-1.721 -3.312,-2.296c-1.604,-0.57 -3.958,-1.025 -7.058,-1.358c-0.584,0 -0.875,-0.462 -0.875,-1.383c0,-0.925 0.291,-1.388 0.875,-1.388c2.445,0 5.345,0.104 8.7,0.304c3.212,0.2 5.929,0.3 8.154,0.3c2.225,0 4.962,-0.1 8.212,-0.3c3.392,-0.2 6.309,-0.304 8.754,-0.304c8.138,0 14.43,1.567 18.88,4.7c4.454,3.134 6.679,7.534 6.679,13.2c0,3.579 -1.471,6.9 -4.413,9.967c-2.941,3.067 -6.916,5.429 -11.929,7.083l16.854,25.25c1.463,2.209 3.346,3.838 5.65,4.888c2.304,1.054 5.284,1.783 8.938,2.183c0.512,0.067 0.771,0.521 0.771,1.358Z" style="fill:#fff;fill-rule:nonzero;"/><path d="M77.2,350.55c0,-9.833 -4.65,-14.75 -13.954,-14.75c-3.063,0 -5.392,0.229 -6.979,0.679c-1.588,0.459 -2.642,1.175 -3.171,2.15c-0.529,0.975 -0.796,2.696 -0.796,5.155l0,22.479c2.117,0.266 4.779,0.404 7.992,0.404c5.871,0 10.158,-1.283 12.862,-3.842c2.696,-2.558 4.046,-6.65 4.046,-12.275Zm27.913,50.504c0,0.942 -0.292,1.409 -0.875,1.409c-1.35,0 -3.559,-0.117 -6.625,-0.35c-2.225,-0.171 -3.705,-0.254 -4.43,-0.254c-1.062,0 -2.72,0.1 -4.983,0.304c-2.262,0.2 -3.921,0.3 -4.979,0.3l-16.579,-24.838c-2.338,-3.437 -4.225,-5.646 -5.667,-6.625c-1.442,-0.975 -4.333,-1.462 -8.675,-1.462l0,21.646c0,2.316 0.321,3.954 0.958,4.912c0.638,0.958 1.767,1.713 3.396,2.263c1.621,0.554 3.946,1 6.975,1.337c0.621,0.067 0.929,0.521 0.929,1.358c0,0.942 -0.291,1.409 -0.875,1.409c-2.445,0 -5.362,-0.1 -8.754,-0.3c-3.25,-0.204 -5.987,-0.304 -8.212,-0.304c-2.225,0 -4.942,0.1 -8.154,0.304c-3.355,0.2 -6.255,0.3 -8.7,0.3c-0.584,0 -0.875,-0.467 -0.875,-1.409c0,-0.837 0.291,-1.291 0.875,-1.358c3.029,-0.337 5.345,-0.783 6.95,-1.337c1.608,-0.555 2.729,-1.3 3.366,-2.242c0.638,-0.942 0.959,-2.588 0.959,-4.938l0,-47.416c0,-2.321 -0.3,-3.954 -0.905,-4.913c-0.6,-0.958 -1.708,-1.721 -3.312,-2.296c-1.604,-0.57 -3.958,-1.025 -7.058,-1.358c-0.584,0 -0.875,-0.462 -0.875,-1.383c0,-0.925 0.291,-1.388 0.875,-1.388c2.445,0 5.345,0.104 8.7,0.304c3.212,0.2 5.929,0.3 8.154,0.3c2.225,0 4.962,-0.1 8.212,-0.3c3.392,-0.2 6.309,-0.304 8.754,-0.304c8.138,0 14.43,1.567 18.88,4.7c4.454,3.134 6.679,7.534 6.679,13.2c0,3.579 -1.471,6.9 -4.413,9.967c-2.941,3.067 -6.916,5.429 -11.929,7.083l16.854,25.25c1.463,2.209 3.346,3.838 5.65,4.888c2.304,1.054 5.284,1.783 8.938,2.183c0.512,0.067 0.771,0.521 0.771,1.358Z" style="fill:#fff;"/><path d="M173.192,385.85c-2.959,5.809 -5.363,11.346 -7.225,16.613c-13.754,-0.4 -23.55,-0.604 -29.388,-0.604c-5.766,0 -15.541,0.204 -29.333,0.604c-0.583,0 -0.875,-0.467 -0.875,-1.409c0,-0.837 0.292,-1.291 0.875,-1.358c3.029,-0.337 5.342,-0.783 6.95,-1.337c1.604,-0.555 2.725,-1.3 3.367,-2.242c0.637,-0.942 0.958,-2.588 0.958,-4.938l0,-47.416c0,-2.321 -0.304,-3.954 -0.904,-4.913c-0.604,-0.958 -1.709,-1.721 -3.313,-2.296c-1.604,-0.57 -3.958,-1.025 -7.058,-1.358c-0.583,0 -0.875,-0.462 -0.875,-1.383c0,-0.925 0.292,-1.388 0.875,-1.388c9.196,0.404 18.608,0.604 28.237,0.604c9.705,0 19.138,-0.2 28.296,-0.604c0.838,5.204 2.059,10.342 3.663,15.409c0,0.67 -0.638,1.008 -1.913,1.008c-0.621,0 -1.004,-0.233 -1.15,-0.704c-2.7,-7.925 -8.466,-11.884 -17.291,-11.884l-11.059,0c-4.229,0 -6.346,2.013 -6.346,6.042l0,22.404l13.792,0c3.667,0 6.154,-0.771 7.454,-2.316c1.304,-1.542 2.209,-4.28 2.725,-8.209c0,-0.533 0.5,-0.804 1.504,-0.804c1.005,0 1.505,0.271 1.505,0.804c0,1.684 -0.109,3.796 -0.33,6.346c-0.216,2.45 -0.329,4.45 -0.329,5.992c0,1.579 0.113,3.591 0.329,6.041c0.221,2.621 0.33,4.767 0.33,6.446c0,0.538 -0.5,0.804 -1.505,0.804c-1.004,0 -1.504,-0.266 -1.504,-0.804c-0.55,-4.091 -1.512,-6.962 -2.887,-8.608c-1.379,-1.646 -3.809,-2.467 -7.292,-2.467l-13.792,0l0,24.771c0,3.963 2.117,5.942 6.346,5.942l11.934,0c4.341,0 8.645,-1.3 12.912,-3.904c4.271,-2.6 7.408,-5.846 9.417,-9.742c0.146,-0.3 0.454,-0.45 0.929,-0.45c0.508,0 0.967,0.121 1.367,0.375c0.4,0.25 0.604,0.562 0.604,0.933Z" style="fill:#fff;fill-rule:nonzero;"/><path d="M173.192,385.85c-2.959,5.809 -5.363,11.346 -7.225,16.613c-13.754,-0.4 -23.55,-0.604 -29.388,-0.604c-5.766,0 -15.541,0.204 -29.333,0.604c-0.583,0 -0.875,-0.467 -0.875,-1.409c0,-0.837 0.292,-1.291 0.875,-1.358c3.029,-0.337 5.342,-0.783 6.95,-1.337c1.604,-0.555 2.725,-1.3 3.367,-2.242c0.637,-0.942 0.958,-2.588 0.958,-4.938l0,-47.416c0,-2.321 -0.304,-3.954 -0.904,-4.913c-0.604,-0.958 -1.709,-1.721 -3.313,-2.296c-1.604,-0.57 -3.958,-1.025 -7.058,-1.358c-0.583,0 -0.875,-0.462 -0.875,-1.383c0,-0.925 0.292,-1.388 0.875,-1.388c9.196,0.404 18.608,0.604 28.237,0.604c9.705,0 19.138,-0.2 28.296,-0.604c0.838,5.204 2.059,10.342 3.663,15.409c0,0.67 -0.638,1.008 -1.913,1.008c-0.621,0 -1.004,-0.233 -1.15,-0.704c-2.7,-7.925 -8.466,-11.884 -17.291,-11.884l-11.059,0c-4.229,0 -6.346,2.013 -6.346,6.042l0,22.404l13.792,0c3.667,0 6.154,-0.771 7.454,-2.316c1.304,-1.542 2.209,-4.28 2.725,-8.209c0,-0.533 0.5,-0.804 1.504,-0.804c1.005,0 1.505,0.271 1.505,0.804c0,1.684 -0.109,3.796 -0.33,6.346c-0.216,2.45 -0.329,4.45 -0.329,5.992c0,1.579 0.113,3.591 0.329,6.041c0.221,2.621 0.33,4.767 0.33,6.446c0,0.538 -0.5,0.804 -1.505,0.804c-1.004,0 -1.504,-0.266 -1.504,-0.804c-0.55,-4.091 -1.512,-6.962 -2.887,-8.608c-1.379,-1.646 -3.809,-2.467 -7.292,-2.467l-13.792,0l0,24.771c0,3.963 2.117,5.942 6.346,5.942l11.934,0c4.341,0 8.645,-1.3 12.912,-3.904c4.271,-2.6 7.408,-5.846 9.417,-9.742c0.146,-0.3 0.454,-0.45 0.929,-0.45c0.508,0 0.967,0.121 1.367,0.375c0.4,0.25 0.604,0.562 0.604,0.933Z" style="fill:#fff;"/><path d="M249.146,383.834c-1.312,5.37 -2.592,11.079 -3.829,17.12c-2.079,0 -5.854,0.45 -11.329,1.359c-7.004,1.175 -12.188,1.762 -15.542,1.762c-8.317,0 -15.617,-1.512 -21.892,-4.529c-6.275,-3.021 -11.162,-7.346 -14.666,-12.967c-3.5,-5.62 -5.255,-11.875 -5.255,-18.758c0,-6.779 1.855,-13.029 5.559,-18.754c3.7,-5.721 8.8,-10.179 15.291,-13.367c6.496,-3.191 13.813,-4.783 21.946,-4.783c3.43,0 8.03,0.337 13.792,1.008c4.488,0.538 7.754,0.804 9.796,0.804c0.475,4.7 1.317,10.405 2.521,17.117c0,0.538 -0.588,0.808 -1.754,0.808c-0.73,0 -1.167,-0.27 -1.313,-0.808c-1.312,-4.562 -4.142,-8.325 -8.483,-11.279c-4.342,-2.95 -9.342,-4.429 -14.992,-4.429c-8.579,0 -15.775,3.258 -21.592,9.771c-5.821,6.512 -8.729,14.483 -8.729,23.912c0,9.167 2.883,16.963 8.646,23.392c5.767,6.425 12.808,9.641 21.125,9.641c13.025,0 22.254,-5.675 27.692,-17.02c0.254,-0.538 0.746,-0.805 1.479,-0.805c1.021,0 1.529,0.267 1.529,0.805Z" style="fill:#fff;fill-rule:nonzero;"/><path d="M249.146,383.834c-1.312,5.37 -2.592,11.079 -3.829,17.12c-2.079,0 -5.854,0.45 -11.329,1.359c-7.004,1.175 -12.188,1.762 -15.542,1.762c-8.317,0 -15.617,-1.512 -21.892,-4.529c-6.275,-3.021 -11.162,-7.346 -14.666,-12.967c-3.5,-5.62 -5.255,-11.875 -5.255,-18.758c0,-6.779 1.855,-13.029 5.559,-18.754c3.7,-5.721 8.8,-10.179 15.291,-13.367c6.496,-3.191 13.813,-4.783 21.946,-4.783c3.43,0 8.03,0.337 13.792,1.008c4.488,0.538 7.754,0.804 9.796,0.804c0.475,4.7 1.317,10.405 2.521,17.117c0,0.538 -0.588,0.808 -1.754,0.808c-0.73,0 -1.167,-0.27 -1.313,-0.808c-1.312,-4.562 -4.142,-8.325 -8.483,-11.279c-4.342,-2.95 -9.342,-4.429 -14.992,-4.429c-8.579,0 -15.775,3.258 -21.592,9.771c-5.821,6.512 -8.729,14.483 -8.729,23.912c0,9.167 2.883,16.963 8.646,23.392c5.767,6.425 12.808,9.641 21.125,9.641c13.025,0 22.254,-5.675 27.692,-17.02c0.254,-0.538 0.746,-0.805 1.479,-0.805c1.021,0 1.529,0.267 1.529,0.805Z" style="fill:#fff;"/><path d="M300.7,350.55c0,-9.833 -4.65,-14.75 -13.954,-14.75c-3.067,0 -5.392,0.229 -6.979,0.679c-1.588,0.459 -2.646,1.175 -3.175,2.15c-0.529,0.975 -0.792,2.696 -0.792,5.155l0,22.479c2.117,0.266 4.779,0.404 7.988,0.404c5.875,0 10.162,-1.283 12.862,-3.842c2.7,-2.558 4.05,-6.65 4.05,-12.275Zm27.913,50.504c0,0.942 -0.296,1.409 -0.879,1.409c-1.35,0 -3.555,-0.117 -6.621,-0.35c-2.225,-0.171 -3.704,-0.254 -4.434,-0.254c-1.058,0 -2.716,0.1 -4.979,0.304c-2.262,0.2 -3.921,0.3 -4.979,0.3l-16.583,-24.838c-2.334,-3.437 -4.221,-5.646 -5.663,-6.625c-1.441,-0.975 -4.333,-1.462 -8.675,-1.462l0,21.646c0,2.316 0.317,3.954 0.959,4.912c0.637,0.958 1.766,1.713 3.391,2.263c1.621,0.554 3.95,1 6.979,1.337c0.617,0.067 0.93,0.521 0.93,1.358c0,0.942 -0.292,1.409 -0.875,1.409c-2.446,0 -5.363,-0.1 -8.759,-0.3c-3.246,-0.204 -5.983,-0.304 -8.208,-0.304c-2.225,0 -4.946,0.1 -8.154,0.304c-3.359,0.2 -6.259,0.3 -8.7,0.3c-0.588,0 -0.875,-0.467 -0.875,-1.409c0,-0.837 0.287,-1.291 0.875,-1.358c3.029,-0.337 5.341,-0.783 6.95,-1.337c1.604,-0.555 2.725,-1.3 3.366,-2.242c0.638,-0.942 0.959,-2.588 0.959,-4.938l0,-47.416c0,-2.321 -0.304,-3.954 -0.904,-4.913c-0.605,-0.958 -1.709,-1.721 -3.313,-2.296c-1.604,-0.57 -3.958,-1.025 -7.058,-1.358c-0.588,0 -0.875,-0.462 -0.875,-1.383c0,-0.925 0.287,-1.388 0.875,-1.388c2.441,0 5.341,0.104 8.7,0.304c3.208,0.2 5.929,0.3 8.154,0.3c2.225,0 4.962,-0.1 8.208,-0.3c3.396,-0.2 6.313,-0.304 8.759,-0.304c8.133,0 14.429,1.567 18.879,4.7c4.45,3.134 6.679,7.534 6.679,13.2c0,3.579 -1.471,6.9 -4.413,9.967c-2.941,3.067 -6.92,5.429 -11.929,7.083l16.854,25.25c1.463,2.209 3.346,3.838 5.65,4.888c2.305,1.054 5.284,1.783 8.938,2.183c0.512,0.067 0.771,0.521 0.771,1.358Z" style="fill:#fff;fill-rule:nonzero;"/><path d="M300.7,350.55c0,-9.833 -4.65,-14.75 -13.954,-14.75c-3.067,0 -5.392,0.229 -6.979,0.679c-1.588,0.459 -2.646,1.175 -3.175,2.15c-0.529,0.975 -0.792,2.696 -0.792,5.155l0,22.479c2.117,0.266 4.779,0.404 7.988,0.404c5.875,0 10.162,-1.283 12.862,-3.842c2.7,-2.558 4.05,-6.65 4.05,-12.275Zm27.913,50.504c0,0.942 -0.296,1.409 -0.879,1.409c-1.35,0 -3.555,-0.117 -6.621,-0.35c-2.225,-0.171 -3.704,-0.254 -4.434,-0.254c-1.058,0 -2.716,0.1 -4.979,0.304c-2.262,0.2 -3.921,0.3 -4.979,0.3l-16.583,-24.838c-2.334,-3.437 -4.221,-5.646 -5.663,-6.625c-1.441,-0.975 -4.333,-1.462 -8.675,-1.462l0,21.646c0,2.316 0.317,3.954 0.959,4.912c0.637,0.958 1.766,1.713 3.391,2.263c1.621,0.554 3.95,1 6.979,1.337c0.617,0.067 0.93,0.521 0.93,1.358c0,0.942 -0.292,1.409 -0.875,1.409c-2.446,0 -5.363,-0.1 -8.759,-0.3c-3.246,-0.204 -5.983,-0.304 -8.208,-0.304c-2.225,0 -4.946,0.1 -8.154,0.304c-3.359,0.2 -6.259,0.3 -8.7,0.3c-0.588,0 -0.875,-0.467 -0.875,-1.409c0,-0.837 0.287,-1.291 0.875,-1.358c3.029,-0.337 5.341,-0.783 6.95,-1.337c1.604,-0.555 2.725,-1.3 3.366,-2.242c0.638,-0.942 0.959,-2.588 0.959,-4.938l0,-47.416c0,-2.321 -0.304,-3.954 -0.904,-4.913c-0.605,-0.958 -1.709,-1.721 -3.313,-2.296c-1.604,-0.57 -3.958,-1.025 -7.058,-1.358c-0.588,0 -0.875,-0.462 -0.875,-1.383c0,-0.925 0.287,-1.388 0.875,-1.388c2.441,0 5.341,0.104 8.7,0.304c3.208,0.2 5.929,0.3 8.154,0.3c2.225,0 4.962,-0.1 8.208,-0.3c3.396,-0.2 6.313,-0.304 8.759,-0.304c8.133,0 14.429,1.567 18.879,4.7c4.45,3.134 6.679,7.534 6.679,13.2c0,3.579 -1.471,6.9 -4.413,9.967c-2.941,3.067 -6.92,5.429 -11.929,7.083l16.854,25.25c1.463,2.209 3.346,3.838 5.65,4.888c2.305,1.054 5.284,1.783 8.938,2.183c0.512,0.067 0.771,0.521 0.771,1.358Z" style="fill:#fff;"/><path d="M404.846,333.813c0,0.921 -0.296,1.383 -0.879,1.383c-4.596,0.538 -7.679,1.321 -9.25,2.342c-1.567,1.025 -2.35,3.1 -2.35,6.225l0,31.591c0,8.971 -2.354,16 -7.054,21.088c-4.7,5.087 -11.338,7.633 -19.9,7.633c-9.771,0 -17.388,-2.425 -22.854,-7.283c-5.471,-4.854 -8.2,-11.458 -8.2,-19.825l0,-33.204c0,-2.321 -0.305,-3.954 -0.905,-4.913c-0.604,-0.958 -1.708,-1.721 -3.312,-2.296c-1.604,-0.57 -3.958,-1.025 -7.058,-1.358c-0.588,0 -0.875,-0.462 -0.875,-1.383c0,-0.925 0.287,-1.388 0.875,-1.388c2.441,0 5.341,0.104 8.7,0.304c3.208,0.2 5.929,0.3 8.154,0.3c2.225,0 4.962,-0.1 8.208,-0.3c3.396,-0.2 6.313,-0.304 8.758,-0.304c0.584,0 0.875,0.463 0.875,1.388c0,0.921 -0.291,1.383 -0.875,1.383c-3.1,0.338 -5.454,0.783 -7.062,1.338c-1.604,0.55 -2.725,1.308 -3.363,2.266c-0.641,0.959 -0.958,2.613 -0.958,4.963l0,31.796c0,8.262 1.696,14.329 5.088,18.191c3.391,3.863 8.92,5.796 16.583,5.796c14.408,0 21.617,-8.4 21.617,-25.196l0,-30.587c0,-3.125 -0.813,-5.217 -2.438,-6.275c-1.621,-1.059 -4.679,-1.821 -9.162,-2.292c-0.584,0 -0.88,-0.462 -0.88,-1.383c0,-0.925 0.292,-1.388 0.875,-1.388c1.671,0 3.871,0.104 6.6,0.304c2.8,0.2 5.071,0.3 6.817,0.3c1.746,0 3.933,-0.1 6.563,-0.3c2.7,-0.2 4.958,-0.304 6.783,-0.304c0.583,0 0.879,0.463 0.879,1.388Z" style="fill:#fff;fill-rule:nonzero;"/><path d="M404.846,333.813c0,0.921 -0.296,1.383 -0.879,1.383c-4.596,0.538 -7.679,1.321 -9.25,2.342c-1.567,1.025 -2.35,3.1 -2.35,6.225l0,31.591c0,8.971 -2.354,16 -7.054,21.088c-4.7,5.087 -11.338,7.633 -19.9,7.633c-9.771,0 -17.388,-2.425 -22.854,-7.283c-5.471,-4.854 -8.2,-11.458 -8.2,-19.825l0,-33.204c0,-2.321 -0.305,-3.954 -0.905,-4.913c-0.604,-0.958 -1.708,-1.721 -3.312,-2.296c-1.604,-0.57 -3.958,-1.025 -7.058,-1.358c-0.588,0 -0.875,-0.462 -0.875,-1.383c0,-0.925 0.287,-1.388 0.875,-1.388c2.441,0 5.341,0.104 8.7,0.304c3.208,0.2 5.929,0.3 8.154,0.3c2.225,0 4.962,-0.1 8.208,-0.3c3.396,-0.2 6.313,-0.304 8.758,-0.304c0.584,0 0.875,0.463 0.875,1.388c0,0.921 -0.291,1.383 -0.875,1.383c-3.1,0.338 -5.454,0.783 -7.062,1.338c-1.604,0.55 -2.725,1.308 -3.363,2.266c-0.641,0.959 -0.958,2.613 -0.958,4.963l0,31.796c0,8.262 1.696,14.329 5.088,18.191c3.391,3.863 8.92,5.796 16.583,5.796c14.408,0 21.617,-8.4 21.617,-25.196l0,-30.587c0,-3.125 -0.813,-5.217 -2.438,-6.275c-1.621,-1.059 -4.679,-1.821 -9.162,-2.292c-0.584,0 -0.88,-0.462 -0.88,-1.383c0,-0.925 0.292,-1.388 0.875,-1.388c1.671,0 3.871,0.104 6.6,0.304c2.8,0.2 5.071,0.3 6.817,0.3c1.746,0 3.933,-0.1 6.563,-0.3c2.7,-0.2 4.958,-0.304 6.783,-0.304c0.583,0 0.879,0.463 0.879,1.388Z" style="fill:#fff;"/><path d="M445.342,401.054c0,0.942 -0.292,1.409 -0.875,1.409c-2.446,0 -5.346,-0.1 -8.704,-0.3c-3.208,-0.204 -5.925,-0.304 -8.154,-0.304c-2.225,0 -4.942,0.1 -8.154,0.304c-3.392,0.2 -6.33,0.3 -8.809,0.3c-0.587,0 -0.879,-0.467 -0.879,-1.409c0,-0.837 0.292,-1.291 0.879,-1.358c4.413,-0.471 7.413,-1.229 9.004,-2.271c1.588,-1.041 2.38,-3.121 2.38,-6.246l0,-47.416c0,-2.35 -0.321,-4.004 -0.959,-4.963c-0.637,-0.958 -1.758,-1.716 -3.366,-2.271c-1.609,-0.554 -3.959,-1 -7.059,-1.333c-0.587,0 -0.879,-0.462 -0.879,-1.383c0,-0.925 0.292,-1.388 0.879,-1.388c2.479,0 5.417,0.104 8.809,0.304c3.212,0.2 5.929,0.3 8.154,0.3c2.229,0 4.946,-0.1 8.154,-0.3c3.358,-0.2 6.258,-0.304 8.704,-0.304c0.583,0 0.875,0.463 0.875,1.388c0,0.921 -0.292,1.383 -0.875,1.383c-3.067,0.333 -5.4,0.779 -7.004,1.333c-1.608,0.555 -2.721,1.305 -3.342,2.246c-0.621,0.938 -0.929,2.6 -0.929,4.988l0,47.416c0,2.317 0.308,3.959 0.929,4.913c0.621,0.958 1.725,1.712 3.313,2.267c1.587,0.554 3.912,1 6.979,1.337c0.617,0.067 0.929,0.521 0.929,1.358Z" style="fill:#fff;fill-rule:nonzero;"/><path d="M445.342,401.054c0,0.942 -0.292,1.409 -0.875,1.409c-2.446,0 -5.346,-0.1 -8.704,-0.3c-3.208,-0.204 -5.925,-0.304 -8.154,-0.304c-2.225,0 -4.942,0.1 -8.154,0.304c-3.392,0.2 -6.33,0.3 -8.809,0.3c-0.587,0 -0.879,-0.467 -0.879,-1.409c0,-0.837 0.292,-1.291 0.879,-1.358c4.413,-0.471 7.413,-1.229 9.004,-2.271c1.588,-1.041 2.38,-3.121 2.38,-6.246l0,-47.416c0,-2.35 -0.321,-4.004 -0.959,-4.963c-0.637,-0.958 -1.758,-1.716 -3.366,-2.271c-1.609,-0.554 -3.959,-1 -7.059,-1.333c-0.587,0 -0.879,-0.462 -0.879,-1.383c0,-0.925 0.292,-1.388 0.879,-1.388c2.479,0 5.417,0.104 8.809,0.304c3.212,0.2 5.929,0.3 8.154,0.3c2.229,0 4.946,-0.1 8.154,-0.3c3.358,-0.2 6.258,-0.304 8.704,-0.304c0.583,0 0.875,0.463 0.875,1.388c0,0.921 -0.292,1.383 -0.875,1.383c-3.067,0.333 -5.4,0.779 -7.004,1.333c-1.608,0.555 -2.721,1.305 -3.342,2.246c-0.621,0.938 -0.929,2.6 -0.929,4.988l0,47.416c0,2.317 0.308,3.959 0.929,4.913c0.621,0.958 1.725,1.712 3.313,2.267c1.587,0.554 3.912,1 6.979,1.337c0.617,0.067 0.929,0.521 0.929,1.358Z" style="fill:#fff;"/><path d="M526.884,348.992c0,0.637 -0.659,0.954 -1.971,0.954c-0.583,0 -0.95,-0.233 -1.096,-0.704c-1.567,-4.729 -3.812,-8.079 -6.733,-10.042c-2.917,-1.962 -7.242,-2.946 -12.967,-2.946l-5.146,0c-1.787,0 -3.008,0.267 -3.666,0.805c-0.655,0.537 -0.984,1.545 -0.984,3.02l0,51.105c0,2.316 0.317,3.954 0.959,4.912c0.637,0.958 1.766,1.713 3.391,2.263c1.625,0.554 3.95,1 6.979,1.337c0.58,0.067 0.875,0.521 0.875,1.358c0,0.942 -0.295,1.409 -0.875,1.409c-2.445,0 -5.366,-0.1 -8.758,-0.3c-3.217,-0.204 -5.908,-0.304 -8.071,-0.304c-2.237,0 -4.983,0.1 -8.237,0.304c-3.392,0.2 -6.313,0.3 -8.754,0.3c-0.584,0 -0.875,-0.467 -0.875,-1.409c0,-0.837 0.291,-1.291 0.875,-1.358c4.412,-0.471 7.412,-1.225 9,-2.267c1.587,-1.041 2.383,-3.12 2.383,-6.245l0,-51.105c0,-1.475 -0.329,-2.483 -0.988,-3.02c-0.654,-0.538 -1.895,-0.805 -3.72,-0.805l-4.267,0c-5.146,0 -9.817,1.2 -14.013,3.596c-4.195,2.404 -6.933,5.517 -8.208,9.342c-0.183,0.504 -0.583,0.754 -1.204,0.754c-1.242,0 -1.863,-0.367 -1.863,-1.104c2.046,-5.071 3.98,-10.808 5.805,-17.221c4.962,0.938 16.32,1.408 34.066,1.408c18.217,0 29.813,-0.47 34.775,-1.408c0.513,4.363 1.609,10.154 3.288,17.371Z" style="fill:#fff;fill-rule:nonzero;"/><path d="M526.884,348.992c0,0.637 -0.659,0.954 -1.971,0.954c-0.583,0 -0.95,-0.233 -1.096,-0.704c-1.567,-4.729 -3.812,-8.079 -6.733,-10.042c-2.917,-1.962 -7.242,-2.946 -12.967,-2.946l-5.146,0c-1.787,0 -3.008,0.267 -3.666,0.805c-0.655,0.537 -0.984,1.545 -0.984,3.02l0,51.105c0,2.316 0.317,3.954 0.959,4.912c0.637,0.958 1.766,1.713 3.391,2.263c1.625,0.554 3.95,1 6.979,1.337c0.58,0.067 0.875,0.521 0.875,1.358c0,0.942 -0.295,1.409 -0.875,1.409c-2.445,0 -5.366,-0.1 -8.758,-0.3c-3.217,-0.204 -5.908,-0.304 -8.071,-0.304c-2.237,0 -4.983,0.1 -8.237,0.304c-3.392,0.2 -6.313,0.3 -8.754,0.3c-0.584,0 -0.875,-0.467 -0.875,-1.409c0,-0.837 0.291,-1.291 0.875,-1.358c4.412,-0.471 7.412,-1.225 9,-2.267c1.587,-1.041 2.383,-3.12 2.383,-6.245l0,-51.105c0,-1.475 -0.329,-2.483 -0.988,-3.02c-0.654,-0.538 -1.895,-0.805 -3.72,-0.805l-4.267,0c-5.146,0 -9.817,1.2 -14.013,3.596c-4.195,2.404 -6.933,5.517 -8.208,9.342c-0.183,0.504 -0.583,0.754 -1.204,0.754c-1.242,0 -1.863,-0.367 -1.863,-1.104c2.046,-5.071 3.98,-10.808 5.805,-17.221c4.962,0.938 16.32,1.408 34.066,1.408c18.217,0 29.813,-0.47 34.775,-1.408c0.513,4.363 1.609,10.154 3.288,17.371Z" style="fill:#fff;"/><path d="M566.067,401.054c0,0.942 -0.292,1.409 -0.879,1.409c-2.442,0 -5.342,-0.1 -8.7,-0.3c-3.213,-0.204 -5.929,-0.304 -8.154,-0.304c-2.229,0 -4.95,0.1 -8.154,0.304c-3.396,0.2 -6.334,0.3 -8.809,0.3c-0.583,0 -0.879,-0.467 -0.879,-1.409c0,-0.837 0.296,-1.291 0.879,-1.358c4.413,-0.471 7.413,-1.229 8.996,-2.271c1.592,-1.041 2.388,-3.121 2.388,-6.246l0,-47.416c0,-2.35 -0.325,-4.004 -0.959,-4.963c-0.641,-0.958 -1.762,-1.716 -3.366,-2.271c-1.609,-0.554 -3.963,-1 -7.059,-1.333c-0.583,0 -0.879,-0.462 -0.879,-1.383c0,-0.925 0.296,-1.388 0.879,-1.388c2.475,0 5.413,0.104 8.809,0.304c3.204,0.2 5.925,0.3 8.154,0.3c2.225,0 4.941,-0.1 8.154,-0.3c3.358,-0.2 6.258,-0.304 8.7,-0.304c0.587,0 0.879,0.463 0.879,1.388c0,0.921 -0.292,1.383 -0.879,1.383c-3.063,0.333 -5.4,0.779 -7.004,1.333c-1.604,0.555 -2.717,1.305 -3.338,2.246c-0.621,0.938 -0.929,2.6 -0.929,4.988l0,47.416c0,2.317 0.308,3.959 0.929,4.913c0.621,0.958 1.725,1.712 3.313,2.267c1.587,0.554 3.912,1 6.975,1.337c0.621,0.067 0.933,0.521 0.933,1.358Z" style="fill:#fff;fill-rule:nonzero;"/><path d="M566.067,401.054c0,0.942 -0.292,1.409 -0.879,1.409c-2.442,0 -5.342,-0.1 -8.7,-0.3c-3.213,-0.204 -5.929,-0.304 -8.154,-0.304c-2.229,0 -4.95,0.1 -8.154,0.304c-3.396,0.2 -6.334,0.3 -8.809,0.3c-0.583,0 -0.879,-0.467 -0.879,-1.409c0,-0.837 0.296,-1.291 0.879,-1.358c4.413,-0.471 7.413,-1.229 8.996,-2.271c1.592,-1.041 2.388,-3.121 2.388,-6.246l0,-47.416c0,-2.35 -0.325,-4.004 -0.959,-4.963c-0.641,-0.958 -1.762,-1.716 -3.366,-2.271c-1.609,-0.554 -3.963,-1 -7.059,-1.333c-0.583,0 -0.879,-0.462 -0.879,-1.383c0,-0.925 0.296,-1.388 0.879,-1.388c2.475,0 5.413,0.104 8.809,0.304c3.204,0.2 5.925,0.3 8.154,0.3c2.225,0 4.941,-0.1 8.154,-0.3c3.358,-0.2 6.258,-0.304 8.7,-0.304c0.587,0 0.879,0.463 0.879,1.388c0,0.921 -0.292,1.383 -0.879,1.383c-3.063,0.333 -5.4,0.779 -7.004,1.333c-1.604,0.555 -2.717,1.305 -3.338,2.246c-0.621,0.938 -0.929,2.6 -0.929,4.988l0,47.416c0,2.317 0.308,3.959 0.929,4.913c0.621,0.958 1.725,1.712 3.313,2.267c1.587,0.554 3.912,1 6.975,1.337c0.621,0.067 0.933,0.521 0.933,1.358Z" style="fill:#fff;"/><path d="M663.642,333.838c0,0.837 -0.296,1.291 -0.875,1.358c-4.562,0.471 -7.691,1.246 -9.387,2.317c-1.696,1.079 -2.579,3.146 -2.654,6.204l-1.205,59.35c0,0.671 -0.437,1.008 -1.312,1.008c-0.442,0 -1.021,-0.266 -1.75,-0.804l-56.425,-58.658l-0.767,46.571l-0.054,0.758c0,2.55 0.875,4.354 2.625,5.412c1.754,1.059 4.908,1.838 9.471,2.342c0.579,0.067 0.875,0.521 0.875,1.358c0,0.942 -0.296,1.409 -0.875,1.409c-1.9,0 -4.509,-0.1 -7.829,-0.3c-3.1,-0.204 -5.488,-0.304 -7.167,-0.304c-1.825,0 -4.288,0.1 -7.388,0.304c-2.991,0.2 -5.308,0.3 -6.95,0.3c-0.583,0 -0.875,-0.467 -0.875,-1.409c0,-0.837 0.325,-1.291 0.984,-1.358c4.525,-0.504 7.625,-1.287 9.304,-2.346c1.675,-1.058 2.571,-3.112 2.683,-6.171l1.913,-47.416l0,-0.454c0,-2.721 -0.854,-4.617 -2.571,-5.696c-1.717,-1.071 -4.908,-1.879 -9.575,-2.417c-0.513,0 -0.771,-0.462 -0.771,-1.383c0,-0.925 0.292,-1.388 0.875,-1.388c1.279,0 3.067,0.104 5.367,0.304c2.041,0.2 3.575,0.3 4.596,0.3c1.275,0 2.808,-0.1 4.595,-0.3c1.825,-0.2 3.396,-0.304 4.709,-0.304l52.7,54.229l0,-42.933c0,-2.858 -0.883,-4.867 -2.654,-6.029c-1.771,-1.158 -5.046,-1.992 -9.825,-2.496c-0.584,-0.067 -0.875,-0.521 -0.875,-1.358c0,-0.942 0.291,-1.413 0.875,-1.413c1.971,0 4.596,0.104 7.879,0.304c3.071,0.2 5.437,0.3 7.117,0.3c1.825,0 4.287,-0.1 7.391,-0.3c2.992,-0.2 5.304,-0.304 6.95,-0.304c0.579,0 0.875,0.471 0.875,1.413Z" style="fill:#fff;fill-rule:nonzero;"/><path d="M663.642,333.838c0,0.837 -0.296,1.291 -0.875,1.358c-4.562,0.471 -7.691,1.246 -9.387,2.317c-1.696,1.079 -2.579,3.146 -2.654,6.204l-1.205,59.35c0,0.671 -0.437,1.008 -1.312,1.008c-0.442,0 -1.021,-0.266 -1.75,-0.804l-56.425,-58.658l-0.767,46.571l-0.054,0.758c0,2.55 0.875,4.354 2.625,5.412c1.754,1.059 4.908,1.838 9.471,2.342c0.579,0.067 0.875,0.521 0.875,1.358c0,0.942 -0.296,1.409 -0.875,1.409c-1.9,0 -4.509,-0.1 -7.829,-0.3c-3.1,-0.204 -5.488,-0.304 -7.167,-0.304c-1.825,0 -4.288,0.1 -7.388,0.304c-2.991,0.2 -5.308,0.3 -6.95,0.3c-0.583,0 -0.875,-0.467 -0.875,-1.409c0,-0.837 0.325,-1.291 0.984,-1.358c4.525,-0.504 7.625,-1.287 9.304,-2.346c1.675,-1.058 2.571,-3.112 2.683,-6.171l1.913,-47.416l0,-0.454c0,-2.721 -0.854,-4.617 -2.571,-5.696c-1.717,-1.071 -4.908,-1.879 -9.575,-2.417c-0.513,0 -0.771,-0.462 -0.771,-1.383c0,-0.925 0.292,-1.388 0.875,-1.388c1.279,0 3.067,0.104 5.367,0.304c2.041,0.2 3.575,0.3 4.596,0.3c1.275,0 2.808,-0.1 4.595,-0.3c1.825,-0.2 3.396,-0.304 4.709,-0.304l52.7,54.229l0,-42.933c0,-2.858 -0.883,-4.867 -2.654,-6.029c-1.771,-1.158 -5.046,-1.992 -9.825,-2.496c-0.584,-0.067 -0.875,-0.521 -0.875,-1.358c0,-0.942 0.291,-1.413 0.875,-1.413c1.971,0 4.596,0.104 7.879,0.304c3.071,0.2 5.437,0.3 7.117,0.3c1.825,0 4.287,-0.1 7.391,-0.3c2.992,-0.2 5.304,-0.304 6.95,-0.304c0.579,0 0.875,0.471 0.875,1.413Z" style="fill:#fff;"/><path d="M749.559,371.55c0,0.838 -0.292,1.292 -0.871,1.359c-4.396,0.47 -7.387,1.225 -8.962,2.266c-1.58,1.042 -2.371,3.121 -2.371,6.242l0,5.942c0,5.17 0.4,8.729 1.204,10.675c-4.858,1.779 -10.096,3.229 -15.717,4.354c-5.625,1.125 -10.587,1.687 -14.896,1.687c-8.325,0 -15.629,-1.512 -21.908,-4.529c-6.283,-3.021 -11.175,-7.346 -14.683,-12.967c-3.5,-5.62 -5.254,-11.875 -5.254,-18.758c0,-6.846 1.9,-13.129 5.695,-18.854c3.796,-5.725 9.038,-10.163 15.717,-13.317c6.683,-3.158 14.258,-4.733 22.729,-4.733c3.288,0 7.704,0.537 13.254,1.612c4.896,0.938 8.634,1.409 11.23,1.409c0.475,4.7 1.312,10.404 2.52,17.116c0,0.538 -0.587,0.809 -1.754,0.809c-0.766,0 -1.221,-0.271 -1.366,-0.809c-3.217,-11.279 -11.759,-16.916 -25.638,-16.916c-8.583,0 -15.787,3.258 -21.608,9.771c-5.825,6.512 -8.742,14.483 -8.742,23.912c0,9.167 2.888,16.963 8.646,23.392c5.767,6.425 12.812,9.641 21.129,9.641c12.217,0 18.329,-2.791 18.329,-8.375l0,-13.316c0,-1.85 -0.962,-3.171 -2.896,-3.959c-1.937,-0.791 -6.566,-1.52 -13.904,-2.195c-0.583,0 -0.875,-0.496 -0.875,-1.484c0,-0.925 0.292,-1.383 0.875,-1.383c2.446,0 6.059,0.083 10.838,0.25c4.596,0.167 8.004,0.25 10.233,0.25c2.188,0 5.088,-0.083 8.7,-0.25c3.867,-0.167 7.025,-0.25 9.471,-0.25c0.583,0 0.875,0.467 0.875,1.408Z" style="fill:#fff;fill-rule:nonzero;"/><path d="M749.559,371.55c0,0.838 -0.292,1.292 -0.871,1.359c-4.396,0.47 -7.387,1.225 -8.962,2.266c-1.58,1.042 -2.371,3.121 -2.371,6.242l0,5.942c0,5.17 0.4,8.729 1.204,10.675c-4.858,1.779 -10.096,3.229 -15.717,4.354c-5.625,1.125 -10.587,1.687 -14.896,1.687c-8.325,0 -15.629,-1.512 -21.908,-4.529c-6.283,-3.021 -11.175,-7.346 -14.683,-12.967c-3.5,-5.62 -5.254,-11.875 -5.254,-18.758c0,-6.846 1.9,-13.129 5.695,-18.854c3.796,-5.725 9.038,-10.163 15.717,-13.317c6.683,-3.158 14.258,-4.733 22.729,-4.733c3.288,0 7.704,0.537 13.254,1.612c4.896,0.938 8.634,1.409 11.23,1.409c0.475,4.7 1.312,10.404 2.52,17.116c0,0.538 -0.587,0.809 -1.754,0.809c-0.766,0 -1.221,-0.271 -1.366,-0.809c-3.217,-11.279 -11.759,-16.916 -25.638,-16.916c-8.583,0 -15.787,3.258 -21.608,9.771c-5.825,6.512 -8.742,14.483 -8.742,23.912c0,9.167 2.888,16.963 8.646,23.392c5.767,6.425 12.812,9.641 21.129,9.641c12.217,0 18.329,-2.791 18.329,-8.375l0,-13.316c0,-1.85 -0.962,-3.171 -2.896,-3.959c-1.937,-0.791 -6.566,-1.52 -13.904,-2.195c-0.583,0 -0.875,-0.496 -0.875,-1.484c0,-0.925 0.292,-1.383 0.875,-1.383c2.446,0 6.059,0.083 10.838,0.25c4.596,0.167 8.004,0.25 10.233,0.25c2.188,0 5.088,-0.083 8.7,-0.25c3.867,-0.167 7.025,-0.25 9.471,-0.25c0.583,0 0.875,0.467 0.875,1.408Z" style="fill:#fff;"/><path d="M865.484,311.625c0,-5.096 -1.254,-9.133 -3.754,-12.104c-2.504,-2.975 -5.975,-4.462 -10.417,-4.462c-3.591,0 -6.821,1.683 -9.675,5.045c-2.854,3.363 -4.283,7.7 -4.283,13.009c0,6.658 3.667,14.2 11,22.625c5.287,-3.396 9.462,-7.313 12.529,-11.738c3.067,-4.425 4.6,-8.55 4.6,-12.375Zm7.333,83.379l-38,-43.337c-14.308,10.412 -21.462,21.458 -21.462,33.142c0,8.354 2.433,15.045 7.3,20.075c4.871,5.025 11.533,7.537 19.996,7.537c11.5,0 22.221,-5.804 32.166,-17.417Zm74.717,-60.72c0,1.766 -0.567,2.716 -1.696,2.854c-7.537,1.204 -13.529,2.916 -17.971,5.137c-4.437,2.225 -8.529,5.629 -12.266,10.217l-25.163,31.342c10.642,12.141 18.271,20.012 22.888,23.612c4.616,3.6 9.046,5.4 13.271,5.4c5.92,0 11.245,-2.375 15.966,-7.125l0.529,-0.204c0.705,0 1.392,0.4 2.059,1.192c0.675,0.791 1.008,1.666 1.008,2.629c0,1.037 -1.796,3.304 -5.392,6.816c-3.595,3.509 -7.366,6.071 -11.312,7.692c-3.95,1.617 -8.354,2.425 -13.217,2.425c-6.137,0 -11.933,-1.662 -17.396,-4.983c-5.462,-3.321 -12.67,-10.388 -21.625,-21.188c-7.312,9.571 -14.7,16.325 -22.154,20.263c-7.454,3.937 -16.037,5.908 -25.742,5.908c-10.15,0 -18.962,-3.783 -26.433,-11.346c-7.475,-7.566 -11.208,-16.437 -11.208,-26.621c0,-15.979 12.971,-29.979 38.908,-42c-4.271,-4.875 -7.187,-9.175 -8.754,-12.883c-1.567,-3.712 -2.346,-7.725 -2.346,-12.042c0,-8.979 3.013,-16.737 9.042,-23.279c6.025,-6.537 13.587,-9.808 22.679,-9.808c7.683,0 14.183,2.3 19.508,6.9c5.321,4.6 7.984,10.017 7.984,16.246c0,4.954 -2.038,9.766 -6.109,14.441c-4.075,4.671 -10.741,9.659 -20.008,14.967l33.238,38.013c8.441,-10.525 13.716,-17.709 15.829,-21.55c2.108,-3.842 3.166,-7.33 3.166,-10.459c0,-2.987 -1.5,-5.212 -4.495,-6.671c-2.996,-1.454 -7.875,-2.466 -14.642,-3.041c-1.204,-0.067 -1.8,-1.017 -1.8,-2.854c0,-1.971 0.562,-2.959 1.692,-2.959c3.029,0 7.47,0.175 13.32,0.529c7.334,0.492 13.325,0.738 17.975,0.738c4.725,0 10.259,-0.246 16.605,-0.738c5.141,-0.354 9.266,-0.529 12.366,-0.529c1.129,0 1.696,0.988 1.696,2.959Z" style="fill:#fff;fill-rule:nonzero;"/><path d="M611.6,155.363c-1.991,0.833 -4.112,1.312 -6.504,1.379c-1.125,0.029 -2.233,-0.096 -3.308,-0.342c-20.367,3.179 -41.404,13.517 -49.458,40.979c0,0 8.008,4.209 22.654,2.763c7.212,-1.817 14.45,-3.592 21.646,-5.475c8.616,-3.396 18.395,-8.7 29.179,-16.559c2.054,-2.175 4.458,-4.05 7.212,-5.545c3.417,-2.75 6.9,-5.688 10.496,-8.971c1.438,-1.688 3.079,-3.213 4.909,-4.559l0.25,-0.233c0,0 -17.067,-4.558 -37.076,-3.437Z" style="fill:#fff;fill-rule:nonzero;"/><path d="M518.905,119.454c-2.98,-2.596 -4.996,-6.066 -6.042,-9.85c-6.483,-9.625 -15.15,-20.008 -26.696,-30.996c0,0 -13.442,59.546 16.975,87.025l0.988,0.892c2.416,2.063 5.179,3.863 8.15,5.496c2.633,0.504 4.833,1.579 6.616,3.046c2.904,1.096 5.95,2.071 9.325,2.746c0,-0.005 10.367,-22.846 -9.316,-58.359Z" style="fill:#fff;fill-rule:nonzero;"/><path d="M602.117,57.838c-1.858,0.879 -3.971,1.783 -6.208,2.704c-23.804,12.783 -62.117,41.983 -33.246,87.921c0,0 50.425,-6.28 49.633,-95.405c0,0 -1.925,0.684 -5.025,2.013c-1.675,0.996 -3.391,1.929 -5.154,2.767Z" style="fill:#fff;fill-rule:nonzero;"/><path d="M502.234,291.267c0.058,-4.954 0.754,-21.375 6.779,-44.004c0.292,-2.109 0.883,-4.2 1.742,-6.204c7.416,-25.059 21.258,-56.505 47.145,-88.159c0,0 -53.737,43.392 -64.404,144.146l8.5,-4.075c0.084,-0.579 0.163,-1.15 0.238,-1.704Z" style="fill:#fff;fill-rule:nonzero;"/></g></svg>